<?xml version="1.0" encoding="UTF-8" standalone="no"?>
<!-- Created with Inkscape (http://www.inkscape.org/) -->

<svg
   xmlns:dc="http://purl.org/dc/elements/1.1/"
   xmlns:cc="http://creativecommons.org/ns#"
   xmlns:rdf="http://www.w3.org/1999/02/22-rdf-syntax-ns#"
   xmlns:svg="http://www.w3.org/2000/svg"
   xmlns="http://www.w3.org/2000/svg"
   xmlns:sodipodi="http://sodipodi.sourceforge.net/DTD/sodipodi-0.dtd"
   xmlns:inkscape="http://www.inkscape.org/namespaces/inkscape"
   width="140.13766mm"
   height="178.67496mm"
   viewBox="0 0 140.13766 178.67496"
   version="1.1"
   id="svg8"
   inkscape:version="0.92.4 (5da689c313, 2019-01-14)"
   sodipodi:docname="AB Mask Pattern.svg">
  <defs
     id="defs2">
    <clipPath
       id="clipPath144"
       clipPathUnits="userSpaceOnUse">
      <path
         style="clip-rule:evenodd"
         inkscape:connector-curvature="0"
         id="path142"
         d="m 158.34,582.66 -26.1,-69.24 -11.58,4.38 26.1,69.18" />
    </clipPath>
    <clipPath
       id="clipPath150"
       clipPathUnits="userSpaceOnUse">
      <path
         inkscape:connector-curvature="0"
         id="path148"
         d="M 0,792.03 H 612 V 0.03 H 0 Z" />
    </clipPath>
    <clipPath
       id="clipPath162"
       clipPathUnits="userSpaceOnUse">
      <path
         style="clip-rule:evenodd"
         inkscape:connector-curvature="0"
         id="path160"
         d="m 158.34,582.66 -26.1,-69.24 -11.58,4.38 26.1,69.18" />
    </clipPath>
    <clipPath
       id="clipPath168"
       clipPathUnits="userSpaceOnUse">
      <path
         inkscape:connector-curvature="0"
         id="path166"
         d="M 0,792.03 H 612 V 0.03 H 0 Z" />
    </clipPath>
    <clipPath
       id="clipPath180"
       clipPathUnits="userSpaceOnUse">
      <path
         style="clip-rule:evenodd"
         inkscape:connector-curvature="0"
         id="path178"
         d="m 127.56,211.68 47.82,-56.52 -9.48,-8.04 -47.82,56.52" />
    </clipPath>
    <clipPath
       id="clipPath186"
       clipPathUnits="userSpaceOnUse">
      <path
         inkscape:connector-curvature="0"
         id="path184"
         d="M 0,792.03 H 612 V 0.03 H 0 Z" />
    </clipPath>
  </defs>
  <sodipodi:namedview
     id="base"
     pagecolor="#ffffff"
     bordercolor="#666666"
     borderopacity="1.0"
     inkscape:pageopacity="0.0"
     inkscape:pageshadow="2"
     inkscape:zoom="2.8"
     inkscape:cx="339.90704"
     inkscape:cy="252.59695"
     inkscape:document-units="mm"
     inkscape:current-layer="layer1"
     showgrid="false"
     fit-margin-top="0"
     fit-margin-left="0"
     fit-margin-right="0"
     fit-margin-bottom="0"
     inkscape:window-width="3840"
     inkscape:window-height="2004"
     inkscape:window-x="-16"
     inkscape:window-y="-16"
     inkscape:window-maximized="1" />
  <metadata
     id="metadata5">
    <rdf:RDF>
      <cc:Work
         rdf:about="">
        <dc:format>image/svg+xml</dc:format>
        <dc:type
           rdf:resource="http://purl.org/dc/dcmitype/StillImage" />
        <dc:title></dc:title>
      </cc:Work>
    </rdf:RDF>
  </metadata>
  <g
     inkscape:label="Layer 1"
     inkscape:groupmode="layer"
     id="layer1"
     transform="translate(-29.659498,-21.872268)">
    <g
       id="g1248">
      <g
         transform="matrix(0.35277777,0,0,-0.35277777,30.005332,21.872268)"
         id="g104">
        <path
           inkscape:connector-curvature="0"
           id="path106"
           style="fill:#000000;fill-opacity:1;fill-rule:nonzero;stroke:none"
           d="m 0,0 395.1,-111.18 -0.36,-1.44 L -0.42,-1.44" />
      </g>
      <path
         inkscape:connector-curvature="0"
         id="path108"
         style="fill:#000000;fill-opacity:1;fill-rule:nonzero;stroke:#0000ff;stroke-width:0.35277778;stroke-opacity:1"
         d="m 157.11116,58.300101 h -0.35983 v 1.418167 h 0.35983 z m -0.35983,0 z m 0.35983,2.4765 h -0.35983 v 1.397 h 0.35983 z m -0.35983,0 z m 0.35983,2.455333 h -0.35983 v 1.418167 h 0.35983 z m -0.35983,0 z m 0.35983,2.4765 h -0.35983 v 1.418167 h 0.35983 z m -0.35983,0 z m 0.35983,2.4765 h -0.35983 v 1.397 h 0.35983 z m -0.35983,0 z m 0.35983,2.455333 h -0.35983 v 1.418167 h 0.35983 z m -0.35983,0 z m 0.35983,2.4765 h -0.35983 v 1.418167 h 0.35983 z m -0.35983,0 z m 0.35983,2.4765 h -0.35983 v 1.397 h 0.35983 z m -0.35983,0 z m 0.35983,2.455333 h -0.35983 v 1.418167 h 0.35983 z m -0.35983,0 z m 0.35983,2.4765 h -0.35983 v 1.418167 h 0.35983 z m -0.35983,0 z m 0.35983,2.4765 h -0.35983 v 1.397 h 0.35983 z m -0.35983,0 z m 0.35983,2.455334 h -0.35983 V 86.8751 h 0.35983 z m -0.35983,0 z m 0.35983,2.4765 h -0.35983 V 89.3516 h 0.35983 z m -0.35983,0 z m 0.35983,2.4765 h -0.35983 v 1.397 h 0.35983 z m -0.35983,0 z m 0.35983,2.455333 h -0.35983 v 1.418166 h 0.35983 z m -0.35983,0 z m 0.35983,2.4765 h -0.35983 v 1.418166 h 0.35983 z m -0.35983,0 z m 0.35983,2.4765 h -0.35983 v 1.397 h 0.35983 z m -0.35983,0 z m 0.35983,2.455333 h -0.35983 v 1.41817 h 0.35983 z m -0.35983,0 z m 0.35983,2.4765 h -0.35983 v 1.41817 h 0.35983 z m -0.35983,0 z m 0.35983,2.4765 h -0.35983 v 1.397 h 0.35983 z m -0.35983,0 z m 0.35983,2.45533 h -0.35983 v 1.41817 h 0.35983 z m -0.35983,0 z m 0.35983,2.4765 h -0.35983 v 1.41817 h 0.35983 z m -0.35983,0 z m 0.35983,2.4765 h -0.35983 v 1.397 h 0.35983 z m -0.35983,0 z m 0.35983,2.45534 h -0.35983 v 1.41816 h 0.35983 z m -0.35983,0 z m 0.35983,2.4765 h -0.35983 v 1.41816 h 0.35983 z m -0.35983,0 z m 0.35983,2.4765 h -0.35983 v 1.397 h 0.35983 z m -0.35983,0 z m 0.35983,2.45533 h -0.35983 v 1.41817 h 0.35983 z m -0.35983,0 z m 0.35983,2.4765 h -0.35983 v 1.41817 h 0.35983 z m -0.35983,0 z m 0.35983,2.4765 h -0.35983 v 1.397 h 0.35983 z m -0.35983,0 z m 0.35983,2.45533 h -0.35983 v 1.41817 h 0.35983 z m -0.35983,0 z m 0.35983,2.4765 h -0.35983 v 1.41817 h 0.35983 z m -0.35983,0 z m 0.35983,2.4765 h -0.35983 v 1.397 h 0.35983 z m -0.35983,0 z m 0.35983,2.45534 h -0.35983 v 1.41816 h 0.35983 z m -0.35983,0 z m 0.35983,2.4765 h -0.35983 v 1.41816 h 0.35983 z m -0.35983,0 z m 0.35983,2.4765 h -0.35983 v 1.397 h 0.35983 z m -0.35983,0 z m 0.35983,2.45533 h -0.35983 v 1.41817 h 0.35983 z m -0.35983,0 z m 0.35983,2.4765 h -0.35983 v 1.41817 h 0.35983 z m -0.35983,0 z m 0.35983,2.4765 h -0.35983 v 1.397 h 0.35983 z m -0.35983,0 z m 0.35983,2.45533 h -0.35983 v 1.41817 h 0.35983 z m -0.35983,0 z m 0.35983,2.4765 h -0.35983 v 1.41817 h 0.35983 z m -0.35983,0 z m 0.35983,2.4765 h -0.35983 v 1.397 h 0.35983 z m -0.35983,0 z m 0.35983,2.45534 h -0.35983 v 1.41816 h 0.35983 z m -0.35983,0 z m 0.35983,2.4765 h -0.35983 v 1.41816 h 0.35983 z m -0.35983,0 z m 0.35983,2.4765 h -0.35983 v 1.397 h 0.35983 z m -0.35983,0 z m 0.35983,2.45533 h -0.35983 v 1.41817 h 0.35983 z m -0.35983,0 z m 0.35983,2.4765 h -0.35983 v 1.41817 h 0.35983 z m -0.35983,0 z m 0.35983,2.4765 h -0.35983 v 1.397 h 0.35983 z m -0.35983,0 z m 0.35983,2.45533 h -0.35983 v 1.41817 h 0.35983 z m -0.35983,0 z m 0.35983,2.4765 h -0.35983 v 1.41817 h 0.35983 z m -0.35983,0 z m 0.35983,2.4765 h -0.35983 v 1.397 h 0.35983 z m -0.35983,0 z m 0.35983,2.45533 h -0.35983 v 1.41817 h 0.35983 z m -0.35983,0 z m 0.35983,2.4765 h -0.35983 v 1.41817 h 0.35983 z m -0.35983,0 z m 0.35983,2.4765 h -0.35983 v 1.397 h 0.35983 z m -0.35983,0 z m 0.35983,2.45534 h -0.35983 v 0.23283 h 0.35983 z" />
      <g
         transform="matrix(0.35277777,0,0,-0.35277777,30.089998,79.6996)"
         id="g110">
        <path
           inkscape:connector-curvature="0"
           id="path112"
           style="fill:#ff0000;fill-opacity:1;fill-rule:nonzero;stroke:none"
           d="m 0,0 54,148.08 -0.9,0.3 L -0.9,0.3" />
      </g>
      <g
         transform="matrix(0.35277777,0,0,-0.35277777,30.068832,176.2831)"
         id="g114">
        <path
           inkscape:connector-curvature="0"
           id="path116"
           style="fill:#ff0000;fill-opacity:1;fill-rule:nonzero;stroke:none"
           d="m 0,0 54,-60.48 -0.78,-0.66 -54,60.48" />
      </g>
      <path
         inkscape:connector-curvature="0"
         id="path118"
         style="fill:#000000;fill-opacity:1;fill-rule:nonzero;stroke:none;stroke-width:0.35277778"
         d="m 168.647,188.17876 h 0.52916 V 61.157601 H 168.647 Z" />
      <g
         transform="matrix(0.35277777,0,0,-0.35277777,168.901,187.09926)"
         id="g120">
        <path
           inkscape:connector-curvature="0"
           id="path122"
           style="fill:#000000;fill-opacity:1;fill-rule:nonzero;stroke:none"
           d="m 0,0 -393.42,-35.1 0.12,-1.5 393.42,35.1" />
      </g>
      <path
         inkscape:connector-curvature="0"
         id="path124"
         style="fill:none;fill-opacity:1;fill-rule:nonzero;stroke:#000000;stroke-width:0.35299999;stroke-miterlimit:4;stroke-dasharray:none;stroke-opacity:1"
         d="m 29.835998,22.528435 h 0.190497 v 0.6985 h -0.190497 z m 0.1905,0 z m -0.1905,1.227667 h 0.190497 v 0.719666 h -0.190497 z m 0.1905,0 z m -0.1905,1.248833 h 0.190497 v 0.6985 h -0.190497 z m 0.1905,0 z m -0.1905,1.227667 h 0.190497 v 0.6985 h -0.190497 z m 0.1905,0 z m -0.1905,1.227666 h 0.190497 v 0.719667 h -0.190497 z m 0.1905,0 z m -0.1905,1.248834 h 0.190497 v 0.6985 h -0.190497 z m 0.1905,0 z m -0.1905,1.227666 h 0.190497 v 0.6985 h -0.190497 z m 0.1905,0 z m -0.1905,1.227667 h 0.190497 v 0.719666 h -0.190497 z m 0.1905,0 z m -0.1905,1.248833 h 0.190497 v 0.6985 h -0.190497 z m 0.1905,0 z m -0.1905,1.227667 h 0.190497 v 0.6985 h -0.190497 z m 0.1905,0 z m -0.1905,1.227666 h 0.190497 v 0.719667 h -0.190497 z m 0.1905,0 z m -0.1905,1.248834 h 0.190497 v 0.6985 h -0.190497 z m 0.1905,0 z m -0.1905,1.227666 h 0.190497 v 0.6985 h -0.190497 z m 0.1905,0 z m -0.1905,1.227667 h 0.190497 v 0.719667 h -0.190497 z m 0.1905,0 z m -0.1905,1.248833 h 0.190497 v 0.6985 h -0.190497 z m 0.1905,0 z m -0.1905,1.227667 h 0.190497 v 0.6985 h -0.190497 z m 0.1905,0 z m -0.1905,1.227667 h 0.190497 v 0.719666 h -0.190497 z m 0.1905,0 z m -0.1905,1.248833 h 0.190497 v 0.6985 h -0.190497 z m 0.1905,0 z m -0.1905,1.227667 h 0.190497 v 0.6985 h -0.190497 z m 0.1905,0 z m -0.1905,1.227666 h 0.190497 v 0.719667 h -0.190497 z m 0.1905,0 z m -0.1905,1.248833 h 0.190497 v 0.6985 h -0.190497 z m 0.1905,0 z m -0.1905,1.227667 h 0.190497 v 0.6985 h -0.190497 z m 0.1905,0 z m -0.1905,1.227667 h 0.190497 v 0.719666 h -0.190497 z m 0.1905,0 z m -0.1905,1.248833 h 0.190497 v 0.6985 h -0.190497 z m 0.1905,0 z m -0.1905,1.227667 h 0.190497 v 0.6985 h -0.190497 z m 0.1905,0 z m -0.1905,1.227666 h 0.190497 v 0.719667 h -0.190497 z m 0.1905,0 z m -0.1905,1.248834 h 0.190497 v 0.6985 h -0.190497 z m 0.1905,0 z m -0.1905,1.227666 h 0.190497 v 0.6985 h -0.190497 z m 0.1905,0 z m -0.1905,1.227667 h 0.190497 v 0.719667 h -0.190497 z m 0.1905,0 z m -0.1905,1.248833 h 0.190497 v 0.6985 h -0.190497 z m 0.1905,0 z m -0.1905,1.227667 h 0.190497 v 0.6985 h -0.190497 z m 0.1905,0 z m -0.1905,1.227667 h 0.190497 v 0.719666 h -0.190497 z m 0.1905,0 z m -0.1905,1.248833 h 0.190497 v 0.6985 h -0.190497 z m 0.1905,0 z m -0.1905,1.227666 h 0.190497 v 0.6985 h -0.190497 z m 0.1905,0 z m -0.1905,1.227667 h 0.190497 v 0.719667 h -0.190497 z m 0.1905,0 z m -0.1905,1.248833 h 0.190497 v 0.6985 h -0.190497 z m 0.1905,0 z m -0.1905,1.227667 h 0.190497 v 0.6985 h -0.190497 z m 0.1905,0 z m -0.1905,1.227667 h 0.190497 v 0.719666 h -0.190497 z m 0.1905,0 z m -0.1905,1.248833 h 0.190497 v 0.6985 h -0.190497 z m 0.1905,0 z m -0.1905,1.227667 h 0.190497 v 0.6985 h -0.190497 z m 0.1905,0 z m -0.1905,1.227666 h 0.190497 v 0.719667 h -0.190497 z m 0.1905,0 z m -0.1905,1.248834 h 0.190497 v 0.6985 h -0.190497 z m 0.1905,0 z m -0.1905,1.227666 h 0.190497 v 0.6985 h -0.190497 z m 0.1905,0 z m -0.1905,1.227667 h 0.190497 v 0.719667 h -0.190497 z m 0.1905,0 z m -0.1905,1.248833 h 0.190497 v 0.6985 h -0.190497 z m 0.1905,0 z m -0.1905,1.227667 h 0.190497 v 0.6985 h -0.190497 z m 0.1905,0 z m -0.1905,1.227666 h 0.190497 v 0.719667 h -0.190497 z m 0.1905,0 z m -0.1905,1.248834 h 0.190497 v 0.6985 h -0.190497 z m 0.1905,0 z m -0.1905,1.227666 h 0.190497 v 0.6985 h -0.190497 z m 0.1905,0 z m -0.1905,1.227667 h 0.190497 v 0.719667 h -0.190497 z m 0.1905,0 z m -0.1905,1.248833 h 0.190497 v 0.6985 h -0.190497 z m 0.1905,0 z m -0.1905,1.227667 h 0.190497 v 0.6985 h -0.190497 z m 0.1905,0 z m -0.1905,1.227667 h 0.190497 V 87.4466 h -0.190497 z m 0.1905,0 z m -0.1905,1.248833 h 0.190497 v 0.6985 h -0.190497 z m 0.1905,0 z m -0.1905,1.227667 h 0.190497 v 0.6985 h -0.190497 z m 0.1905,0 z m -0.1905,1.227666 h 0.190497 v 0.719667 h -0.190497 z m 0.1905,0 z m -0.1905,1.248834 h 0.190497 v 0.698499 h -0.190497 z m 0.1905,0 z m -0.1905,1.227666 h 0.190497 v 0.6985 h -0.190497 z m 0.1905,0 z m -0.1905,1.227667 h 0.190497 v 0.719666 h -0.190497 z m 0.1905,0 z m -0.1905,1.248833 h 0.190497 v 0.6985 h -0.190497 z m 0.1905,0 z m -0.1905,1.227667 h 0.190497 v 0.6985 h -0.190497 z m 0.1905,0 z m -0.1905,1.227666 h 0.190497 V 98.5591 h -0.190497 z m 0.1905,0 z m -0.1905,1.248834 h 0.190497 v 0.6985 h -0.190497 z m 0.1905,0 z m -0.1905,1.227663 h 0.190497 v 0.6985 h -0.190497 z m 0.1905,0 z m -0.1905,1.22767 h 0.190497 v 0.71967 h -0.190497 z m 0.1905,0 z m -0.1905,1.24883 h 0.190497 v 0.6985 h -0.190497 z m 0.1905,0 z m -0.1905,1.22767 h 0.190497 v 0.6985 h -0.190497 z m 0.1905,0 z m -0.1905,1.22767 h 0.190497 v 0.71966 h -0.190497 z m 0.1905,0 z m -0.1905,1.24883 h 0.190497 v 0.6985 h -0.190497 z m 0.1905,0 z m -0.1905,1.22767 h 0.190497 v 0.6985 h -0.190497 z m 0.1905,0 z m -0.1905,1.22766 h 0.190497 v 0.71967 h -0.190497 z m 0.1905,0 z m -0.1905,1.24884 h 0.190497 v 0.6985 h -0.190497 z m 0.1905,0 z m -0.1905,1.22766 h 0.190497 v 0.6985 h -0.190497 z m 0.1905,0 z m -0.1905,1.22767 h 0.190497 v 0.71967 h -0.190497 z m 0.1905,0 z m -0.1905,1.24883 h 0.190497 v 0.6985 h -0.190497 z m 0.1905,0 z m -0.1905,1.22767 h 0.190497 v 0.6985 h -0.190497 z m 0.1905,0 z m -0.1905,1.22767 h 0.190497 v 0.71966 h -0.190497 z m 0.1905,0 z m -0.1905,1.24883 h 0.190497 v 0.6985 h -0.190497 z m 0.1905,0 z m -0.1905,1.22767 h 0.190497 v 0.6985 h -0.190497 z m 0.1905,0 z m -0.1905,1.22766 h 0.190497 v 0.71967 h -0.190497 z m 0.1905,0 z m -0.1905,1.24884 h 0.190497 v 0.6985 h -0.190497 z m 0.1905,0 z m -0.1905,1.22766 h 0.190497 v 0.6985 h -0.190497 z m 0.1905,0 z m -0.1905,1.22767 h 0.190497 v 0.71967 h -0.190497 z m 0.1905,0 z m -0.1905,1.24883 h 0.190497 v 0.6985 h -0.190497 z m 0.1905,0 z m -0.1905,1.22767 h 0.190497 v 0.6985 h -0.190497 z m 0.1905,0 z m -0.1905,1.22767 h 0.190497 v 0.71966 h -0.190497 z m 0.1905,0 z m -0.1905,1.24883 h 0.190497 v 0.6985 h -0.190497 z m 0.1905,0 z m -0.1905,1.22767 h 0.190497 v 0.6985 h -0.190497 z m 0.1905,0 z m -0.1905,1.22766 h 0.190497 v 0.71967 h -0.190497 z m 0.1905,0 z m -0.1905,1.24884 h 0.190497 v 0.6985 h -0.190497 z m 0.1905,0 z m -0.1905,1.22766 h 0.190497 v 0.6985 h -0.190497 z m 0.1905,0 z m -0.1905,1.22767 h 0.190497 v 0.71967 h -0.190497 z m 0.1905,0 z m -0.1905,1.24883 h 0.190497 v 0.6985 h -0.190497 z m 0.1905,0 z m -0.1905,1.22767 h 0.190497 v 0.6985 h -0.190497 z m 0.1905,0 z m -0.1905,1.22767 h 0.190497 v 0.71966 h -0.190497 z m 0.1905,0 z m -0.1905,1.24883 h 0.190497 v 0.6985 h -0.190497 z m 0.1905,0 z m -0.1905,1.22767 h 0.190497 v 0.6985 h -0.190497 z m 0.1905,0 z m -0.1905,1.22766 h 0.190497 v 0.71967 h -0.190497 z m 0.1905,0 z m -0.1905,1.24884 h 0.190497 v 0.6985 h -0.190497 z m 0.1905,0 z m -0.1905,1.22766 h 0.190497 v 0.6985 h -0.190497 z m 0.1905,0 z m -0.1905,1.22767 h 0.190497 v 0.71967 h -0.190497 z m 0.1905,0 z m -0.1905,1.24883 h 0.190497 v 0.6985 h -0.190497 z m 0.1905,0 z m -0.1905,1.22767 h 0.190497 v 0.6985 h -0.190497 z m 0.1905,0 z m -0.1905,1.22767 h 0.190497 v 0.71966 h -0.190497 z m 0.1905,0 z m -0.1905,1.24883 h 0.190497 v 0.6985 h -0.190497 z m 0.1905,0 z m -0.1905,1.22767 h 0.190497 v 0.6985 h -0.190497 z m 0.1905,0 z m -0.1905,1.22766 h 0.190497 v 0.71967 h -0.190497 z m 0.1905,0 z m -0.1905,1.24884 h 0.190497 v 0.6985 h -0.190497 z m 0.1905,0 z m -0.1905,1.22766 h 0.190497 v 0.6985 h -0.190497 z m 0.1905,0 z m -0.1905,1.22767 h 0.190497 v 0.71967 h -0.190497 z m 0.1905,0 z m -0.1905,1.24883 h 0.190497 v 0.6985 h -0.190497 z m 0.1905,0 z m -0.1905,1.22767 h 0.190497 v 0.6985 h -0.190497 z m 0.1905,0 z m -0.1905,1.22767 h 0.190497 v 0.71966 h -0.190497 z m 0.1905,0 z m -0.1905,1.24883 h 0.190497 v 0.6985 h -0.190497 z m 0.1905,0 z m -0.1905,1.22767 h 0.190497 v 0.6985 h -0.190497 z m 0.1905,0 z m -0.1905,1.22766 h 0.190497 v 0.71967 h -0.190497 z m 0.1905,0 z m -0.1905,1.24884 h 0.190497 v 0.6985 h -0.190497 z m 0.1905,0 z m -0.1905,1.22766 h 0.190497 v 0.6985 h -0.190497 z m 0.1905,0 z m -0.1905,1.22767 h 0.190497 v 0.71967 h -0.190497 z m 0.1905,0 z m -0.1905,1.24883 h 0.190497 v 0.6985 h -0.190497 z m 0.1905,0 z m -0.1905,1.22767 h 0.190497 v 0.6985 h -0.190497 z m 0.1905,0 z m -0.1905,1.22767 h 0.190497 v 0.71966 h -0.190497 z m 0.1905,0 z m -0.1905,1.24883 h 0.190497 v 0.6985 h -0.190497 z m 0.1905,0 z m -0.1905,1.22767 h 0.190497 v 0.6985 h -0.190497 z m 0.1905,0 z m -0.1905,1.22766 h 0.190497 v 0.71967 h -0.190497 z m 0.1905,0 z m -0.1905,1.24883 h 0.190497 v 0.6985 h -0.190497 z m 0.1905,0 z m -0.1905,1.22767 h 0.190497 v 0.6985 h -0.190497 z m 0.1905,0 z m -0.1905,1.22767 h 0.190497 v 0.71966 h -0.190497 z m 0.1905,0 z m -0.1905,1.24883 h 0.190497 v 0.6985 h -0.190497 z m 0.1905,0 z m -0.1905,1.22767 h 0.190497 v 0.6985 h -0.190497 z m 0.1905,0 z m -0.1905,1.22766 h 0.190497 v 0.71967 h -0.190497 z m 0.1905,0 z m -0.1905,1.24884 h 0.190497 v 0.6985 h -0.190497 z m 0.1905,0 z m -0.1905,1.22766 h 0.190497 v 0.6985 h -0.190497 z m 0.1905,0 z m -0.1905,1.22767 h 0.190497 v 0.71967 h -0.190497 z m 0.1905,0 z m -0.1905,1.24883 h 0.190497 v 0.6985 h -0.190497 z m 0.1905,0 z m -0.1905,1.22767 h 0.190497 v 0.6985 h -0.190497 z m 0.1905,0 z m -0.1905,1.22767 h 0.190497 v 0.71966 h -0.190497 z m 0.1905,0 z m -0.1905,1.24883 h 0.190497 v 0.6985 h -0.190497 z m 0.1905,0 z m -0.1905,1.22767 h 0.190497 v 0.6985 h -0.190497 z m 0.1905,0 z m -0.1905,1.22766 h 0.190497 v 0.71967 h -0.190497 z m 0.1905,0 z m -0.1905,1.24884 h 0.190497 v 0.6985 h -0.190497 z m 0.1905,0 z m -0.1905,1.22766 h 0.190497 v 0.6985 h -0.190497 z m 0.1905,0 z m -0.1905,1.22767 h 0.190497 v 0.71967 h -0.190497 z m 0.1905,0 z m -0.1905,1.24883 h 0.190497 v 0.6985 h -0.190497 z m 0.1905,0 z m -0.1905,1.22767 h 0.190497 v 0.0423 h -0.190497 z" />
      <path
         inkscape:connector-curvature="0"
         id="path126"
         style="fill:#ffffff;fill-opacity:1;fill-rule:nonzero;stroke:none;stroke-width:0.35277778"
         d="m 160.18033,145.69727 h 7.112 V 106.8776 h -7.112 z" />
      <text
         y="164.79466"
         x="-143.0726"
         id="text130"
         style="font-variant:normal;font-weight:normal;font-stretch:normal;font-size:3.53483343px;font-family:Arial;-inkscape-font-specification:ArialMT;writing-mode:lr-tb;fill:#000000;fill-opacity:1;fill-rule:nonzero;stroke:#00ff00;stroke-width:0.35277778;stroke-opacity:1"
         transform="rotate(-90)">
        <tspan
           style="stroke:#00ff00;stroke-width:0.35277778;stroke-opacity:1"
           id="tspan128"
           sodipodi:role="line"
           y="164.79466"
           x="-143.0726 -140.13586 -138.95064 -137.97643 -136.19841 -134.23058 -132.2765 -129.34331 -128.36911 -126.40127 -125.62785 -124.85442 -122.90037 -120.33974 -118.37189 -116.41784 -114.63982 -112.68576">½” seam allowance</tspan>
      </text>
      <path
         inkscape:connector-curvature="0"
         id="path132"
         style="fill:#ffffff;fill-opacity:1;fill-rule:nonzero;stroke:none;stroke-width:0.35277778"
         d="m 31.762165,138.79693 h 7.112 V 113.7991 h -7.112 z" />
      <g
         style="stroke:#00ff00;stroke-opacity:1"
         transform="matrix(0.35277777,0,0,-0.35277777,-8.1793343,251.06493)"
         id="g138">
        <g
           style="stroke:#00ff00;stroke-opacity:1"
           clip-path="url(#clipPath144)"
           id="g140">
          <g
             style="stroke:#00ff00;stroke-opacity:1"
             clip-path="url(#clipPath150)"
             id="g146">
            <g
               style="stroke:#00ff00;stroke-opacity:1"
               transform="translate(146.82,578.46)"
               id="g152">
              <path
                 inkscape:connector-curvature="0"
                 id="path154"
                 style="fill:#000000;fill-opacity:1;fill-rule:nonzero;stroke:#00ff00;stroke-opacity:1"
                 d="m 0,0 6.72,-2.52 -0.36,-0.9 -6.6,-1.56 5.28,-1.98 -0.3,-0.84 -6.72,2.52 0.36,0.9 6.6,1.56 -5.28,1.98 z m 0.06,-7.32 c 0.9,-0.3 1.44,-0.84 1.68,-1.5 0.24,-0.54 0.18,-1.14 0,-1.74 -0.3,-0.66 -0.72,-1.08 -1.32,-1.38 -0.6,-0.24 -1.26,-0.24 -2.04,0.06 -0.6,0.24 -1.08,0.54 -1.38,0.84 -0.3,0.3 -0.42,0.72 -0.48,1.14 -0.12,0.42 -0.06,0.84 0.12,1.26 0.24,0.72 0.66,1.14 1.26,1.44 0.6,0.24 1.32,0.24 2.16,-0.12 z M -0.3,-8.16 c -0.6,0.24 -1.14,0.3 -1.56,0.12 -0.36,-0.12 -0.66,-0.42 -0.84,-0.84 -0.12,-0.42 -0.12,-0.78 0.12,-1.2 0.18,-0.36 0.6,-0.72 1.26,-0.96 0.6,-0.18 1.08,-0.24 1.5,-0.06 0.42,0.12 0.72,0.42 0.84,0.84 0.18,0.42 0.12,0.78 -0.06,1.2 -0.18,0.36 -0.6,0.66 -1.26,0.9 z m -2.58,-3.9 -0.18,-0.9 c -0.36,0.12 -0.66,0.06 -0.9,-0.06 -0.24,-0.18 -0.42,-0.42 -0.6,-0.78 -0.12,-0.42 -0.18,-0.72 -0.06,-0.96 0.06,-0.24 0.24,-0.36 0.42,-0.48 0.18,-0.06 0.36,0 0.54,0.12 0.12,0.06 0.3,0.3 0.6,0.72 0.36,0.54 0.66,0.9 0.84,1.08 0.24,0.24 0.42,0.36 0.66,0.36 0.24,0.06 0.48,0.06 0.72,-0.06 0.24,-0.06 0.42,-0.18 0.6,-0.36 0.12,-0.18 0.24,-0.36 0.3,-0.6 0,-0.12 0.06,-0.36 0,-0.6 0,-0.24 -0.06,-0.48 -0.12,-0.72 -0.18,-0.42 -0.36,-0.72 -0.6,-0.96 -0.18,-0.24 -0.42,-0.42 -0.66,-0.48 -0.24,-0.06 -0.54,-0.06 -0.84,0 l 0.18,0.84 c 0.24,-0.06 0.48,0 0.72,0.12 0.18,0.12 0.36,0.3 0.48,0.66 0.12,0.36 0.18,0.66 0.12,0.9 -0.06,0.18 -0.18,0.3 -0.36,0.36 -0.12,0.06 -0.24,0.06 -0.3,0 -0.12,0 -0.24,-0.06 -0.36,-0.18 -0.06,-0.12 -0.24,-0.3 -0.48,-0.66 -0.36,-0.54 -0.66,-0.9 -0.84,-1.08 -0.18,-0.18 -0.42,-0.3 -0.66,-0.36 -0.24,-0.06 -0.48,-0.06 -0.78,0.06 -0.24,0.06 -0.48,0.24 -0.66,0.54 -0.18,0.24 -0.3,0.54 -0.3,0.9 -0.06,0.36 0,0.72 0.18,1.08 0.24,0.66 0.54,1.08 0.96,1.32 0.36,0.18 0.84,0.3 1.38,0.18 z m -3.06,-8.4 -0.42,-0.84 c -0.42,0.3 -0.72,0.72 -0.84,1.2 -0.18,0.42 -0.12,0.96 0.06,1.5 0.3,0.72 0.72,1.2 1.32,1.5 0.6,0.24 1.26,0.18 2.1,-0.12 0.78,-0.3 1.38,-0.72 1.62,-1.32 0.3,-0.6 0.36,-1.2 0.06,-1.92 -0.24,-0.66 -0.66,-1.08 -1.26,-1.32 -0.6,-0.24 -1.26,-0.24 -2.1,0.06 -0.06,0.06 -0.12,0.06 -0.18,0.12 l 1.32,3.6 c -0.54,0.18 -0.96,0.18 -1.38,0 -0.36,-0.12 -0.66,-0.42 -0.78,-0.84 -0.12,-0.3 -0.18,-0.6 -0.06,-0.84 0.06,-0.3 0.24,-0.54 0.54,-0.78 z m 2.34,2.16 -1.02,-2.7 c 0.42,-0.12 0.78,-0.12 1.08,-0.06 0.42,0.18 0.66,0.42 0.84,0.84 0.12,0.42 0.12,0.78 0,1.14 -0.18,0.36 -0.48,0.6 -0.9,0.78" />
            </g>
          </g>
        </g>
      </g>
      <g
         style="stroke:#00ff00;stroke-opacity:1"
         transform="matrix(0.35277777,0,0,-0.35277777,-8.1793343,251.06493)"
         id="g156">
        <g
           style="stroke:#00ff00;stroke-opacity:1"
           clip-path="url(#clipPath162)"
           id="g158">
          <g
             style="stroke:#00ff00;stroke-opacity:1"
             clip-path="url(#clipPath168)"
             id="g164">
            <g
               style="stroke:#00ff00;stroke-opacity:1"
               transform="translate(136.44,550.92)"
               id="g170">
              <path
                 inkscape:connector-curvature="0"
                 id="path172"
                 style="fill:#000000;fill-opacity:1;fill-rule:nonzero;stroke:#00ff00;stroke-opacity:1"
                 d="M 0,0 0.6,-0.24 C 0.24,0.3 0.18,0.84 0.42,1.44 0.54,1.8 0.78,2.1 1.14,2.34 1.5,2.58 1.86,2.76 2.34,2.76 2.76,2.82 3.24,2.76 3.72,2.52 4.2,2.34 4.62,2.1 4.98,1.8 5.28,1.5 5.52,1.14 5.58,0.72 5.7,0.36 5.64,-0.06 5.52,-0.48 5.4,-0.78 5.22,-1.02 5.04,-1.2 4.8,-1.38 4.56,-1.5 4.32,-1.56 l 2.4,-0.9 -0.3,-0.84 -6.72,2.52 z M 3.42,1.68 C 2.82,1.92 2.28,1.98 1.86,1.86 1.44,1.68 1.2,1.44 1.08,1.08 0.9,0.72 0.96,0.36 1.14,0 1.38,-0.36 1.74,-0.66 2.34,-0.9 3.06,-1.14 3.54,-1.2 3.96,-1.08 4.38,-0.9 4.68,-0.66 4.8,-0.3 4.92,0.06 4.92,0.42 4.68,0.78 4.5,1.14 4.08,1.44 3.42,1.68 Z m -4.8,-7.14 c -0.12,0.42 -0.18,0.78 -0.18,1.08 0,0.36 0.06,0.66 0.18,0.96 0.18,0.54 0.48,0.9 0.84,1.08 0.36,0.24 0.78,0.24 1.14,0.06 0.24,-0.06 0.48,-0.18 0.6,-0.36 0.18,-0.18 0.3,-0.42 0.3,-0.66 0.06,-0.18 0.12,-0.42 0.06,-0.66 0,-0.18 -0.06,-0.42 -0.12,-0.78 -0.18,-0.72 -0.3,-1.2 -0.3,-1.56 0.12,-0.06 0.18,-0.12 0.24,-0.12 0.3,-0.12 0.6,-0.12 0.78,0 0.24,0.12 0.48,0.42 0.66,0.84 0.12,0.36 0.18,0.66 0.12,0.9 -0.12,0.24 -0.3,0.48 -0.6,0.66 l 0.42,0.78 C 3.06,-3.42 3.3,-3.66 3.48,-3.9 3.6,-4.14 3.66,-4.44 3.66,-4.8 3.66,-5.16 3.6,-5.58 3.42,-6 3.3,-6.42 3.12,-6.72 2.88,-6.96 2.7,-7.14 2.52,-7.32 2.34,-7.38 2.1,-7.44 1.92,-7.44 1.68,-7.44 1.5,-7.38 1.26,-7.32 0.9,-7.2 l -1.14,0.42 c -0.72,0.3 -1.26,0.48 -1.44,0.54 -0.24,0 -0.42,0 -0.66,0 l 0.3,0.84 c 0.24,0 0.42,0 0.66,-0.06 z m 1.86,-0.6 c 0,0.3 0.06,0.84 0.24,1.44 0.06,0.36 0.12,0.6 0.06,0.78 0,0.18 -0.06,0.3 -0.12,0.42 -0.06,0.12 -0.18,0.24 -0.36,0.3 -0.18,0.06 -0.42,0.06 -0.66,-0.06 -0.18,-0.12 -0.36,-0.36 -0.48,-0.66 -0.12,-0.3 -0.12,-0.6 -0.12,-0.9 0.06,-0.3 0.18,-0.6 0.36,-0.78 0.18,-0.18 0.42,-0.3 0.78,-0.42 z M -2.7,-7.2 2.16,-9.06 1.86,-9.78 1.14,-9.48 c 0.24,-0.36 0.42,-0.6 0.48,-0.78 0.06,-0.24 0.06,-0.42 -0.06,-0.6 -0.06,-0.3 -0.3,-0.54 -0.54,-0.78 l -0.66,0.6 c 0.18,0.12 0.3,0.3 0.36,0.54 0.12,0.18 0.12,0.36 0.06,0.54 C 0.72,-9.78 0.6,-9.6 0.42,-9.48 0.18,-9.3 -0.12,-9.12 -0.48,-9 L -3,-8.04 Z m -1.14,-5.22 -0.78,0.12 c 0.06,0.24 0.12,0.48 0.18,0.66 0.12,0.3 0.24,0.54 0.42,0.66 0.12,0.12 0.3,0.18 0.48,0.18 0.18,0 0.54,-0.06 1.02,-0.24 l 2.76,-1.08 0.24,0.6 0.66,-0.24 -0.24,-0.6 1.2,-0.42 0.18,-1.02 -1.68,0.66 -0.3,-0.84 -0.66,0.24 0.3,0.84 -2.82,1.02 c -0.24,0.12 -0.42,0.18 -0.48,0.18 -0.06,0 -0.12,-0.06 -0.24,-0.12 -0.06,-0.06 -0.12,-0.12 -0.12,-0.24 -0.06,-0.12 -0.06,-0.24 -0.12,-0.36" />
            </g>
          </g>
        </g>
      </g>
      <g
         style="stroke:#00ff00;stroke-opacity:1"
         transform="matrix(0.35277777,0,0,-0.35277777,-8.1793343,251.06493)"
         id="g174">
        <g
           style="stroke:#00ff00;stroke-opacity:1"
           clip-path="url(#clipPath180)"
           id="g176">
          <g
             style="stroke:#00ff00;stroke-opacity:1"
             clip-path="url(#clipPath186)"
             id="g182">
            <g
               style="stroke:#00ff00;stroke-opacity:1"
               transform="translate(130.86,197.34)"
               id="g188">
              <path
                 inkscape:connector-curvature="0"
                 id="path190"
                 style="fill:#000000;fill-opacity:1;fill-rule:nonzero;stroke:#00ff00;stroke-opacity:1"
                 d="M 0,0 0.42,-0.84 C -0.3,-1.2 -0.96,-1.32 -1.62,-1.2 c -0.66,0.12 -1.2,0.48 -1.68,1.08 -0.48,0.54 -0.78,1.14 -0.84,1.74 -0.12,0.54 0,1.14 0.3,1.68 0.3,0.6 0.72,1.14 1.26,1.56 0.54,0.48 1.14,0.78 1.74,0.9 C -0.24,5.94 0.36,5.88 0.9,5.7 1.5,5.46 1.98,5.1 2.4,4.62 2.82,4.08 3.06,3.48 3.12,2.88 3.18,2.28 3,1.68 2.58,1.14 L 1.86,1.68 C 2.1,2.16 2.28,2.58 2.22,3 2.22,3.36 2.04,3.78 1.74,4.14 1.38,4.56 0.96,4.8 0.54,4.92 0.12,5.04 -0.36,4.98 -0.78,4.8 -1.2,4.68 -1.62,4.44 -1.98,4.08 -2.46,3.72 -2.76,3.3 -3,2.88 -3.24,2.46 -3.36,2.04 -3.24,1.56 -3.18,1.14 -3,0.78 -2.76,0.42 -2.4,0 -1.98,-0.24 -1.5,-0.3 -1.02,-0.36 -0.54,-0.3 0,0 Z M -0.6,-3.18 4.86,1.44 5.46,0.78 3.48,-0.84 c 0.66,-0.06 1.14,-0.3 1.56,-0.78 0.24,-0.24 0.42,-0.6 0.48,-0.9 0.06,-0.3 0,-0.6 -0.12,-0.84 -0.12,-0.3 -0.36,-0.6 -0.72,-0.9 l -2.52,-2.16 -0.6,0.72 2.52,2.1 c 0.36,0.3 0.54,0.54 0.54,0.84 0.06,0.3 -0.06,0.54 -0.3,0.84 C 4.2,-1.74 3.96,-1.62 3.72,-1.5 3.48,-1.44 3.24,-1.44 3,-1.5 2.76,-1.56 2.46,-1.74 2.16,-1.98 L 0,-3.84 Z m 8.34,-0.3 0.72,0.66 0.6,-0.66 -0.78,-0.66 z M 3,-7.44 6.96,-4.08 7.56,-4.74 3.6,-8.1 Z m 1.44,-1.68 3.96,3.36 0.54,-0.6 -0.6,-0.48 c 0.72,0.06 1.26,-0.18 1.74,-0.72 0.18,-0.24 0.36,-0.48 0.42,-0.78 0.12,-0.24 0.12,-0.48 0.06,-0.72 C 10.5,-9.3 10.38,-9.48 10.2,-9.72 10.14,-9.84 9.9,-10.02 9.6,-10.26 L 7.14,-12.36 6.6,-11.7 9,-9.66 c 0.3,0.24 0.48,0.48 0.54,0.6 0.12,0.18 0.12,0.36 0.12,0.6 -0.06,0.18 -0.12,0.36 -0.3,0.54 -0.24,0.3 -0.54,0.48 -0.9,0.54 C 8.1,-7.32 7.68,-7.56 7.2,-7.98 l -2.16,-1.8 z m 7.56,-8.94 0.48,0.42 c -0.6,-0.06 -1.08,0.12 -1.5,0.6 -0.3,0.3 -0.42,0.72 -0.48,1.08 -0.06,0.42 0,0.84 0.18,1.26 0.24,0.42 0.54,0.78 0.9,1.14 0.42,0.3 0.84,0.54 1.26,0.72 0.42,0.12 0.84,0.12 1.26,0 0.36,-0.12 0.72,-0.3 1.02,-0.66 0.18,-0.24 0.3,-0.48 0.36,-0.78 0.06,-0.24 0.06,-0.54 0,-0.78 l 1.98,1.68 0.54,-0.66 -5.46,-4.62 z m 0.18,3.78 c -0.48,-0.42 -0.78,-0.84 -0.84,-1.26 -0.12,-0.42 0,-0.78 0.24,-1.08 0.24,-0.3 0.6,-0.42 1.02,-0.42 0.36,-0.06 0.84,0.18 1.32,0.6 0.54,0.48 0.84,0.9 0.96,1.32 0.06,0.42 0,0.78 -0.3,1.08 -0.24,0.3 -0.6,0.48 -0.96,0.48 -0.42,-0.06 -0.9,-0.24 -1.44,-0.72 z m 3.9,-7.62 c -0.42,0.12 -0.78,0.18 -1.08,0.36 -0.24,0.18 -0.54,0.36 -0.72,0.66 -0.42,0.42 -0.6,0.84 -0.54,1.26 0,0.42 0.18,0.72 0.48,1.02 0.24,0.18 0.42,0.3 0.66,0.3 0.24,0.06 0.48,0.06 0.66,0 0.24,-0.06 0.48,-0.18 0.66,-0.3 0.12,-0.12 0.36,-0.24 0.6,-0.48 0.54,-0.54 0.96,-0.84 1.26,-1.02 0.06,0.06 0.12,0.12 0.18,0.12 0.24,0.24 0.42,0.48 0.42,0.72 0,0.3 -0.12,0.6 -0.42,0.96 -0.3,0.3 -0.54,0.48 -0.78,0.54 -0.24,0.06 -0.54,0 -0.84,-0.18 l -0.48,0.72 c 0.3,0.18 0.66,0.3 0.9,0.3 0.3,0 0.6,-0.06 0.9,-0.24 0.36,-0.18 0.66,-0.48 0.9,-0.78 0.3,-0.36 0.48,-0.66 0.6,-0.96 0.12,-0.24 0.12,-0.48 0.12,-0.72 -0.06,-0.18 -0.18,-0.36 -0.3,-0.6 -0.12,-0.12 -0.3,-0.3 -0.6,-0.54 l -0.9,-0.78 c -0.6,-0.48 -1.02,-0.84 -1.14,-1.02 -0.12,-0.18 -0.24,-0.36 -0.36,-0.6 l -0.54,0.72 c 0.06,0.18 0.18,0.36 0.36,0.54 z m 1.44,1.32 c -0.3,0.18 -0.72,0.48 -1.2,0.9 -0.24,0.24 -0.48,0.42 -0.6,0.48 -0.18,0.06 -0.3,0.12 -0.48,0.06 -0.12,0 -0.24,-0.06 -0.36,-0.18 -0.18,-0.12 -0.3,-0.3 -0.3,-0.54 0,-0.24 0.12,-0.48 0.36,-0.78 0.18,-0.24 0.42,-0.42 0.72,-0.54 0.3,-0.12 0.6,-0.12 0.84,-0.06 0.24,0.06 0.48,0.24 0.78,0.48 z m -0.54,-3.36 3.96,3.36 0.54,-0.6 -0.6,-0.54 c 0.42,0.06 0.72,0.12 0.9,0.06 0.18,-0.06 0.36,-0.18 0.48,-0.36 0.24,-0.18 0.36,-0.48 0.36,-0.84 l -0.78,-0.3 c -0.06,0.24 -0.12,0.42 -0.3,0.6 -0.12,0.18 -0.24,0.24 -0.42,0.3 -0.24,0.06 -0.42,0 -0.6,-0.06 -0.3,-0.12 -0.6,-0.3 -0.9,-0.54 l -2.04,-1.8 z m 4.02,-3.54 -0.48,-0.6 c -0.24,0.12 -0.36,0.3 -0.54,0.42 -0.18,0.3 -0.3,0.48 -0.36,0.72 0,0.18 0,0.36 0.06,0.54 0.12,0.12 0.36,0.36 0.72,0.72 l 2.34,1.92 -0.42,0.54 0.48,0.42 0.42,-0.48 1.02,0.84 0.96,-0.36 -1.38,-1.14 0.54,-0.72 -0.54,-0.42 -0.54,0.66 -2.34,-1.98 c -0.18,-0.12 -0.3,-0.24 -0.3,-0.3 -0.06,-0.12 -0.06,-0.18 -0.06,-0.24 0,-0.06 0.06,-0.18 0.12,-0.3 0.12,-0.06 0.18,-0.12 0.3,-0.24" />
            </g>
          </g>
        </g>
      </g>
      <path
         inkscape:connector-curvature="0"
         id="path192"
         style="fill:#767171;fill-opacity:1;fill-rule:nonzero;stroke:#0000ff;stroke-width:0.35277778;stroke-opacity:1"
         d="m 29.920665,132.36227 h 1.058333 v 0.25399 h -1.058333 z m 1.862666,0 h 1.058334 v 0.25399 h -1.058334 z m 1.8415,0 h 1.058334 v 0.25399 h -1.058334 z m 1.862667,0 h 1.058333 v 0.25399 h -1.058333 z m 1.8415,0 h 1.058333 v 0.25399 h -1.058333 z m 1.862667,0 h 1.058333 v 0.25399 h -1.058333 z m 1.8415,0 h 1.058333 v 0.25399 h -1.058333 z m 1.862666,0 h 1.058334 v 0.25399 h -1.058334 z m 1.8415,0 h 1.058334 v 0.25399 h -1.058334 z m 1.862667,0 h 1.058333 v 0.25399 h -1.058333 z m 1.8415,0 h 1.058333 v 0.25399 h -1.058333 z m 1.862666,0 h 1.058334 v 0.25399 h -1.058334 z m 1.8415,0 h 1.058334 v 0.25399 h -1.058334 z m 1.862667,0 h 1.058333 v 0.25399 h -1.058333 z m 1.8415,0 h 1.058333 v 0.25399 h -1.058333 z m 1.862667,0 h 1.058333 v 0.25399 h -1.058333 z m 1.8415,0 h 1.058333 v 0.25399 h -1.058333 z m 1.862666,0 h 1.058333 v 0.25399 h -1.058333 z m 1.8415,0 h 1.058333 v 0.25399 h -1.058333 z m 1.862667,0 h 1.058333 v 0.25399 h -1.058333 z m 1.8415,0 h 1.058333 v 0.25399 h -1.058333 z m 1.862666,0 h 1.058334 v 0.25399 h -1.058334 z m 1.8415,0 h 1.058334 v 0.25399 h -1.058334 z m 1.862667,0 h 1.058333 v 0.25399 h -1.058333 z m 1.8415,0 h 1.058333 v 0.25399 h -1.058333 z m 1.862667,0 h 1.058333 v 0.25399 h -1.058333 z m 1.841499,0 h 1.058334 v 0.25399 H 78.07483 Z m 1.862667,0 h 1.058333 v 0.25399 h -1.058333 z m 1.8415,0 h 1.058333 v 0.25399 h -1.058333 z m 1.862667,0 h 1.058333 v 0.25399 h -1.058333 z m 1.8415,0 h 1.058333 v 0.25399 h -1.058333 z m 1.862666,0 h 1.058334 v 0.25399 H 87.34583 Z m 1.8415,0 h 1.058334 v 0.25399 H 89.18733 Z m 1.862667,0 h 1.058333 v 0.25399 h -1.058333 z m 1.8415,0 h 1.058333 v 0.25399 h -1.058333 z m 1.862666,0 h 1.058334 v 0.25399 h -1.058334 z m 1.8415,0 h 1.058334 v 0.25399 h -1.058334 z m 1.862667,0 h 1.058333 v 0.25399 H 98.45833 Z m 1.8415,0 h 1.05833 v 0.25399 h -1.05833 z m 1.86267,0 h 1.05833 v 0.25399 h -1.05833 z m 1.8415,0 h 1.05833 v 0.25399 H 104.004 Z m 1.86266,0 h 1.05834 v 0.25399 h -1.05834 z m 1.8415,0 h 1.05834 v 0.25399 h -1.05834 z m 1.86267,0 h 1.05833 v 0.25399 h -1.05833 z m 1.8415,0 h 1.05833 v 0.25399 h -1.05833 z m 1.86267,0 h 1.05833 v 0.25399 H 113.275 Z m 1.8415,0 h 1.05833 v 0.25399 h -1.05833 z m 1.86266,0 h 1.05834 v 0.25399 h -1.05834 z m 1.8415,0 h 1.05834 v 0.25399 h -1.05834 z m 1.86267,0 h 1.05833 v 0.25399 h -1.05833 z m 1.8415,0 h 1.05833 v 0.25399 h -1.05833 z m 1.86267,0 h 1.05833 v 0.25399 h -1.05833 z m 1.8415,0 h 1.05833 v 0.25399 H 126.229 Z m 1.86266,0 H 129.15 v 0.25399 h -1.05834 z m 1.8415,0 h 1.05834 v 0.25399 h -1.05834 z m 1.86267,0 h 1.05833 v 0.25399 h -1.05833 z m 1.8415,0 h 1.05833 v 0.25399 h -1.05833 z m 1.86267,0 h 1.05833 v 0.25399 H 135.5 Z m 1.8415,0 h 1.05833 v 0.25399 h -1.05833 z m 1.86266,0 h 1.05834 v 0.25399 h -1.05834 z m 1.8415,0 h 1.05834 v 0.25399 h -1.05834 z m 1.86267,0 h 1.05833 v 0.25399 h -1.05833 z m 1.8415,0 h 1.05833 v 0.25399 h -1.05833 z m 1.86267,0 h 1.05833 v 0.25399 h -1.05833 z m 1.8415,0 h 1.05833 v 0.25399 H 148.454 Z m 1.86266,0 h 1.05834 v 0.25399 h -1.05834 z m 1.8415,0 h 1.05834 v 0.25399 h -1.05834 z m 1.86267,0 h 1.05833 v 0.25399 h -1.05833 z m 1.8415,0 h 1.05833 v 0.25399 h -1.05833 z m 1.86267,0 h 1.05833 v 0.25399 H 157.725 Z m 1.8415,0 h 1.05833 v 0.25399 h -1.05833 z m 1.86266,0 h 1.05834 v 0.25399 h -1.05834 z m 1.8415,0 h 1.05834 v 0.25399 h -1.05834 z m 1.86267,0 h 1.05833 v 0.25399 h -1.05833 z m 1.8415,0 h 1.05833 v 0.25399 h -1.05833 z m 1.86267,0 h 0.78316 v 0.25399 h -0.78316 z" />
      <path
         inkscape:connector-curvature="0"
         id="path194"
         style="fill:#767171;fill-opacity:1;fill-rule:nonzero;stroke:#0000ff;stroke-width:0.35277778;stroke-opacity:1"
         d="m 29.920665,150.45977 h 1.058333 v 0.254 h -1.058333 z m 1.862666,0 h 1.058334 v 0.254 h -1.058334 z m 1.8415,0 h 1.058334 v 0.254 h -1.058334 z m 1.862667,0 h 1.058333 v 0.254 h -1.058333 z m 1.8415,0 h 1.058333 v 0.254 h -1.058333 z m 1.862667,0 h 1.058333 v 0.254 h -1.058333 z m 1.8415,0 h 1.058333 v 0.254 h -1.058333 z m 1.862666,0 h 1.058334 v 0.254 h -1.058334 z m 1.8415,0 h 1.058334 v 0.254 h -1.058334 z m 1.862667,0 h 1.058333 v 0.254 h -1.058333 z m 1.8415,0 h 1.058333 v 0.254 h -1.058333 z m 1.862666,0 h 1.058334 v 0.254 h -1.058334 z m 1.8415,0 h 1.058334 v 0.254 h -1.058334 z m 1.862667,0 h 1.058333 v 0.254 h -1.058333 z m 1.8415,0 h 1.058333 v 0.254 h -1.058333 z m 1.862667,0 h 1.058333 v 0.254 h -1.058333 z m 1.8415,0 h 1.058333 v 0.254 h -1.058333 z m 1.862666,0 h 1.058333 v 0.254 h -1.058333 z m 1.8415,0 h 1.058333 v 0.254 h -1.058333 z m 1.862667,0 h 1.058333 v 0.254 h -1.058333 z m 1.8415,0 h 1.058333 v 0.254 h -1.058333 z m 1.862666,0 h 1.058334 v 0.254 h -1.058334 z m 1.8415,0 h 1.058334 v 0.254 h -1.058334 z m 1.862667,0 h 1.058333 v 0.254 h -1.058333 z m 1.8415,0 h 1.058333 v 0.254 h -1.058333 z m 1.862667,0 h 1.058333 v 0.254 h -1.058333 z m 1.841499,0 h 1.058334 v 0.254 H 78.07483 Z m 1.862667,0 h 1.058333 v 0.254 h -1.058333 z m 1.8415,0 h 1.058333 v 0.254 h -1.058333 z m 1.862667,0 h 1.058333 v 0.254 h -1.058333 z m 1.8415,0 h 1.058333 v 0.254 h -1.058333 z m 1.862666,0 h 1.058334 v 0.254 H 87.34583 Z m 1.8415,0 h 1.058334 v 0.254 H 89.18733 Z m 1.862667,0 h 1.058333 v 0.254 h -1.058333 z m 1.8415,0 h 1.058333 v 0.254 h -1.058333 z m 1.862666,0 h 1.058334 v 0.254 h -1.058334 z m 1.8415,0 h 1.058334 v 0.254 h -1.058334 z m 1.862667,0 h 1.058333 v 0.254 H 98.45833 Z m 1.8415,0 h 1.05833 v 0.254 h -1.05833 z m 1.86267,0 h 1.05833 v 0.254 h -1.05833 z m 1.8415,0 h 1.05833 v 0.254 H 104.004 Z m 1.86266,0 h 1.05834 v 0.254 h -1.05834 z m 1.8415,0 h 1.05834 v 0.254 h -1.05834 z m 1.86267,0 h 1.05833 v 0.254 h -1.05833 z m 1.8415,0 h 1.05833 v 0.254 h -1.05833 z m 1.86267,0 h 1.05833 v 0.254 H 113.275 Z m 1.8415,0 h 1.05833 v 0.254 h -1.05833 z m 1.86266,0 h 1.05834 v 0.254 h -1.05834 z m 1.8415,0 h 1.05834 v 0.254 h -1.05834 z m 1.86267,0 h 1.05833 v 0.254 h -1.05833 z m 1.8415,0 h 1.05833 v 0.254 h -1.05833 z m 1.86267,0 h 1.05833 v 0.254 h -1.05833 z m 1.8415,0 h 1.05833 v 0.254 H 126.229 Z m 1.86266,0 H 129.15 v 0.254 h -1.05834 z m 1.8415,0 h 1.05834 v 0.254 h -1.05834 z m 1.86267,0 h 1.05833 v 0.254 h -1.05833 z m 1.8415,0 h 1.05833 v 0.254 h -1.05833 z m 1.86267,0 h 1.05833 v 0.254 H 135.5 Z m 1.8415,0 h 1.05833 v 0.254 h -1.05833 z m 1.86266,0 h 1.05834 v 0.254 h -1.05834 z m 1.8415,0 h 1.05834 v 0.254 h -1.05834 z m 1.86267,0 h 1.05833 v 0.254 h -1.05833 z m 1.8415,0 h 1.05833 v 0.254 h -1.05833 z m 1.86267,0 h 1.05833 v 0.254 h -1.05833 z m 1.8415,0 h 1.05833 v 0.254 H 148.454 Z m 1.86266,0 h 1.05834 v 0.254 h -1.05834 z m 1.8415,0 h 1.05834 v 0.254 h -1.05834 z m 1.86267,0 h 1.05833 v 0.254 h -1.05833 z m 1.8415,0 h 1.05833 v 0.254 h -1.05833 z m 1.86267,0 h 1.05833 v 0.254 H 157.725 Z m 1.8415,0 h 1.05833 v 0.254 h -1.05833 z m 1.86266,0 h 1.05834 v 0.254 h -1.05834 z m 1.8415,0 h 1.05834 v 0.254 h -1.05834 z m 1.86267,0 h 1.05833 v 0.254 h -1.05833 z m 1.8415,0 h 1.05833 v 0.254 h -1.05833 z m 1.86267,0 h 0.78316 v 0.254 h -0.78316 z" />
      <path
         inkscape:connector-curvature="0"
         id="path196"
         style="fill:none;fill-opacity:1;fill-rule:nonzero;stroke:#0000ff;stroke-width:0.35277778;stroke-opacity:1"
         d="m 29.920665,100.04077 h 1.058333 v 0.27516 h -1.058333 z m 1.862666,0 h 1.058334 v 0.27516 h -1.058334 z m 1.8415,0 h 1.058334 v 0.27516 h -1.058334 z m 1.862667,0 h 1.058333 v 0.27516 h -1.058333 z m 1.8415,0 h 1.058333 v 0.27516 h -1.058333 z m 1.862667,0 h 1.058333 v 0.27516 h -1.058333 z m 1.8415,0 h 1.058333 v 0.27516 h -1.058333 z m 1.862666,0 h 1.058334 v 0.27516 h -1.058334 z m 1.8415,0 h 1.058334 v 0.27516 h -1.058334 z m 1.862667,0 h 1.058333 v 0.27516 h -1.058333 z m 1.8415,0 h 1.058333 v 0.27516 h -1.058333 z m 1.862666,0 h 1.058334 v 0.27516 h -1.058334 z m 1.8415,0 h 1.058334 v 0.27516 h -1.058334 z m 1.862667,0 h 1.058333 v 0.27516 h -1.058333 z m 1.8415,0 h 1.058333 v 0.27516 h -1.058333 z m 1.862667,0 h 1.058333 v 0.27516 h -1.058333 z m 1.8415,0 h 1.058333 v 0.27516 h -1.058333 z m 1.862666,0 h 1.058333 v 0.27516 h -1.058333 z m 1.8415,0 h 1.058333 v 0.27516 h -1.058333 z m 1.862667,0 h 1.058333 v 0.27516 h -1.058333 z m 1.8415,0 h 1.058333 v 0.27516 h -1.058333 z m 1.862666,0 h 1.058334 v 0.27516 h -1.058334 z m 1.8415,0 h 1.058334 v 0.27516 h -1.058334 z m 1.862667,0 h 1.058333 v 0.27516 h -1.058333 z m 1.8415,0 h 1.058333 v 0.27516 h -1.058333 z m 1.862667,0 h 1.058333 v 0.27516 h -1.058333 z m 1.841499,0 h 1.058334 v 0.27516 H 78.07483 Z m 1.862667,0 h 1.058333 v 0.27516 h -1.058333 z m 1.8415,0 h 1.058333 v 0.27516 h -1.058333 z m 1.862667,0 h 1.058333 v 0.27516 h -1.058333 z m 1.8415,0 h 1.058333 v 0.27516 h -1.058333 z m 1.862666,0 h 1.058334 v 0.27516 H 87.34583 Z m 1.8415,0 h 1.058334 v 0.27516 H 89.18733 Z m 1.862667,0 h 1.058333 v 0.27516 h -1.058333 z m 1.8415,0 h 1.058333 v 0.27516 h -1.058333 z m 1.862666,0 h 1.058334 v 0.27516 h -1.058334 z m 1.8415,0 h 1.058334 v 0.27516 h -1.058334 z m 1.862667,0 h 1.058333 v 0.27516 H 98.45833 Z m 1.8415,0 h 1.05833 v 0.27516 h -1.05833 z m 1.86267,0 h 1.05833 v 0.27516 h -1.05833 z m 1.8415,0 h 1.05833 v 0.27516 H 104.004 Z m 1.86266,0 h 1.05834 v 0.27516 h -1.05834 z m 1.8415,0 h 1.05834 v 0.27516 h -1.05834 z m 1.86267,0 h 1.05833 v 0.27516 h -1.05833 z m 1.8415,0 h 1.05833 v 0.27516 h -1.05833 z m 1.86267,0 h 1.05833 v 0.27516 H 113.275 Z m 1.8415,0 h 1.05833 v 0.27516 h -1.05833 z m 1.86266,0 h 1.05834 v 0.27516 h -1.05834 z m 1.8415,0 h 1.05834 v 0.27516 h -1.05834 z m 1.86267,0 h 1.05833 v 0.27516 h -1.05833 z m 1.8415,0 h 1.05833 v 0.27516 h -1.05833 z m 1.86267,0 h 1.05833 v 0.27516 h -1.05833 z m 1.8415,0 h 1.05833 v 0.27516 H 126.229 Z m 1.86266,0 H 129.15 v 0.27516 h -1.05834 z m 1.8415,0 h 1.05834 v 0.27516 h -1.05834 z m 1.86267,0 h 1.05833 v 0.27516 h -1.05833 z m 1.8415,0 h 1.05833 v 0.27516 h -1.05833 z m 1.86267,0 h 1.05833 v 0.27516 H 135.5 Z m 1.8415,0 h 1.05833 v 0.27516 h -1.05833 z m 1.86266,0 h 1.05834 v 0.27516 h -1.05834 z m 1.8415,0 h 1.05834 v 0.27516 h -1.05834 z m 1.86267,0 h 1.05833 v 0.27516 h -1.05833 z m 1.8415,0 h 1.05833 v 0.27516 h -1.05833 z m 1.86267,0 h 1.05833 v 0.27516 h -1.05833 z m 1.8415,0 h 1.05833 v 0.27516 H 148.454 Z m 1.86266,0 h 1.05834 v 0.27516 h -1.05834 z m 1.8415,0 h 1.05834 v 0.27516 h -1.05834 z m 1.86267,0 h 1.05833 v 0.27516 h -1.05833 z m 1.8415,0 h 1.05833 v 0.27516 h -1.05833 z m 1.86267,0 h 1.05833 v 0.27516 H 157.725 Z m 1.8415,0 h 1.05833 v 0.27516 h -1.05833 z m 1.86266,0 h 1.05834 v 0.27516 h -1.05834 z m 1.8415,0 h 1.05834 v 0.27516 h -1.05834 z m 1.86267,0 h 1.05833 v 0.27516 h -1.05833 z m 1.8415,0 h 1.05833 v 0.27516 h -1.05833 z m 1.86267,0 h 0.78316 v 0.27516 h -0.78316 z" />
      <path
         inkscape:connector-curvature="0"
         id="path198"
         style="fill:#767171;fill-opacity:1;fill-rule:nonzero;stroke:#0000ff;stroke-width:0.35277778;stroke-opacity:1"
         d="m 29.920665,119.15427 h 1.058333 v 0.25399 h -1.058333 z m 1.862666,0 h 1.058334 v 0.25399 h -1.058334 z m 1.8415,0 h 1.058334 v 0.25399 h -1.058334 z m 1.862667,0 h 1.058333 v 0.25399 h -1.058333 z m 1.8415,0 h 1.058333 v 0.25399 h -1.058333 z m 1.862667,0 h 1.058333 v 0.25399 h -1.058333 z m 1.8415,0 h 1.058333 v 0.25399 h -1.058333 z m 1.862666,0 h 1.058334 v 0.25399 h -1.058334 z m 1.8415,0 h 1.058334 v 0.25399 h -1.058334 z m 1.862667,0 h 1.058333 v 0.25399 h -1.058333 z m 1.8415,0 h 1.058333 v 0.25399 h -1.058333 z m 1.862666,0 h 1.058334 v 0.25399 h -1.058334 z m 1.8415,0 h 1.058334 v 0.25399 h -1.058334 z m 1.862667,0 h 1.058333 v 0.25399 h -1.058333 z m 1.8415,0 h 1.058333 v 0.25399 h -1.058333 z m 1.862667,0 h 1.058333 v 0.25399 h -1.058333 z m 1.8415,0 h 1.058333 v 0.25399 h -1.058333 z m 1.862666,0 h 1.058333 v 0.25399 h -1.058333 z m 1.8415,0 h 1.058333 v 0.25399 h -1.058333 z m 1.862667,0 h 1.058333 v 0.25399 h -1.058333 z m 1.8415,0 h 1.058333 v 0.25399 h -1.058333 z m 1.862666,0 h 1.058334 v 0.25399 h -1.058334 z m 1.8415,0 h 1.058334 v 0.25399 h -1.058334 z m 1.862667,0 h 1.058333 v 0.25399 h -1.058333 z m 1.8415,0 h 1.058333 v 0.25399 h -1.058333 z m 1.862667,0 h 1.058333 v 0.25399 h -1.058333 z m 1.841499,0 h 1.058334 v 0.25399 H 78.07483 Z m 1.862667,0 h 1.058333 v 0.25399 h -1.058333 z m 1.8415,0 h 1.058333 v 0.25399 h -1.058333 z m 1.862667,0 h 1.058333 v 0.25399 h -1.058333 z m 1.8415,0 h 1.058333 v 0.25399 h -1.058333 z m 1.862666,0 h 1.058334 v 0.25399 H 87.34583 Z m 1.8415,0 h 1.058334 v 0.25399 H 89.18733 Z m 1.862667,0 h 1.058333 v 0.25399 h -1.058333 z m 1.8415,0 h 1.058333 v 0.25399 h -1.058333 z m 1.862666,0 h 1.058334 v 0.25399 h -1.058334 z m 1.8415,0 h 1.058334 v 0.25399 h -1.058334 z m 1.862667,0 h 1.058333 v 0.25399 H 98.45833 Z m 1.8415,0 h 1.05833 v 0.25399 h -1.05833 z m 1.86267,0 h 1.05833 v 0.25399 h -1.05833 z m 1.8415,0 h 1.05833 v 0.25399 H 104.004 Z m 1.86266,0 h 1.05834 v 0.25399 h -1.05834 z m 1.8415,0 h 1.05834 v 0.25399 h -1.05834 z m 1.86267,0 h 1.05833 v 0.25399 h -1.05833 z m 1.8415,0 h 1.05833 v 0.25399 h -1.05833 z m 1.86267,0 h 1.05833 v 0.25399 H 113.275 Z m 1.8415,0 h 1.05833 v 0.25399 h -1.05833 z m 1.86266,0 h 1.05834 v 0.25399 h -1.05834 z m 1.8415,0 h 1.05834 v 0.25399 h -1.05834 z m 1.86267,0 h 1.05833 v 0.25399 h -1.05833 z m 1.8415,0 h 1.05833 v 0.25399 h -1.05833 z m 1.86267,0 h 1.05833 v 0.25399 h -1.05833 z m 1.8415,0 h 1.05833 v 0.25399 H 126.229 Z m 1.86266,0 H 129.15 v 0.25399 h -1.05834 z m 1.8415,0 h 1.05834 v 0.25399 h -1.05834 z m 1.86267,0 h 1.05833 v 0.25399 h -1.05833 z m 1.8415,0 h 1.05833 v 0.25399 h -1.05833 z m 1.86267,0 h 1.05833 v 0.25399 H 135.5 Z m 1.8415,0 h 1.05833 v 0.25399 h -1.05833 z m 1.86266,0 h 1.05834 v 0.25399 h -1.05834 z m 1.8415,0 h 1.05834 v 0.25399 h -1.05834 z m 1.86267,0 h 1.05833 v 0.25399 h -1.05833 z m 1.8415,0 h 1.05833 v 0.25399 h -1.05833 z m 1.86267,0 h 1.05833 v 0.25399 h -1.05833 z m 1.8415,0 h 1.05833 v 0.25399 H 148.454 Z m 1.86266,0 h 1.05834 v 0.25399 h -1.05834 z m 1.8415,0 h 1.05834 v 0.25399 h -1.05834 z m 1.86267,0 h 1.05833 v 0.25399 h -1.05833 z m 1.8415,0 h 1.05833 v 0.25399 h -1.05833 z m 1.86267,0 h 1.05833 v 0.25399 H 157.725 Z m 1.8415,0 h 1.05833 v 0.25399 h -1.05833 z m 1.86266,0 h 1.05834 v 0.25399 h -1.05834 z m 1.8415,0 h 1.05834 v 0.25399 h -1.05834 z m 1.86267,0 h 1.05833 v 0.25399 h -1.05833 z m 1.8415,0 h 1.05833 v 0.25399 h -1.05833 z m 1.86267,0 h 0.78316 v 0.25399 h -0.78316 z" />
      <path
         inkscape:connector-curvature="0"
         id="path200"
         style="fill:none;fill-opacity:1;fill-rule:nonzero;stroke:#0000ff;stroke-width:0.35299999;stroke-miterlimit:4;stroke-dasharray:none;stroke-opacity:1"
         d="m 29.920665,86.6211 h 1.058333 v 0.275178 h -1.058333 z m 1.862666,0 h 1.058334 v 0.275178 h -1.058334 z m 1.8415,0 h 1.058334 v 0.275178 h -1.058334 z m 1.862667,0 h 1.058333 v 0.275178 h -1.058333 z m 1.8415,0 h 1.058333 v 0.275178 h -1.058333 z m 1.862667,0 h 1.058333 v 0.275178 h -1.058333 z m 1.8415,0 h 1.058333 v 0.275178 h -1.058333 z m 1.862666,0 h 1.058334 v 0.275178 h -1.058334 z m 1.8415,0 h 1.058334 v 0.275178 h -1.058334 z m 1.862667,0 h 1.058333 v 0.275178 h -1.058333 z m 1.8415,0 h 1.058333 v 0.275178 h -1.058333 z m 1.862666,0 h 1.058334 v 0.275178 h -1.058334 z m 1.8415,0 h 1.058334 v 0.275178 h -1.058334 z m 1.862667,0 h 1.058333 v 0.275178 h -1.058333 z m 1.8415,0 h 1.058333 v 0.275178 h -1.058333 z m 1.862667,0 h 1.058333 v 0.275178 h -1.058333 z m 1.8415,0 h 1.058333 v 0.275178 h -1.058333 z m 1.862666,0 h 1.058333 v 0.275178 h -1.058333 z m 1.8415,0 h 1.058333 v 0.275178 h -1.058333 z m 1.862667,0 h 1.058333 v 0.275178 h -1.058333 z m 1.8415,0 h 1.058333 v 0.275178 h -1.058333 z m 1.862666,0 h 1.058334 v 0.275178 h -1.058334 z m 1.8415,0 h 1.058334 v 0.275178 h -1.058334 z m 1.862667,0 h 1.058333 v 0.275178 h -1.058333 z m 1.8415,0 h 1.058333 v 0.275178 h -1.058333 z m 1.862667,0 h 1.058333 v 0.275178 h -1.058333 z m 1.841499,0 h 1.058334 v 0.275178 H 78.07483 Z m 1.862667,0 h 1.058333 v 0.275178 h -1.058333 z m 1.8415,0 h 1.058333 v 0.275178 h -1.058333 z m 1.862667,0 h 1.058333 v 0.275178 h -1.058333 z m 1.8415,0 h 1.058333 v 0.275178 h -1.058333 z m 1.862666,0 h 1.058334 v 0.275178 H 87.34583 Z m 1.8415,0 h 1.058334 v 0.275178 H 89.18733 Z m 1.862667,0 h 1.058333 v 0.275178 h -1.058333 z m 1.8415,0 h 1.058333 v 0.275178 h -1.058333 z m 1.862666,0 h 1.058334 v 0.275178 h -1.058334 z m 1.8415,0 h 1.058334 v 0.275178 h -1.058334 z m 1.862667,0 h 1.058333 v 0.275178 H 98.45833 Z m 1.8415,0 h 1.05833 v 0.275178 h -1.05833 z m 1.86267,0 h 1.05833 v 0.275178 h -1.05833 z m 1.8415,0 h 1.05833 v 0.275178 H 104.004 Z m 1.86266,0 h 1.05834 v 0.275178 h -1.05834 z m 1.8415,0 h 1.05834 v 0.275178 h -1.05834 z m 1.86267,0 h 1.05833 v 0.275178 h -1.05833 z m 1.8415,0 h 1.05833 v 0.275178 h -1.05833 z m 1.86267,0 h 1.05833 v 0.275178 H 113.275 Z m 1.8415,0 h 1.05833 v 0.275178 h -1.05833 z m 1.86266,0 h 1.05834 v 0.275178 h -1.05834 z m 1.8415,0 h 1.05834 v 0.275178 h -1.05834 z m 1.86267,0 h 1.05833 v 0.275178 h -1.05833 z m 1.8415,0 h 1.05833 v 0.275178 h -1.05833 z m 1.86267,0 h 1.05833 v 0.275178 h -1.05833 z m 1.8415,0 h 1.05833 v 0.275178 H 126.229 Z m 1.86266,0 H 129.15 v 0.275178 h -1.05834 z m 1.8415,0 h 1.05834 v 0.275178 h -1.05834 z m 1.86267,0 h 1.05833 v 0.275178 h -1.05833 z m 1.8415,0 h 1.05833 v 0.275178 h -1.05833 z m 1.86267,0 h 1.05833 v 0.275178 H 135.5 Z m 1.8415,0 h 1.05833 v 0.275178 h -1.05833 z m 1.86266,0 h 1.05834 v 0.275178 h -1.05834 z m 1.8415,0 h 1.05834 v 0.275178 h -1.05834 z m 1.86267,0 h 1.05833 v 0.275178 h -1.05833 z m 1.8415,0 h 1.05833 v 0.275178 h -1.05833 z m 1.86267,0 h 1.05833 v 0.275178 h -1.05833 z m 1.8415,0 h 1.05833 v 0.275178 H 148.454 Z m 1.86266,0 h 1.05834 v 0.275178 h -1.05834 z m 1.8415,0 h 1.05834 v 0.275178 h -1.05834 z m 1.86267,0 h 1.05833 v 0.275178 h -1.05833 z m 1.8415,0 h 1.05833 v 0.275178 h -1.05833 z m 1.86267,0 h 1.05833 v 0.275178 H 157.725 Z m 1.8415,0 h 1.05833 v 0.275178 h -1.05833 z m 1.86266,0 h 1.05834 v 0.275178 h -1.05834 z m 1.8415,0 h 1.05834 v 0.275178 h -1.05834 z m 1.86267,0 h 1.05833 v 0.275178 h -1.05833 z m 1.8415,0 h 1.05833 v 0.275178 h -1.05833 z m 1.86267,0 h 0.78316 v 0.275178 h -0.78316 z" />
      <text
         y="94.219933"
         x="81.736664"
         id="text204"
         style="font-variant:normal;font-weight:normal;font-stretch:normal;font-size:3.53483343px;font-family:Arial;-inkscape-font-specification:ArialMT;writing-mode:lr-tb;fill:#000000;fill-opacity:1;fill-rule:nonzero;stroke:#00ff00;stroke-width:0.35277778;stroke-opacity:1">
        <tspan
           style="stroke:#00ff00;stroke-width:0.35277778;stroke-opacity:1"
           id="tspan202"
           sodipodi:role="line"
           y="94.219933"
           x="81.736664 84.089447 84.869232 86.829651 88.79007 89.767807 91.530273">Pleats</tspan>
      </text>
      <g
         transform="matrix(0.35277777,0,0,-0.35277777,92.573997,94.5586)"
         id="g206">
        <path
           inkscape:connector-curvature="0"
           id="path208"
           style="fill:#4472c4;fill-opacity:1;fill-rule:nonzero;stroke:none"
           d="M 0,0 24.24,19.38 23.94,19.74 -0.3,0.42 Z m 25.2,16.62 2.82,6.06 -6.54,-1.38" />
      </g>
      <g
         transform="matrix(0.35277777,0,0,-0.35277777,92.150663,94.600933)"
         id="g210">
        <path
           inkscape:connector-curvature="0"
           id="path212"
           style="fill:#4472c4;fill-opacity:1;fill-rule:nonzero;stroke:none"
           d="m 0,0 31.14,-14.1 -0.18,-0.42 -31.2,14.04 z m 31.38,-11.16 4.2,-5.22 -6.66,-0.24" />
      </g>
      <path
         inkscape:connector-curvature="0"
         id="path214"
         style="fill:#767171;fill-opacity:1;fill-rule:nonzero;stroke:#0000ff;stroke-width:0.35277778;stroke-opacity:1"
         d="m 29.920665,163.85827 h 1.058333 v 0.27516 h -1.058333 z m 1.862666,0 h 1.058334 v 0.27516 h -1.058334 z m 1.8415,0 h 1.058334 v 0.27516 h -1.058334 z m 1.862667,0 h 1.058333 v 0.27516 h -1.058333 z m 1.8415,0 h 1.058333 v 0.27516 h -1.058333 z m 1.862667,0 h 1.058333 v 0.27516 h -1.058333 z m 1.8415,0 h 1.058333 v 0.27516 h -1.058333 z m 1.862666,0 h 1.058334 v 0.27516 h -1.058334 z m 1.8415,0 h 1.058334 v 0.27516 h -1.058334 z m 1.862667,0 h 1.058333 v 0.27516 h -1.058333 z m 1.8415,0 h 1.058333 v 0.27516 h -1.058333 z m 1.862666,0 h 1.058334 v 0.27516 h -1.058334 z m 1.8415,0 h 1.058334 v 0.27516 h -1.058334 z m 1.862667,0 h 1.058333 v 0.27516 h -1.058333 z m 1.8415,0 h 1.058333 v 0.27516 h -1.058333 z m 1.862667,0 h 1.058333 v 0.27516 h -1.058333 z m 1.8415,0 h 1.058333 v 0.27516 h -1.058333 z m 1.862666,0 h 1.058333 v 0.27516 h -1.058333 z m 1.8415,0 h 1.058333 v 0.27516 h -1.058333 z m 1.862667,0 h 1.058333 v 0.27516 h -1.058333 z m 1.8415,0 h 1.058333 v 0.27516 h -1.058333 z m 1.862666,0 h 1.058334 v 0.27516 h -1.058334 z m 1.8415,0 h 1.058334 v 0.27516 h -1.058334 z m 1.862667,0 h 1.058333 v 0.27516 h -1.058333 z m 1.8415,0 h 1.058333 v 0.27516 h -1.058333 z m 1.862667,0 h 1.058333 v 0.27516 h -1.058333 z m 1.841499,0 h 1.058334 v 0.27516 H 78.07483 Z m 1.862667,0 h 1.058333 v 0.27516 h -1.058333 z m 1.8415,0 h 1.058333 v 0.27516 h -1.058333 z m 1.862667,0 h 1.058333 v 0.27516 h -1.058333 z m 1.8415,0 h 1.058333 v 0.27516 h -1.058333 z m 1.862666,0 h 1.058334 v 0.27516 H 87.34583 Z m 1.8415,0 h 1.058334 v 0.27516 H 89.18733 Z m 1.862667,0 h 1.058333 v 0.27516 h -1.058333 z m 1.8415,0 h 1.058333 v 0.27516 h -1.058333 z m 1.862666,0 h 1.058334 v 0.27516 h -1.058334 z m 1.8415,0 h 1.058334 v 0.27516 h -1.058334 z m 1.862667,0 h 1.058333 v 0.27516 H 98.45833 Z m 1.8415,0 h 1.05833 v 0.27516 h -1.05833 z m 1.86267,0 h 1.05833 v 0.27516 h -1.05833 z m 1.8415,0 h 1.05833 v 0.27516 H 104.004 Z m 1.86266,0 h 1.05834 v 0.27516 h -1.05834 z m 1.8415,0 h 1.05834 v 0.27516 h -1.05834 z m 1.86267,0 h 1.05833 v 0.27516 h -1.05833 z m 1.8415,0 h 1.05833 v 0.27516 h -1.05833 z m 1.86267,0 h 1.05833 v 0.27516 H 113.275 Z m 1.8415,0 h 1.05833 v 0.27516 h -1.05833 z m 1.86266,0 h 1.05834 v 0.27516 h -1.05834 z m 1.8415,0 h 1.05834 v 0.27516 h -1.05834 z m 1.86267,0 h 1.05833 v 0.27516 h -1.05833 z m 1.8415,0 h 1.05833 v 0.27516 h -1.05833 z m 1.86267,0 h 1.05833 v 0.27516 h -1.05833 z m 1.8415,0 h 1.05833 v 0.27516 H 126.229 Z m 1.86266,0 H 129.15 v 0.27516 h -1.05834 z m 1.8415,0 h 1.05834 v 0.27516 h -1.05834 z m 1.86267,0 h 1.05833 v 0.27516 h -1.05833 z m 1.8415,0 h 1.05833 v 0.27516 h -1.05833 z m 1.86267,0 h 1.05833 v 0.27516 H 135.5 Z m 1.8415,0 h 1.05833 v 0.27516 h -1.05833 z m 1.86266,0 h 1.05834 v 0.27516 h -1.05834 z m 1.8415,0 h 1.05834 v 0.27516 h -1.05834 z m 1.86267,0 h 1.05833 v 0.27516 h -1.05833 z m 1.8415,0 h 1.05833 v 0.27516 h -1.05833 z m 1.86267,0 h 1.05833 v 0.27516 h -1.05833 z m 1.8415,0 h 1.05833 v 0.27516 H 148.454 Z m 1.86266,0 h 1.05834 v 0.27516 h -1.05834 z m 1.8415,0 h 1.05834 v 0.27516 h -1.05834 z m 1.86267,0 h 1.05833 v 0.27516 h -1.05833 z m 1.8415,0 h 1.05833 v 0.27516 h -1.05833 z m 1.86267,0 h 1.05833 v 0.27516 H 157.725 Z m 1.8415,0 h 1.05833 v 0.27516 h -1.05833 z m 1.86266,0 h 1.05834 v 0.27516 h -1.05834 z m 1.8415,0 h 1.05834 v 0.27516 h -1.05834 z m 1.86267,0 h 1.05833 v 0.27516 h -1.05833 z m 1.8415,0 h 1.05833 v 0.27516 h -1.05833 z m 1.86267,0 h 0.78316 v 0.27516 h -0.78316 z" />
    </g>
  </g>
</svg>
