0
SECTION
2
HEADER
9
$INSUNITS
70
1
9
$ACADVER
1
AC1014
9
$HANDSEED
5
FFFF
0
ENDSEC
0
SECTION
2
TABLES
0
TABLE
2
VPORT
5
8
100
AcDbSymbolTable
0
ENDTAB
0
TABLE
2
LTYPE
5
5
100
AcDbSymbolTable
0
LTYPE
5
14
100
AcDbSymbolTableRecord
100
AcDbLinetypeTableRecord
2
BYBLOCK
70
0
0
LTYPE
5
15
100
AcDbSymbolTableRecord
100
AcDbLinetypeTableRecord
2
BYLAYER
70
0
0
ENDTAB
0
TABLE
2
LAYER
5
2
100
AcDbSymbolTable
70
2
0
LAYER
5
50
100
AcDbSymbolTableRecord
100
AcDbLayerTableRecord
2
0
70
0
6
CONTINUOUS
0
ENDTAB
0
TABLE
2
STYLE
5
3
100
AcDbSymbolTable
70
1
0
STYLE
5
11
100
AcDbSymbolTableRecord
100
AcDbTextStyleTableRecord
2
STANDARD
70
0
0
ENDTAB
0
TABLE
2
VIEW
5
6
100
AcDbSymbolTable
70
0
0
ENDTAB
0
TABLE
2
UCS
5
7
100
AcDbSymbolTable
70
0
0
ENDTAB
0
TABLE
2
APPID
5
9
100
AcDbSymbolTable
70
2
0
APPID
5
12
100
AcDbSymbolTableRecord
100
AcDbRegAppTableRecord
2
ACAD
70
0
0
ENDTAB
0
TABLE
2
DIMSTYLE
5
A
100
AcDbSymbolTable
70
1
0
ENDTAB
0
TABLE
2
BLOCK_RECORD
5
1
100
AcDbSymbolTable
70
1
0
BLOCK_RECORD
5
1F
100
AcDbSymbolTableRecord
100
AcDbBlockTableRecord
2
*MODEL_SPACE
0
BLOCK_RECORD
5
1B
100
AcDbSymbolTableRecord
100
AcDbBlockTableRecord
2
*PAPER_SPACE
0
ENDTAB
0
ENDSEC
0
SECTION
2
BLOCKS
0
BLOCK
5
20
100
AcDbEntity
100
AcDbBlockBegin
2
*MODEL_SPACE
0
ENDBLK
5
21
100
AcDbEntity
100
AcDbBlockEnd
0
BLOCK
5
1C
100
AcDbEntity
100
AcDbBlockBegin
2
*PAPER_SPACE
0
ENDBLK
5
1D
100
AcDbEntity
100
AcDbBlockEnd
0
ENDSEC
0
SECTION
2
ENTITIES
0
CIRCLE
5
100
100
AcDbEntity
8
0
100
AcDbCircle
10
-0.49999999999999911
20
-3.2677165354330708
30
0
40
0.1249999999999999
210
0
220
0
230
1
0
CIRCLE
5
101
100
AcDbEntity
8
0
100
AcDbCircle
10
0.49999999999999911
20
-3.2677165354330708
30
0
40
0.1249999999999999
210
0
220
0
230
1
0
CIRCLE
5
102
100
AcDbEntity
8
0
100
AcDbCircle
10
3.7463278603068657
20
-3.1132645237889802
30
0
40
0.12500000000000036
210
0
220
0
230
1
0
CIRCLE
5
103
100
AcDbEntity
8
0
100
AcDbCircle
10
4.7053602259457428
20
-2.829967997469014
30
0
40
0.12499999999999957
210
0
220
0
230
1
0
SPLINE
5
104
100
AcDbEntity
8
0
100
AcDbSpline
70
4
71
5
72
30
73
24
74
0
42
0.000000001
43
0.0000000001
44
0.0000000001
40
0
40
0
40
0
40
0
40
0
40
0
40
0.052631578947368418
40
0.10526315789473684
40
0.15789473684210525
40
0.21052631578947367
40
0.26315789473684209
40
0.31578947368421051
40
0.36842105263157893
40
0.42105263157894735
40
0.47368421052631576
40
0.52631578947368418
40
0.57894736842105265
40
0.63157894736842102
40
0.68421052631578938
40
0.73684210526315785
40
0.78947368421052633
40
0.84210526315789469
40
0.89473684210526305
40
0.94736842105263153
40
1
40
1
40
1
40
1
40
1
40
1
41
1
41
1
41
1
41
1
41
1
41
1
41
1
41
1
41
1
41
1
41
1
41
1
41
1
41
1
41
1
41
1
41
1
41
1
41
1
41
1
41
1
41
1
41
1
41
1
10
0
20
-3.7037848711525059
30
0
10
1.177597853881863
20
-3.7037848711525059
30
0
10
2.2241457529303403
20
-3.7352238942246214
30
0
10
2.9682580485896799
20
-3.6739440581114904
30
0
10
3.5416622293624691
20
-3.5732700416399314
30
0
10
4.3644758883839234
20
-3.3725495501148508
30
0
10
5.0123782960774079
20
-3.1968367626593226
30
0
10
5.1393150994545902
20
-2.8685519263390238
30
0
10
5.0298868206811562
20
-2.5358899588677875
30
0
10
4.6403221482477361
20
-2.0719140568684313
30
0
10
4.0187695248146369
20
-1.695480777887822
30
0
10
3.3884626390796644
20
-1.310293236605339
30
0
10
2.6487274745712557
20
-1.0958138102094097
30
0
10
2.1147174741569028
20
-1.0739281544547232
30
0
10
1.5763303425916131
20
-1.0389111052472249
30
0
10
0.99417189951694962
20
-1.152716515171595
30
0
10
0.69652698125321189
20
-1.3059161054544011
30
0
10
0.57396730902696724
20
-1.3934587284731477
30
0
10
0.47767042370634627
20
-1.524772663001267
30
0
10
0.3901278006876
20
-1.6735951221331355
30
0
10
0.21941968580104454
20
-2.0762911880193688
30
0
10
0.15813984968792191
20
-2.1682109421890523
30
0
10
0.096860013574799245
20
-2.2294907783021749
30
0
10
0
20
-2.2294907783021749
30
0
0
SPLINE
5
105
100
AcDbEntity
8
0
100
AcDbSpline
70
4
71
5
72
30
73
24
74
0
42
0.000000001
43
0.0000000001
44
0.0000000001
40
0
40
0
40
0
40
0
40
0
40
0
40
0.052631578947368418
40
0.10526315789473684
40
0.15789473684210525
40
0.21052631578947367
40
0.26315789473684209
40
0.31578947368421051
40
0.36842105263157893
40
0.42105263157894735
40
0.47368421052631576
40
0.52631578947368418
40
0.57894736842105265
40
0.63157894736842102
40
0.68421052631578938
40
0.73684210526315785
40
0.78947368421052633
40
0.84210526315789469
40
0.89473684210526305
40
0.94736842105263153
40
1
40
1
40
1
40
1
40
1
40
1
41
1
41
1
41
1
41
1
41
1
41
1
41
1
41
1
41
1
41
1
41
1
41
1
41
1
41
1
41
1
41
1
41
1
41
1
41
1
41
1
41
1
41
1
41
1
41
1
10
0
20
-3.7037848711525059
30
0
10
-1.177597853881863
20
-3.7037848711525059
30
0
10
-2.2241457529303403
20
-3.7352238942246214
30
0
10
-2.9682580485896799
20
-3.6739440581114904
30
0
10
-3.5416622293624691
20
-3.5732700416399314
30
0
10
-4.3644758883839234
20
-3.3725495501148508
30
0
10
-5.0123782960774079
20
-3.1968367626593226
30
0
10
-5.1393150994545902
20
-2.8685519263390238
30
0
10
-5.0298868206811562
20
-2.5358899588677875
30
0
10
-4.6403221482477361
20
-2.0719140568684313
30
0
10
-4.0187695248146369
20
-1.695480777887822
30
0
10
-3.3884626390796644
20
-1.310293236605339
30
0
10
-2.6487274745712557
20
-1.0958138102094097
30
0
10
-2.1147174741569028
20
-1.0739281544547232
30
0
10
-1.5763303425916131
20
-1.0389111052472249
30
0
10
-0.99417189951694962
20
-1.152716515171595
30
0
10
-0.69652698125321189
20
-1.3059161054544011
30
0
10
-0.57396730902696724
20
-1.3934587284731477
30
0
10
-0.47767042370634627
20
-1.524772663001267
30
0
10
-0.3901278006876
20
-1.6735951221331355
30
0
10
-0.21941968580104454
20
-2.0762911880193688
30
0
10
-0.15813984968792191
20
-2.1682109421890523
30
0
10
-0.096860013574799245
20
-2.2294907783021749
30
0
10
0
20
-2.2294907783021749
30
0
0
LWPOLYLINE
5
106
100
AcDbEntity
8
0
100
AcDbPolyline
90
4
70
1
43
0.0
10
5.5378409792935575
20
4.5911396068086363
10
-5.4621590207064417
20
4.5911396068086363
10
-5.4621590207064417
20
-3.9088603931913619
10
5.5378409792935575
20
-3.9088603931913619
0
CIRCLE
5
107
100
AcDbEntity
8
0
100
AcDbCircle
10
-3.7463278603068657
20
-3.1132645237889802
30
0
40
0.12500000000000036
210
0
220
0
230
1
0
CIRCLE
5
108
100
AcDbEntity
8
0
100
AcDbCircle
10
-4.7053602259457428
20
-2.829967997469014
30
0
40
0.12499999999999957
210
0
220
0
230
1
0
CIRCLE
5
109
100
AcDbEntity
8
0
100
AcDbCircle
10
-3.7463278603068657
20
-3.1132645237889802
30
0
40
0.12500000000000036
210
0
220
0
230
1
0
SPLINE
5
110
100
AcDbEntity
8
0
100
AcDbSpline
70
4
71
5
72
30
73
24
74
0
42
0.000000001
43
0.0000000001
44
0.0000000001
40
0
40
0
40
0
40
0
40
0
40
0
40
0.052631578947368418
40
0.10526315789473684
40
0.15789473684210525
40
0.21052631578947367
40
0.26315789473684209
40
0.31578947368421051
40
0.36842105263157893
40
0.42105263157894735
40
0.47368421052631576
40
0.52631578947368418
40
0.57894736842105265
40
0.63157894736842102
40
0.68421052631578938
40
0.73684210526315785
40
0.78947368421052633
40
0.84210526315789469
40
0.89473684210526305
40
0.94736842105263153
40
1
40
1
40
1
40
1
40
1
40
1
41
1
41
1
41
1
41
1
41
1
41
1
41
1
41
1
41
1
41
1
41
1
41
1
41
1
41
1
41
1
41
1
41
1
41
1
41
1
41
1
41
1
41
1
41
1
41
1
10
0
20
-3.7037848711525059
30
0
10
1.177597853881863
20
-3.7037848711525059
30
0
10
2.2241457529303403
20
-3.7352238942246214
30
0
10
2.9682580485896799
20
-3.6739440581114904
30
0
10
3.5416622293624691
20
-3.5732700416399314
30
0
10
4.3644758883839234
20
-3.3725495501148508
30
0
10
5.0123782960774079
20
-3.1968367626593226
30
0
10
5.1393150994545902
20
-2.8685519263390238
30
0
10
5.0298868206811562
20
-2.5358899588677875
30
0
10
4.6403221482477361
20
-2.0719140568684313
30
0
10
4.0187695248146369
20
-1.695480777887822
30
0
10
3.3884626390796644
20
-1.310293236605339
30
0
10
2.6487274745712557
20
-1.0958138102094097
30
0
10
2.1147174741569028
20
-1.0739281544547232
30
0
10
1.5763303425916131
20
-1.0389111052472249
30
0
10
0.99417189951694962
20
-1.152716515171595
30
0
10
0.69652698125321189
20
-1.3059161054544011
30
0
10
0.57396730902696724
20
-1.3934587284731477
30
0
10
0.47767042370634627
20
-1.524772663001267
30
0
10
0.3901278006876
20
-1.6735951221331355
30
0
10
0.21941968580104454
20
-2.0762911880193688
30
0
10
0.15813984968792191
20
-2.1682109421890523
30
0
10
0.096860013574799245
20
-2.2294907783021749
30
0
10
0
20
-2.2294907783021749
30
0
0
CIRCLE
5
111
100
AcDbEntity
8
0
100
AcDbCircle
10
4.7053602259457428
20
-2.829967997469014
30
0
40
0.12499999999999957
210
0
220
0
230
1
0
SPLINE
5
112
100
AcDbEntity
8
0
100
AcDbSpline
70
4
71
5
72
30
73
24
74
0
42
0.000000001
43
0.0000000001
44
0.0000000001
40
0
40
0
40
0
40
0
40
0
40
0
40
0.052631578947368418
40
0.10526315789473684
40
0.15789473684210525
40
0.21052631578947367
40
0.26315789473684209
40
0.31578947368421051
40
0.36842105263157893
40
0.42105263157894735
40
0.47368421052631576
40
0.52631578947368418
40
0.57894736842105265
40
0.63157894736842102
40
0.68421052631578938
40
0.73684210526315785
40
0.78947368421052633
40
0.84210526315789469
40
0.89473684210526305
40
0.94736842105263153
40
1
40
1
40
1
40
1
40
1
40
1
41
1
41
1
41
1
41
1
41
1
41
1
41
1
41
1
41
1
41
1
41
1
41
1
41
1
41
1
41
1
41
1
41
1
41
1
41
1
41
1
41
1
41
1
41
1
41
1
10
0
20
-3.7037848711525059
30
0
10
-1.177597853881863
20
-3.7037848711525059
30
0
10
-2.2241457529303403
20
-3.7352238942246214
30
0
10
-2.9682580485896799
20
-3.6739440581114904
30
0
10
-3.5416622293624691
20
-3.5732700416399314
30
0
10
-4.3644758883839234
20
-3.3725495501148508
30
0
10
-5.0123782960774079
20
-3.1968367626593226
30
0
10
-5.1393150994545902
20
-2.8685519263390238
30
0
10
-5.0298868206811562
20
-2.5358899588677875
30
0
10
-4.6403221482477361
20
-2.0719140568684313
30
0
10
-4.0187695248146369
20
-1.695480777887822
30
0
10
-3.3884626390796644
20
-1.310293236605339
30
0
10
-2.6487274745712557
20
-1.0958138102094097
30
0
10
-2.1147174741569028
20
-1.0739281544547232
30
0
10
-1.5763303425916131
20
-1.0389111052472249
30
0
10
-0.99417189951694962
20
-1.152716515171595
30
0
10
-0.69652698125321189
20
-1.3059161054544011
30
0
10
-0.57396730902696724
20
-1.3934587284731477
30
0
10
-0.47767042370634627
20
-1.524772663001267
30
0
10
-0.3901278006876
20
-1.6735951221331355
30
0
10
-0.21941968580104454
20
-2.0762911880193688
30
0
10
-0.15813984968792191
20
-2.1682109421890523
30
0
10
-0.096860013574799245
20
-2.2294907783021749
30
0
10
0
20
-2.2294907783021749
30
0
0
CIRCLE
5
113
100
AcDbEntity
8
0
100
AcDbCircle
10
3.7463278603068657
20
-3.1132645237889802
30
0
40
0.12500000000000036
210
0
220
0
230
1
0
CIRCLE
5
114
100
AcDbEntity
8
0
100
AcDbCircle
10
-0.49999999999999911
20
-3.2677165354330708
30
0
40
0.1249999999999999
210
0
220
0
230
1
0
CIRCLE
5
115
100
AcDbEntity
8
0
100
AcDbCircle
10
0.49999999999999911
20
-3.2677165354330708
30
0
40
0.1249999999999999
210
0
220
0
230
1
0
CIRCLE
5
116
100
AcDbEntity
8
0
100
AcDbCircle
10
-4.7053602259457428
20
-2.829967997469014
30
0
40
0.12499999999999957
210
0
220
0
230
1
0
CIRCLE
5
117
100
AcDbEntity
8
0
100
AcDbCircle
10
-0.49999999999999911
20
-0.48719791001023233
30
0
40
0.1249999999999999
210
0
220
0
230
1
0
CIRCLE
5
118
100
AcDbEntity
8
0
100
AcDbCircle
10
-3.7463278603068657
20
-0.33274589836614143
30
0
40
0.12500000000000036
210
0
220
0
230
1
0
CIRCLE
5
119
100
AcDbEntity
8
0
100
AcDbCircle
10
-0.49999999999999911
20
-0.48719791001023233
30
0
40
0.1249999999999999
210
0
220
0
230
1
0
CIRCLE
5
120
100
AcDbEntity
8
0
100
AcDbCircle
10
4.7053602259457428
20
-0.04944937204617559
30
0
40
0.12499999999999957
210
0
220
0
230
1
0
CIRCLE
5
121
100
AcDbEntity
8
0
100
AcDbCircle
10
0.49999999999999911
20
-0.48719791001023233
30
0
40
0.1249999999999999
210
0
220
0
230
1
0
CIRCLE
5
122
100
AcDbEntity
8
0
100
AcDbCircle
10
-4.7053602259457428
20
-0.04944937204617559
30
0
40
0.12499999999999957
210
0
220
0
230
1
0
CIRCLE
5
123
100
AcDbEntity
8
0
100
AcDbCircle
10
-3.7463278603068657
20
-0.33274589836614143
30
0
40
0.12500000000000036
210
0
220
0
230
1
0
CIRCLE
5
124
100
AcDbEntity
8
0
100
AcDbCircle
10
0.49999999999999911
20
-0.48719791001023233
30
0
40
0.1249999999999999
210
0
220
0
230
1
0
CIRCLE
5
125
100
AcDbEntity
8
0
100
AcDbCircle
10
3.7463278603068657
20
-0.33274589836614143
30
0
40
0.12500000000000036
210
0
220
0
230
1
0
SPLINE
5
126
100
AcDbEntity
8
0
100
AcDbSpline
70
4
71
5
72
30
73
24
74
0
42
0.000000001
43
0.0000000001
44
0.0000000001
40
0
40
0
40
0
40
0
40
0
40
0
40
0.052631578947368418
40
0.10526315789473684
40
0.15789473684210525
40
0.21052631578947367
40
0.26315789473684209
40
0.31578947368421051
40
0.36842105263157893
40
0.42105263157894735
40
0.47368421052631576
40
0.52631578947368418
40
0.57894736842105265
40
0.63157894736842102
40
0.68421052631578938
40
0.73684210526315785
40
0.78947368421052633
40
0.84210526315789469
40
0.89473684210526305
40
0.94736842105263153
40
1
40
1
40
1
40
1
40
1
40
1
41
1
41
1
41
1
41
1
41
1
41
1
41
1
41
1
41
1
41
1
41
1
41
1
41
1
41
1
41
1
41
1
41
1
41
1
41
1
41
1
41
1
41
1
41
1
41
1
10
0
20
-0.92326624572966731
30
0
10
1.177597853881863
20
-0.92326624572966731
30
0
10
2.2241457529303403
20
-0.95470526880178286
30
0
10
2.9682580485896799
20
-0.89342543268865182
30
0
10
3.5416622293624691
20
-0.79275141621709311
30
0
10
4.3644758883839234
20
-0.59203092469201202
30
0
10
5.0123782960774079
20
-0.41631813723648387
30
0
10
5.1393150994545902
20
-0.088033300916185095
30
0
10
5.0298868206811562
20
0.24462866655505106
30
0
10
4.6403221482477361
20
0.70860456855440723
30
0
10
4.0187695248146369
20
1.0850378475350164
30
0
10
3.3884626390796644
20
1.4702253888174994
30
0
10
2.6487274745712557
20
1.6847048152134287
30
0
10
2.1147174741569028
20
1.7065904709681152
30
0
10
1.5763303425916131
20
1.7416075201756136
30
0
10
0.99417189951694962
20
1.6278021102512434
30
0
10
0.69652698125321189
20
1.4746025199684376
30
0
10
0.57396730902696724
20
1.387059896949691
30
0
10
0.47767042370634627
20
1.2557459624215717
30
0
10
0.3901278006876
20
1.1069235032897031
30
0
10
0.21941968580104454
20
0.70422743740346949
30
0
10
0.15813984968792191
20
0.61230768323378626
30
0
10
0.096860013574799245
20
0.55102784712066355
30
0
10
0
20
0.55102784712066355
30
0
0
SPLINE
5
127
100
AcDbEntity
8
0
100
AcDbSpline
70
4
71
5
72
30
73
24
74
0
42
0.000000001
43
0.0000000001
44
0.0000000001
40
0
40
0
40
0
40
0
40
0
40
0
40
0.052631578947368418
40
0.10526315789473684
40
0.15789473684210525
40
0.21052631578947367
40
0.26315789473684209
40
0.31578947368421051
40
0.36842105263157893
40
0.42105263157894735
40
0.47368421052631576
40
0.52631578947368418
40
0.57894736842105265
40
0.63157894736842102
40
0.68421052631578938
40
0.73684210526315785
40
0.78947368421052633
40
0.84210526315789469
40
0.89473684210526305
40
0.94736842105263153
40
1
40
1
40
1
40
1
40
1
40
1
41
1
41
1
41
1
41
1
41
1
41
1
41
1
41
1
41
1
41
1
41
1
41
1
41
1
41
1
41
1
41
1
41
1
41
1
41
1
41
1
41
1
41
1
41
1
41
1
10
0
20
-0.92326624572966731
30
0
10
1.177597853881863
20
-0.92326624572966731
30
0
10
2.2241457529303403
20
-0.95470526880178286
30
0
10
2.9682580485896799
20
-0.89342543268865182
30
0
10
3.5416622293624691
20
-0.79275141621709311
30
0
10
4.3644758883839234
20
-0.59203092469201202
30
0
10
5.0123782960774079
20
-0.41631813723648387
30
0
10
5.1393150994545902
20
-0.088033300916185095
30
0
10
5.0298868206811562
20
0.24462866655505106
30
0
10
4.6403221482477361
20
0.70860456855440723
30
0
10
4.0187695248146369
20
1.0850378475350164
30
0
10
3.3884626390796644
20
1.4702253888174994
30
0
10
2.6487274745712557
20
1.6847048152134287
30
0
10
2.1147174741569028
20
1.7065904709681152
30
0
10
1.5763303425916131
20
1.7416075201756136
30
0
10
0.99417189951694962
20
1.6278021102512434
30
0
10
0.69652698125321189
20
1.4746025199684376
30
0
10
0.57396730902696724
20
1.387059896949691
30
0
10
0.47767042370634627
20
1.2557459624215717
30
0
10
0.3901278006876
20
1.1069235032897031
30
0
10
0.21941968580104454
20
0.70422743740346949
30
0
10
0.15813984968792191
20
0.61230768323378626
30
0
10
0.096860013574799245
20
0.55102784712066355
30
0
10
0
20
0.55102784712066355
30
0
0
CIRCLE
5
128
100
AcDbEntity
8
0
100
AcDbCircle
10
3.7463278603068657
20
-0.33274589836614143
30
0
40
0.12500000000000036
210
0
220
0
230
1
0
SPLINE
5
129
100
AcDbEntity
8
0
100
AcDbSpline
70
4
71
5
72
30
73
24
74
0
42
0.000000001
43
0.0000000001
44
0.0000000001
40
0
40
0
40
0
40
0
40
0
40
0
40
0.052631578947368418
40
0.10526315789473684
40
0.15789473684210525
40
0.21052631578947367
40
0.26315789473684209
40
0.31578947368421051
40
0.36842105263157893
40
0.42105263157894735
40
0.47368421052631576
40
0.52631578947368418
40
0.57894736842105265
40
0.63157894736842102
40
0.68421052631578938
40
0.73684210526315785
40
0.78947368421052633
40
0.84210526315789469
40
0.89473684210526305
40
0.94736842105263153
40
1
40
1
40
1
40
1
40
1
40
1
41
1
41
1
41
1
41
1
41
1
41
1
41
1
41
1
41
1
41
1
41
1
41
1
41
1
41
1
41
1
41
1
41
1
41
1
41
1
41
1
41
1
41
1
41
1
41
1
10
0
20
-0.92326624572966731
30
0
10
-1.177597853881863
20
-0.92326624572966731
30
0
10
-2.2241457529303403
20
-0.95470526880178286
30
0
10
-2.9682580485896799
20
-0.89342543268865182
30
0
10
-3.5416622293624691
20
-0.79275141621709311
30
0
10
-4.3644758883839234
20
-0.59203092469201202
30
0
10
-5.0123782960774079
20
-0.41631813723648387
30
0
10
-5.1393150994545902
20
-0.088033300916185095
30
0
10
-5.0298868206811562
20
0.24462866655505106
30
0
10
-4.6403221482477361
20
0.70860456855440723
30
0
10
-4.0187695248146369
20
1.0850378475350164
30
0
10
-3.3884626390796644
20
1.4702253888174994
30
0
10
-2.6487274745712557
20
1.6847048152134287
30
0
10
-2.1147174741569028
20
1.7065904709681152
30
0
10
-1.5763303425916131
20
1.7416075201756136
30
0
10
-0.99417189951694962
20
1.6278021102512434
30
0
10
-0.69652698125321189
20
1.4746025199684376
30
0
10
-0.57396730902696724
20
1.387059896949691
30
0
10
-0.47767042370634627
20
1.2557459624215717
30
0
10
-0.3901278006876
20
1.1069235032897031
30
0
10
-0.21941968580104454
20
0.70422743740346949
30
0
10
-0.15813984968792191
20
0.61230768323378626
30
0
10
-0.096860013574799245
20
0.55102784712066355
30
0
10
0
20
0.55102784712066355
30
0
0
SPLINE
5
130
100
AcDbEntity
8
0
100
AcDbSpline
70
4
71
5
72
30
73
24
74
0
42
0.000000001
43
0.0000000001
44
0.0000000001
40
0
40
0
40
0
40
0
40
0
40
0
40
0.052631578947368418
40
0.10526315789473684
40
0.15789473684210525
40
0.21052631578947367
40
0.26315789473684209
40
0.31578947368421051
40
0.36842105263157893
40
0.42105263157894735
40
0.47368421052631576
40
0.52631578947368418
40
0.57894736842105265
40
0.63157894736842102
40
0.68421052631578938
40
0.73684210526315785
40
0.78947368421052633
40
0.84210526315789469
40
0.89473684210526305
40
0.94736842105263153
40
1
40
1
40
1
40
1
40
1
40
1
41
1
41
1
41
1
41
1
41
1
41
1
41
1
41
1
41
1
41
1
41
1
41
1
41
1
41
1
41
1
41
1
41
1
41
1
41
1
41
1
41
1
41
1
41
1
41
1
10
0
20
-0.92326624572966731
30
0
10
-1.177597853881863
20
-0.92326624572966731
30
0
10
-2.2241457529303403
20
-0.95470526880178286
30
0
10
-2.9682580485896799
20
-0.89342543268865182
30
0
10
-3.5416622293624691
20
-0.79275141621709311
30
0
10
-4.3644758883839234
20
-0.59203092469201202
30
0
10
-5.0123782960774079
20
-0.41631813723648387
30
0
10
-5.1393150994545902
20
-0.088033300916185095
30
0
10
-5.0298868206811562
20
0.24462866655505106
30
0
10
-4.6403221482477361
20
0.70860456855440723
30
0
10
-4.0187695248146369
20
1.0850378475350164
30
0
10
-3.3884626390796644
20
1.4702253888174994
30
0
10
-2.6487274745712557
20
1.6847048152134287
30
0
10
-2.1147174741569028
20
1.7065904709681152
30
0
10
-1.5763303425916131
20
1.7416075201756136
30
0
10
-0.99417189951694962
20
1.6278021102512434
30
0
10
-0.69652698125321189
20
1.4746025199684376
30
0
10
-0.57396730902696724
20
1.387059896949691
30
0
10
-0.47767042370634627
20
1.2557459624215717
30
0
10
-0.3901278006876
20
1.1069235032897031
30
0
10
-0.21941968580104454
20
0.70422743740346949
30
0
10
-0.15813984968792191
20
0.61230768323378626
30
0
10
-0.096860013574799245
20
0.55102784712066355
30
0
10
0
20
0.55102784712066355
30
0
0
CIRCLE
5
131
100
AcDbEntity
8
0
100
AcDbCircle
10
4.7053602259457428
20
-0.04944937204617559
30
0
40
0.12499999999999957
210
0
220
0
230
1
0
CIRCLE
5
132
100
AcDbEntity
8
0
100
AcDbCircle
10
-4.7053602259457428
20
-0.04944937204617559
30
0
40
0.12499999999999957
210
0
220
0
230
1
0
CIRCLE
5
133
100
AcDbEntity
8
0
100
AcDbCircle
10
-0.49999999999999911
20
2.2933207154126061
30
0
40
0.1249999999999999
210
0
220
0
230
1
0
CIRCLE
5
134
100
AcDbEntity
8
0
100
AcDbCircle
10
-3.7463278603068657
20
2.4477727270566971
30
0
40
0.12500000000000036
210
0
220
0
230
1
0
CIRCLE
5
135
100
AcDbEntity
8
0
100
AcDbCircle
10
-0.49999999999999911
20
2.2933207154126061
30
0
40
0.1249999999999999
210
0
220
0
230
1
0
CIRCLE
5
136
100
AcDbEntity
8
0
100
AcDbCircle
10
4.7053602259457428
20
2.731069253376663
30
0
40
0.12499999999999957
210
0
220
0
230
1
0
CIRCLE
5
137
100
AcDbEntity
8
0
100
AcDbCircle
10
0.49999999999999911
20
2.2933207154126061
30
0
40
0.1249999999999999
210
0
220
0
230
1
0
CIRCLE
5
138
100
AcDbEntity
8
0
100
AcDbCircle
10
-4.7053602259457428
20
2.731069253376663
30
0
40
0.12499999999999957
210
0
220
0
230
1
0
CIRCLE
5
139
100
AcDbEntity
8
0
100
AcDbCircle
10
-3.7463278603068657
20
2.4477727270566971
30
0
40
0.12500000000000036
210
0
220
0
230
1
0
CIRCLE
5
140
100
AcDbEntity
8
0
100
AcDbCircle
10
0.49999999999999911
20
2.2933207154126061
30
0
40
0.1249999999999999
210
0
220
0
230
1
0
CIRCLE
5
141
100
AcDbEntity
8
0
100
AcDbCircle
10
3.7463278603068657
20
2.4477727270566971
30
0
40
0.12500000000000036
210
0
220
0
230
1
0
SPLINE
5
142
100
AcDbEntity
8
0
100
AcDbSpline
70
4
71
5
72
30
73
24
74
0
42
0.000000001
43
0.0000000001
44
0.0000000001
40
0
40
0
40
0
40
0
40
0
40
0
40
0.052631578947368418
40
0.10526315789473684
40
0.15789473684210525
40
0.21052631578947367
40
0.26315789473684209
40
0.31578947368421051
40
0.36842105263157893
40
0.42105263157894735
40
0.47368421052631576
40
0.52631578947368418
40
0.57894736842105265
40
0.63157894736842102
40
0.68421052631578938
40
0.73684210526315785
40
0.78947368421052633
40
0.84210526315789469
40
0.89473684210526305
40
0.94736842105263153
40
1
40
1
40
1
40
1
40
1
40
1
41
1
41
1
41
1
41
1
41
1
41
1
41
1
41
1
41
1
41
1
41
1
41
1
41
1
41
1
41
1
41
1
41
1
41
1
41
1
41
1
41
1
41
1
41
1
41
1
10
0
20
1.8572523796931713
30
0
10
1.177597853881863
20
1.8572523796931713
30
0
10
2.2241457529303403
20
1.8258133566210557
30
0
10
2.9682580485896799
20
1.8870931927341867
30
0
10
3.5416622293624691
20
1.9877672092057455
30
0
10
4.3644758883839234
20
2.1884877007308265
30
0
10
5.0123782960774079
20
2.3642004881863548
30
0
10
5.1393150994545902
20
2.6924853245066536
30
0
10
5.0298868206811562
20
3.0251472919778895
30
0
10
4.6403221482477361
20
3.489123193977246
30
0
10
4.0187695248146369
20
3.8655564729578549
30
0
10
3.3884626390796644
20
4.2507440142403379
30
0
10
2.6487274745712557
20
4.465223440636267
30
0
10
2.1147174741569028
20
4.4871090963909541
30
0
10
1.5763303425916131
20
4.5221261455984525
30
0
10
0.99417189951694962
20
4.4083207356740814
30
0
10
0.69652698125321189
20
4.2551211453912767
30
0
10
0.57396730902696724
20
4.1675785223725299
30
0
10
0.47767042370634627
20
4.0362645878444106
30
0
10
0.3901278006876
20
3.887442128712542
30
0
10
0.21941968580104454
20
3.4847460628263085
30
0
10
0.15813984968792191
20
3.3928263086566246
30
0
10
0.096860013574799245
20
3.331546472543502
30
0
10
0
20
3.331546472543502
30
0
0
SPLINE
5
143
100
AcDbEntity
8
0
100
AcDbSpline
70
4
71
5
72
30
73
24
74
0
42
0.000000001
43
0.0000000001
44
0.0000000001
40
0
40
0
40
0
40
0
40
0
40
0
40
0.052631578947368418
40
0.10526315789473684
40
0.15789473684210525
40
0.21052631578947367
40
0.26315789473684209
40
0.31578947368421051
40
0.36842105263157893
40
0.42105263157894735
40
0.47368421052631576
40
0.52631578947368418
40
0.57894736842105265
40
0.63157894736842102
40
0.68421052631578938
40
0.73684210526315785
40
0.78947368421052633
40
0.84210526315789469
40
0.89473684210526305
40
0.94736842105263153
40
1
40
1
40
1
40
1
40
1
40
1
41
1
41
1
41
1
41
1
41
1
41
1
41
1
41
1
41
1
41
1
41
1
41
1
41
1
41
1
41
1
41
1
41
1
41
1
41
1
41
1
41
1
41
1
41
1
41
1
10
0
20
1.8572523796931713
30
0
10
1.177597853881863
20
1.8572523796931713
30
0
10
2.2241457529303403
20
1.8258133566210557
30
0
10
2.9682580485896799
20
1.8870931927341867
30
0
10
3.5416622293624691
20
1.9877672092057455
30
0
10
4.3644758883839234
20
2.1884877007308265
30
0
10
5.0123782960774079
20
2.3642004881863548
30
0
10
5.1393150994545902
20
2.6924853245066536
30
0
10
5.0298868206811562
20
3.0251472919778895
30
0
10
4.6403221482477361
20
3.489123193977246
30
0
10
4.0187695248146369
20
3.8655564729578549
30
0
10
3.3884626390796644
20
4.2507440142403379
30
0
10
2.6487274745712557
20
4.465223440636267
30
0
10
2.1147174741569028
20
4.4871090963909541
30
0
10
1.5763303425916131
20
4.5221261455984525
30
0
10
0.99417189951694962
20
4.4083207356740814
30
0
10
0.69652698125321189
20
4.2551211453912767
30
0
10
0.57396730902696724
20
4.1675785223725299
30
0
10
0.47767042370634627
20
4.0362645878444106
30
0
10
0.3901278006876
20
3.887442128712542
30
0
10
0.21941968580104454
20
3.4847460628263085
30
0
10
0.15813984968792191
20
3.3928263086566246
30
0
10
0.096860013574799245
20
3.331546472543502
30
0
10
0
20
3.331546472543502
30
0
0
CIRCLE
5
144
100
AcDbEntity
8
0
100
AcDbCircle
10
3.7463278603068657
20
2.4477727270566971
30
0
40
0.12500000000000036
210
0
220
0
230
1
0
SPLINE
5
145
100
AcDbEntity
8
0
100
AcDbSpline
70
4
71
5
72
30
73
24
74
0
42
0.000000001
43
0.0000000001
44
0.0000000001
40
0
40
0
40
0
40
0
40
0
40
0
40
0.052631578947368418
40
0.10526315789473684
40
0.15789473684210525
40
0.21052631578947367
40
0.26315789473684209
40
0.31578947368421051
40
0.36842105263157893
40
0.42105263157894735
40
0.47368421052631576
40
0.52631578947368418
40
0.57894736842105265
40
0.63157894736842102
40
0.68421052631578938
40
0.73684210526315785
40
0.78947368421052633
40
0.84210526315789469
40
0.89473684210526305
40
0.94736842105263153
40
1
40
1
40
1
40
1
40
1
40
1
41
1
41
1
41
1
41
1
41
1
41
1
41
1
41
1
41
1
41
1
41
1
41
1
41
1
41
1
41
1
41
1
41
1
41
1
41
1
41
1
41
1
41
1
41
1
41
1
10
0
20
1.8572523796931713
30
0
10
-1.177597853881863
20
1.8572523796931713
30
0
10
-2.2241457529303403
20
1.8258133566210557
30
0
10
-2.9682580485896799
20
1.8870931927341867
30
0
10
-3.5416622293624691
20
1.9877672092057455
30
0
10
-4.3644758883839234
20
2.1884877007308265
30
0
10
-5.0123782960774079
20
2.3642004881863548
30
0
10
-5.1393150994545902
20
2.6924853245066536
30
0
10
-5.0298868206811562
20
3.0251472919778895
30
0
10
-4.6403221482477361
20
3.489123193977246
30
0
10
-4.0187695248146369
20
3.8655564729578549
30
0
10
-3.3884626390796644
20
4.2507440142403379
30
0
10
-2.6487274745712557
20
4.465223440636267
30
0
10
-2.1147174741569028
20
4.4871090963909541
30
0
10
-1.5763303425916131
20
4.5221261455984525
30
0
10
-0.99417189951694962
20
4.4083207356740814
30
0
10
-0.69652698125321189
20
4.2551211453912767
30
0
10
-0.57396730902696724
20
4.1675785223725299
30
0
10
-0.47767042370634627
20
4.0362645878444106
30
0
10
-0.3901278006876
20
3.887442128712542
30
0
10
-0.21941968580104454
20
3.4847460628263085
30
0
10
-0.15813984968792191
20
3.3928263086566246
30
0
10
-0.096860013574799245
20
3.331546472543502
30
0
10
0
20
3.331546472543502
30
0
0
SPLINE
5
146
100
AcDbEntity
8
0
100
AcDbSpline
70
4
71
5
72
30
73
24
74
0
42
0.000000001
43
0.0000000001
44
0.0000000001
40
0
40
0
40
0
40
0
40
0
40
0
40
0.052631578947368418
40
0.10526315789473684
40
0.15789473684210525
40
0.21052631578947367
40
0.26315789473684209
40
0.31578947368421051
40
0.36842105263157893
40
0.42105263157894735
40
0.47368421052631576
40
0.52631578947368418
40
0.57894736842105265
40
0.63157894736842102
40
0.68421052631578938
40
0.73684210526315785
40
0.78947368421052633
40
0.84210526315789469
40
0.89473684210526305
40
0.94736842105263153
40
1
40
1
40
1
40
1
40
1
40
1
41
1
41
1
41
1
41
1
41
1
41
1
41
1
41
1
41
1
41
1
41
1
41
1
41
1
41
1
41
1
41
1
41
1
41
1
41
1
41
1
41
1
41
1
41
1
41
1
10
0
20
1.8572523796931713
30
0
10
-1.177597853881863
20
1.8572523796931713
30
0
10
-2.2241457529303403
20
1.8258133566210557
30
0
10
-2.9682580485896799
20
1.8870931927341867
30
0
10
-3.5416622293624691
20
1.9877672092057455
30
0
10
-4.3644758883839234
20
2.1884877007308265
30
0
10
-5.0123782960774079
20
2.3642004881863548
30
0
10
-5.1393150994545902
20
2.6924853245066536
30
0
10
-5.0298868206811562
20
3.0251472919778895
30
0
10
-4.6403221482477361
20
3.489123193977246
30
0
10
-4.0187695248146369
20
3.8655564729578549
30
0
10
-3.3884626390796644
20
4.2507440142403379
30
0
10
-2.6487274745712557
20
4.465223440636267
30
0
10
-2.1147174741569028
20
4.4871090963909541
30
0
10
-1.5763303425916131
20
4.5221261455984525
30
0
10
-0.99417189951694962
20
4.4083207356740814
30
0
10
-0.69652698125321189
20
4.2551211453912767
30
0
10
-0.57396730902696724
20
4.1675785223725299
30
0
10
-0.47767042370634627
20
4.0362645878444106
30
0
10
-0.3901278006876
20
3.887442128712542
30
0
10
-0.21941968580104454
20
3.4847460628263085
30
0
10
-0.15813984968792191
20
3.3928263086566246
30
0
10
-0.096860013574799245
20
3.331546472543502
30
0
10
0
20
3.331546472543502
30
0
0
CIRCLE
5
147
100
AcDbEntity
8
0
100
AcDbCircle
10
4.7053602259457428
20
2.731069253376663
30
0
40
0.12499999999999957
210
0
220
0
230
1
0
CIRCLE
5
148
100
AcDbEntity
8
0
100
AcDbCircle
10
-4.7053602259457428
20
2.731069253376663
30
0
40
0.12499999999999957
210
0
220
0
230
1
0
ENDSEC
0
SECTION
2
OBJECTS
0
DICTIONARY
5
C
100
AcDbDictionary
3
ACAD_GROUP
350
D
3
ACAD_MLINESTYLE
350
17
0
DICTIONARY
5
D
100
AcDbDictionary
0
DICTIONARY
5
1A
330
C
100
AcDbDictionary
0
DICTIONARY
5
17
100
AcDbDictionary
0
ENDSEC
0
EOF
