<?xml version="1.0" encoding="UTF-8" standalone="no"?>
<!-- Created with Inkscape (http://www.inkscape.org/) -->

<svg
   xmlns:dc="http://purl.org/dc/elements/1.1/"
   xmlns:cc="http://creativecommons.org/ns#"
   xmlns:rdf="http://www.w3.org/1999/02/22-rdf-syntax-ns#"
   xmlns:svg="http://www.w3.org/2000/svg"
   xmlns="http://www.w3.org/2000/svg"
   xmlns:sodipodi="http://sodipodi.sourceforge.net/DTD/sodipodi-0.dtd"
   xmlns:inkscape="http://www.inkscape.org/namespaces/inkscape"
   width="54.570614mm"
   height="86.748482mm"
   viewBox="0 0 54.570614 86.748482"
   version="1.1"
   id="svg8"
   inkscape:version="0.92.4 (5da689c313, 2019-01-14)"
   sodipodi:docname="ear.svg">
  <defs
     id="defs2">
    <marker
       style="overflow:visible"
       refY="0"
       refX="0"
       orient="auto"
       id="DistanceX">
      <path
         id="path12"
         style="stroke:#000000;stroke-width:0.5"
         d="M 3,-3 -3,3 M 0,-5 V 5"
         inkscape:connector-curvature="0" />
    </marker>
    <pattern
       y="0"
       x="0"
       width="8"
       patternUnits="userSpaceOnUse"
       id="Hatch"
       height="8">
      <path
         id="path15"
         stroke-width="0.25"
         stroke="#000000"
         linecap="square"
         d="M8 4 l-4,4" />
      <path
         id="path17"
         stroke-width="0.25"
         stroke="#000000"
         linecap="square"
         d="M6 2 l-4,4" />
      <path
         id="path19"
         stroke-width="0.25"
         stroke="#000000"
         linecap="square"
         d="M4 0 l-4,4" />
    </pattern>
    <symbol
       id="*MODEL_SPACE" />
    <symbol
       id="*PAPER_SPACE" />
  </defs>
  <sodipodi:namedview
     id="base"
     pagecolor="#ffffff"
     bordercolor="#666666"
     borderopacity="1.0"
     inkscape:pageopacity="0.0"
     inkscape:pageshadow="2"
     inkscape:zoom="0.35"
     inkscape:cx="-551.16016"
     inkscape:cy="-56.065846"
     inkscape:document-units="mm"
     inkscape:current-layer="layer1"
     showgrid="false"
     fit-margin-top="0"
     fit-margin-left="0"
     fit-margin-right="0"
     fit-margin-bottom="0"
     inkscape:window-width="3840"
     inkscape:window-height="2004"
     inkscape:window-x="-16"
     inkscape:window-y="-16"
     inkscape:window-maximized="1" />
  <metadata
     id="metadata5">
    <rdf:RDF>
      <cc:Work
         rdf:about="">
        <dc:format>image/svg+xml</dc:format>
        <dc:type
           rdf:resource="http://purl.org/dc/dcmitype/StillImage" />
        <dc:title></dc:title>
      </cc:Work>
    </rdf:RDF>
  </metadata>
  <g
     inkscape:label="Layer 1"
     inkscape:groupmode="layer"
     id="layer1"
     transform="translate(-30.167078,-47.250761)">
    <g
       id="g28"
       inkscape:label="0"
       transform="matrix(0.26458333,0,0,0.26458333,-108.06561,-302.87223)">
      <path
         id="path26"
         style="fill:none;stroke:#000000"
         d="m 585.60002,1602.5197 v 13.3947 a 9.6,9.6 0 0 0 9.6,9.6 h 54.8928 a 19.2,19.2 0 0 0 19.2,-19.2 v -52.6267 l -35.6928,-75.968 a 464.96091,464.96091 0 0 0 -57.6,76.8 25.84916,25.84916 0 0 1 -49.90038,-9.472 250.82291,250.82291 0 0 1 17.69769,-75.0306 224.46969,224.46969 0 0 1 143.61678,-146.0886 749.10754,749.10754 0 0 1 40.79129,196.8866 v 120.2527 a 9.6,9.6 0 0 1 -9.6,9.6 H 532.55426 a 9.6,9.6 0 0 1 -9.6,-9.6 v -38.5481 a 9.6,9.6 0 0 1 9.6,-9.6 h 43.44576 a 9.6,9.6 0 0 1 9.6,9.6 z"
         inkscape:connector-curvature="0" />
    </g>
  </g>
</svg>
