<?xml version="1.0" encoding="UTF-8" standalone="no"?>
<svg
   xmlns:dc="http://purl.org/dc/elements/1.1/"
   xmlns:cc="http://creativecommons.org/ns#"
   xmlns:rdf="http://www.w3.org/1999/02/22-rdf-syntax-ns#"
   xmlns:svg="http://www.w3.org/2000/svg"
   xmlns="http://www.w3.org/2000/svg"
   xmlns:sodipodi="http://sodipodi.sourceforge.net/DTD/sodipodi-0.dtd"
   xmlns:inkscape="http://www.inkscape.org/namespaces/inkscape"
   sodipodi:docname="men-pocket-face-mask-template-rev3-2.svg"
   inkscape:version="1.0 (4035a4fb49, 2020-05-01)"
   id="svg3216"
   version="1.1"
   viewBox="0 0 152.33519 174.3461"
   height="174.3461mm"
   width="152.33519mm">
  <defs
     id="defs3210">
    <clipPath
       clipPathUnits="userSpaceOnUse"
       id="clipPath3795">
      <path
         d="M 0,792 H 612 V 0 H 0 Z"
         id="path3793" />
    </clipPath>
    <clipPath
       clipPathUnits="userSpaceOnUse"
       id="clipPath3847">
      <path
         d="M 0,792 H 612 V 0 H 0 Z"
         id="path3845" />
    </clipPath>
    <clipPath
       clipPathUnits="userSpaceOnUse"
       id="clipPath3855">
      <path
         d="M 82.7266,639.095 H 545.608 V 169.56 H 82.7266 Z"
         id="path3853" />
    </clipPath>
    <clipPath
       clipPathUnits="userSpaceOnUse"
       id="clipPath3955">
      <path
         d="M 0,792 H 612 V 0 H 0 Z"
         id="path3953" />
    </clipPath>
  </defs>
  <sodipodi:namedview
     inkscape:window-maximized="1"
     inkscape:window-y="-8"
     inkscape:window-x="-8"
     inkscape:window-height="1002"
     inkscape:window-width="1920"
     fit-margin-bottom="0"
     fit-margin-right="0"
     fit-margin-left="0"
     fit-margin-top="0"
     showgrid="false"
     inkscape:document-rotation="0"
     inkscape:current-layer="layer1"
     inkscape:document-units="mm"
     inkscape:cy="374.84356"
     inkscape:cx="593.92235"
     inkscape:zoom="0.7"
     inkscape:pageshadow="2"
     inkscape:pageopacity="0.0"
     borderopacity="1.0"
     bordercolor="#666666"
     pagecolor="#ffffff"
     id="base" />
  <metadata
     id="metadata3213">
    <rdf:RDF>
      <cc:Work
         rdf:about="">
        <dc:format>image/svg+xml</dc:format>
        <dc:type
           rdf:resource="http://purl.org/dc/dcmitype/StillImage" />
        <dc:title></dc:title>
      </cc:Work>
    </rdf:RDF>
  </metadata>
  <g
     transform="translate(-21.451794,-48.989308)"
     id="layer1"
     inkscape:groupmode="layer"
     inkscape:label="Layer 1">
    <g
       id="g4176">
      <g
         id="g3789"
         transform="matrix(0.35277777,0,0,-0.35277777,-4.874155,283.584)">
        <g
           id="g3791"
           clip-path="url(#clipPath3795)">
          <g
             id="g3797"
             transform="translate(446.0049,202.3604)">
            <path
               d="M 0,0 C 0.847,-0.052 1.677,-0.105 2.49,-0.159 L 2.675,2.334"
               style="fill:none;stroke:#231f20;stroke-width:0.5;stroke-linecap:butt;stroke-linejoin:miter;stroke-miterlimit:10;stroke-dasharray:none;stroke-opacity:1"
               id="path3799" />
          </g>
          <g
             id="g3801"
             transform="translate(449.041,209.5879)">
            <path
               d="M 0,0 17.891,242.215"
               style="fill:none;stroke:#231f20;stroke-width:0.5;stroke-linecap:butt;stroke-linejoin:miter;stroke-miterlimit:10;stroke-dasharray:4.907, 4.907;stroke-dashoffset:0;stroke-opacity:1"
               id="path3803" />
          </g>
          <g
             id="g3805"
             transform="translate(467.1123,454.25)">
            <path
               d="m 0,0 0.184,2.493 c 0,0 -0.847,-0.171 -2.462,-0.406"
               style="fill:none;stroke:#231f20;stroke-width:0.5;stroke-linecap:butt;stroke-linejoin:miter;stroke-miterlimit:10;stroke-dasharray:none;stroke-opacity:1"
               id="path3807" />
          </g>
          <g
             id="g3809"
             transform="translate(459.8018,455.7285)">
            <path
               d="M 0,0 C -31.905,-3.168 -159.295,-4.136 -258.146,163.1"
               style="fill:none;stroke:#231f20;stroke-width:0.5;stroke-linecap:butt;stroke-linejoin:miter;stroke-miterlimit:10;stroke-dasharray:5.072, 5.072;stroke-dashoffset:0;stroke-opacity:1"
               id="path3811" />
          </g>
          <g
             id="g3813"
             transform="translate(200.3633,621.0273)">
            <path
               d="m 0,0 c -0.419,0.718 -0.838,1.438 -1.256,2.162 0,0 -0.676,-0.537 -1.914,-1.602"
               style="fill:none;stroke:#231f20;stroke-width:0.5;stroke-linecap:butt;stroke-linejoin:miter;stroke-miterlimit:10;stroke-dasharray:none;stroke-opacity:1"
               id="path3815" />
          </g>
          <g
             id="g3817"
             transform="translate(193.4849,618.2842)">
            <path
               d="m 0,0 c -21.826,-20.044 -99.29,-100.987 -90.166,-232.896 0,0 -6.36,-51.197 49.333,-178.814"
               style="fill:none;stroke:#231f20;stroke-width:0.5;stroke-linecap:butt;stroke-linejoin:miter;stroke-miterlimit:10;stroke-dasharray:4.97, 4.97;stroke-dashoffset:0;stroke-opacity:1"
               id="path3819" />
          </g>
          <g
             id="g3821"
             transform="translate(153.6523,204.2881)">
            <path
               d="m 0,0 c 0.334,-0.76 0.67,-1.522 1.008,-2.288 0,0 0.862,0.02 2.495,0.058"
               style="fill:none;stroke:#231f20;stroke-width:0.5;stroke-linecap:butt;stroke-linejoin:miter;stroke-miterlimit:10;stroke-dasharray:none;stroke-opacity:1"
               id="path3823" />
          </g>
          <g
             id="g3825"
             transform="translate(162.2192,202.1699)">
            <path
               d="M 0,0 C 38.21,0.836 211.039,4.303 281.25,0.34"
               style="fill:none;stroke:#231f20;stroke-width:0.5;stroke-linecap:butt;stroke-linejoin:miter;stroke-miterlimit:10;stroke-dasharray:5.068, 5.068;stroke-dashoffset:0;stroke-opacity:1"
               id="path3827" />
          </g>
        </g>
      </g>
      <text
         transform="rotate(-53.604804)"
         style="font-variant:normal;font-weight:normal;font-stretch:normal;font-size:4.23333px;font-family:'Myriad Pro';-inkscape-font-specification:MyriadPro-Regular;writing-mode:lr-tb;fill:#231f20;fill-opacity:1;fill-rule:nonzero;stroke:none;stroke-width:0.352778"
         id="text3831"
         x="-23.845163"
         y="93.302177"><tspan
           x="-23.845163 -20.416172 -18.295277"
           y="93.302177"
           sodipodi:role="line"
           id="tspan3829"
           style="stroke-width:0.352778">Men</tspan></text>
      <text
         style="font-variant:normal;font-weight:normal;font-stretch:normal;font-size:7.62px;font-family:'Myriad Pro';-inkscape-font-specification:MyriadPro-Regular;writing-mode:lr-tb;fill:#231f20;fill-opacity:1;fill-rule:nonzero;stroke:none;stroke-width:0.352778"
         id="text3835"
         x="76.587524"
         y="160.56291"><tspan
           x="76.587524 80.184166 81.967247 86.196342 87.979424 92.208527 96.468102 98.083542 101.45158 105.12442 109.46021 111.98242 113.7655"
           y="160.56291"
           sodipodi:role="line"
           id="tspan3833"
           style="stroke-width:0.352778">Lining Fabric</tspan></text>
      <text
         transform="rotate(-85.880706)"
         style="font-variant:normal;font-weight:normal;font-stretch:normal;font-size:4.23333px;font-family:'Myriad Pro';-inkscape-font-specification:MyriadPro-Regular;writing-mode:lr-tb;fill:#231f20;fill-opacity:1;fill-rule:nonzero;stroke:none;stroke-width:0.352778"
         id="text3839"
         x="-174.43391"
         y="178.85814"><tspan
           x="-174.43391 -172.26222 -170.81018 -168.63849 -167.50352 -165.7086 -163.59616 -161.47527 -159.4348 -155.90419 -155.00673 -152.42863 -151.42957 -150.4305 -148.13603 -145.03723 -142.99677 -140.64726 -138.77612"
           y="178.85814"
           sodipodi:role="line"
           id="tspan3837"
           style="stroke-width:0.352778">1/2” Seam Allowance</tspan></text>
      <text
         style="font-variant:normal;font-weight:normal;font-stretch:normal;font-size:6.35px;font-family:'Myriad Pro';-inkscape-font-specification:MyriadPro-Regular;writing-mode:lr-tb;fill:#231f20;fill-opacity:1;fill-rule:nonzero;stroke:none;stroke-width:0.352778"
         id="text3877"
         x="60.653114"
         y="133.30067"><tspan
           x="60.653114 63.872566 67.358719 70.203514 73.181664 76.363014 78.464867 79.811066 82.617767 85.678467 88.485161 91.666519 93.012711 98.156212 101.21692 103.73151 106.70966 107.79552 110.50062 113.68196 118.97787 122.59102 124.08961 127.12492 129.18866"
           y="133.30067"
           sodipodi:role="line"
           id="tspan3875"
           style="stroke-width:0.352778">Pocket Face Mask Template</tspan></text>
      <text
         style="font-variant:normal;font-weight:normal;font-stretch:normal;font-size:4.23333px;font-family:'Myriad Pro';-inkscape-font-specification:MyriadPro-Regular;writing-mode:lr-tb;fill:#231f20;fill-opacity:1;fill-rule:nonzero;stroke:none;stroke-width:0.352778"
         id="text3891"
         x="96.04216"
         y="217.47778"><tspan
           x="96.04216 98.21386 99.665894 101.83759 102.97212 103.86959 105.98161 108.1025 110.14297 113.67357 114.57104 117.14913 118.1482 119.14727 121.44173 124.54053 126.581 128.9305 130.80164"
           y="217.47778"
           sodipodi:role="line"
           id="tspan3887"
           style="stroke-width:0.352778">3/8” Seam Allowance</tspan><tspan
           x="96.88459 99.05629"
           y="186.15112"
           sodipodi:role="line"
           id="tspan3889"
           style="stroke-width:0.352778">2”</tspan></text>
      <g
         id="g3893"
         transform="matrix(0.35277777,0,0,-0.35277777,73.269578,187.91508)">
        <path
           d="M 0,0 H 144"
           style="fill:none;stroke:#231f20;stroke-width:1;stroke-linecap:butt;stroke-linejoin:miter;stroke-miterlimit:4;stroke-dasharray:none;stroke-opacity:1"
           id="path3895" />
      </g>
      <g
         id="g3897"
         transform="matrix(0.35277777,0,0,-0.35277777,73.269578,190.38452)">
        <path
           d="M 0,0 V 14.4"
           style="fill:none;stroke:#231f20;stroke-width:1;stroke-linecap:butt;stroke-linejoin:miter;stroke-miterlimit:4;stroke-dasharray:none;stroke-opacity:1"
           id="path3899" />
      </g>
      <g
         id="g3901"
         transform="matrix(0.35277777,0,0,-0.35277777,124.06958,190.38452)">
        <path
           d="M 0,0 V 14.4"
           style="fill:none;stroke:#231f20;stroke-width:1;stroke-linecap:butt;stroke-linejoin:miter;stroke-miterlimit:4;stroke-dasharray:none;stroke-opacity:1"
           id="path3903" />
      </g>
      <text
         style="font-variant:normal;font-weight:normal;font-stretch:normal;font-size:3.81px;font-family:'Myriad Pro';-inkscape-font-specification:MyriadPro-Regular;writing-mode:lr-tb;fill:#231f20;fill-opacity:1;fill-rule:nonzero;stroke:none;stroke-width:0.352778"
         id="text3907"
         x="67.970818"
         y="194.61786"><tspan
           x="67.970818 69.978691 70.877853 72.786659 74.623077 76.131844 78.040649 78.848373 80.555252 82.6698 84.578613 86.285492 88.07238 88.880104 90.636513 92.728203 94.827515 96.07338 96.881104 98.389862 100.09674 101.93316 102.83232 104.74113 105.54885 107.6634 109.57221 110.77959 112.68841 113.49613 115.33255 116.48698 117.72523 119.63403 120.87991 121.68763 123.85551 125.11625 126.00779 128.1071"
           y="194.61786"
           sodipodi:role="line"
           id="tspan3905"
           style="stroke-width:0.352778">Please check your scale here after print</tspan></text>
      <text
         style="font-variant:normal;font-weight:normal;font-stretch:normal;font-size:4.445px;font-family:'Myriad Pro';-inkscape-font-specification:MyriadPro-Regular;writing-mode:lr-tb;fill:#231f20;fill-opacity:1;fill-rule:nonzero;stroke:none;stroke-width:0.352778"
         id="text3913"
         x="93.012047"
         y="171.34212"><tspan
           x="93.012047 95.590141 98.466057 100.67522 101.61756"
           y="171.34212"
           sodipodi:role="line"
           id="tspan3909"
           style="stroke-width:0.352778">CUT 2</tspan><tspan
           x="81.655067 83.681992 86.122292 87.171318 89.678299 90.620636 92.669777 95.110085 97.55928 99.012794 99.955132 101.25307 103.39556 105.92477 107.39606 108.4362 110.42755 111.3699 112.81452"
           y="166.28371"
           sodipodi:role="line"
           id="tspan3911"
           style="stroke-width:0.352778">Fold your fabric to</tspan></text>
      <g
         id="g3925"
         transform="matrix(0.35277777,0,0,-0.35277777,137.92849,176.00985)">
        <path
           d="M 0,0 2.437,-4.219 4.872,-8.436 7.308,-4.219 9.743,0 H 5.575 V 63.564 H 4.169 V 0 Z"
           style="fill:#000000;fill-opacity:1;fill-rule:nonzero;stroke:none"
           id="path3927" />
      </g>
      <g
         id="g3929"
         transform="matrix(0.35277777,0,0,-0.35277777,141.36567,156.5616)">
        <path
           d="M 0,0 -2.436,4.22 -4.871,8.436 -7.308,4.22 -9.743,0 h 4.168 v -63.564 h 1.406 V 0 Z"
           style="fill:#000000;fill-opacity:1;fill-rule:nonzero;stroke:none"
           id="path3931" />
      </g>
      <text
         style="font-variant:normal;font-weight:normal;font-stretch:normal;font-size:3.81px;font-family:'Myriad Pro';-inkscape-font-specification:MyriadPro-Regular;writing-mode:lr-tb;fill:#231f20;fill-opacity:1;fill-rule:nonzero;stroke:none;stroke-width:0.352778"
         id="text3935"
         x="77.59626"
         y="147.76456"><tspan
           x="77.59626 78.861176 80.602348 82.396858 84.564751 86.473557 87.281281 89.346298 90.154015 92.459068 93.266785 95.476585 97.092026 97.983566 100.09811 101.60688 102.86799 104.11385 106.21317 107.96957 109.23069 110.12222 112.21391 114.32847"
           y="147.76456"
           sodipodi:role="line"
           id="tspan3933"
           style="stroke-width:0.352778">(Type B &amp; C instruction)</tspan></text>
      <g
         id="g3949"
         transform="matrix(0.35277777,0,0,-0.35277777,-4.874155,283.584)"
         style="fill:none;stroke:#ff0000;stroke-opacity:1">
        <g
           id="g3951"
           clip-path="url(#clipPath3955)"
           style="fill:none;stroke:#ff0000;stroke-opacity:1">
          <g
             id="g3957"
             transform="translate(467.2939,484.3999)"
             style="fill:none;stroke:#ff0000;stroke-opacity:1">
            <path
               d="m 0,0 38.829,-2.715 v -0.098 h 0.049 l -1.862,-25.22 -18.8,-254.542 -2.049,-27.728 -0.274,-3.047 c 0,0 -36.262,2.535 -36.261,2.536 -20.959,1.398 -56.01,2.107 -104.191,2.107 -86.553,0 -186.12,-2.339 -187.116,-2.363 l -18.713,-0.443 -7.564,17.122 c -53.448,121.002 -54.64,179.907 -53.797,194.821 -2.369,37.535 1.549,74.353 11.653,109.467 8.229,28.601 20.548,56.086 36.615,81.695 27.506,43.844 56.939,67.465 58.179,68.449 l 25.413,20.176 16.238,-28.093 C -208.597,91.479 -166.304,47.848 -117.949,22.44 -79.33,2.149 -45.262,-2.109 -23.481,-2.109 c 10.752,0 17.447,1.088 18.346,1.244 l 5.129,0.897"
               style="fill:none;stroke:#ff0000;stroke-width:0.5;stroke-linecap:butt;stroke-linejoin:miter;stroke-miterlimit:10;stroke-dasharray:none;stroke-opacity:1"
               id="path3959" />
          </g>
        </g>
      </g>
    </g>
  </g>
</svg>
