<?xml version="1.0" encoding="UTF-8" standalone="no"?>
<svg
   xmlns:dc="http://purl.org/dc/elements/1.1/"
   xmlns:cc="http://creativecommons.org/ns#"
   xmlns:rdf="http://www.w3.org/1999/02/22-rdf-syntax-ns#"
   xmlns:svg="http://www.w3.org/2000/svg"
   xmlns="http://www.w3.org/2000/svg"
   xmlns:sodipodi="http://sodipodi.sourceforge.net/DTD/sodipodi-0.dtd"
   xmlns:inkscape="http://www.inkscape.org/namespaces/inkscape"
   sodipodi:docname="men-pocket-face-mask-template-rev3-1.svg"
   inkscape:version="1.0 (4035a4fb49, 2020-05-01)"
   id="svg2206"
   version="1.1"
   viewBox="0 0 177.60254 176.12959"
   height="176.12959mm"
   width="177.60254mm">
  <defs
     id="defs2200">
    <clipPath
       clipPathUnits="userSpaceOnUse"
       id="clipPath2785">
      <path
         d="M 0,792 H 612 V 0 H 0 Z"
         id="path2783" />
    </clipPath>
    <clipPath
       clipPathUnits="userSpaceOnUse"
       id="clipPath2833">
      <path
         d="M 0,792 H 612 V 0 H 0 Z"
         id="path2831" />
    </clipPath>
    <clipPath
       clipPathUnits="userSpaceOnUse"
       id="clipPath2841">
      <path
         d="M 82.7266,639.095 H 545.608 V 169.56 H 82.7266 Z"
         id="path2839" />
    </clipPath>
    <clipPath
       clipPathUnits="userSpaceOnUse"
       id="clipPath2941">
      <path
         d="M 0,792 H 612 V 0 H 0 Z"
         id="path2939" />
    </clipPath>
    <clipPath
       clipPathUnits="userSpaceOnUse"
       id="clipPath2961">
      <path
         d="M 0,792 H 612 V 0 H 0 Z"
         id="path2959" />
    </clipPath>
  </defs>
  <sodipodi:namedview
     inkscape:window-maximized="1"
     inkscape:window-y="-8"
     inkscape:window-x="-8"
     inkscape:window-height="1002"
     inkscape:window-width="1920"
     fit-margin-bottom="0"
     fit-margin-right="0"
     fit-margin-left="0"
     fit-margin-top="0"
     showgrid="false"
     inkscape:document-rotation="0"
     inkscape:current-layer="layer1"
     inkscape:document-units="mm"
     inkscape:cy="345.62431"
     inkscape:cx="329.91245"
     inkscape:zoom="0.98994949"
     inkscape:pageshadow="2"
     inkscape:pageopacity="0.0"
     borderopacity="1.0"
     bordercolor="#666666"
     pagecolor="#ffffff"
     id="base" />
  <metadata
     id="metadata2203">
    <rdf:RDF>
      <cc:Work
         rdf:about="">
        <dc:format>image/svg+xml</dc:format>
        <dc:type
           rdf:resource="http://purl.org/dc/dcmitype/StillImage" />
        <dc:title></dc:title>
      </cc:Work>
    </rdf:RDF>
  </metadata>
  <g
     transform="translate(-18.543998,-56.720235)"
     id="layer1"
     inkscape:groupmode="layer"
     inkscape:label="Layer 1">
    <g
       id="g3208">
      <g
         id="g2779"
         transform="matrix(0.35277777,0,0,-0.35277777,-0.72660286,291.14352)">
        <g
           id="g2781"
           clip-path="url(#clipPath2785)">
          <g
             id="g2787"
             transform="translate(426.0049,202.3604)">
            <path
               d="M 0,0 C 0.847,-0.052 1.677,-0.105 2.49,-0.159 L 2.675,2.334"
               style="fill:none;stroke:#231f20;stroke-width:0.5;stroke-linecap:butt;stroke-linejoin:miter;stroke-miterlimit:10;stroke-dasharray:none;stroke-opacity:1"
               id="path2789" />
          </g>
          <g
             id="g2791"
             transform="translate(429.041,209.5879)">
            <path
               d="M 0,0 17.891,242.215"
               style="fill:none;stroke:#231f20;stroke-width:0.5;stroke-linecap:butt;stroke-linejoin:miter;stroke-miterlimit:10;stroke-dasharray:4.907, 4.907;stroke-dashoffset:0;stroke-opacity:1"
               id="path2793" />
          </g>
          <g
             id="g2795"
             transform="translate(447.1123,454.25)">
            <path
               d="m 0,0 0.184,2.493 c 0,0 -0.847,-0.171 -2.462,-0.406"
               style="fill:none;stroke:#231f20;stroke-width:0.5;stroke-linecap:butt;stroke-linejoin:miter;stroke-miterlimit:10;stroke-dasharray:none;stroke-opacity:1"
               id="path2797" />
          </g>
          <g
             id="g2799"
             transform="translate(439.8018,455.7285)">
            <path
               d="M 0,0 C -31.905,-3.168 -159.295,-4.136 -258.146,163.1"
               style="fill:none;stroke:#231f20;stroke-width:0.5;stroke-linecap:butt;stroke-linejoin:miter;stroke-miterlimit:10;stroke-dasharray:5.072, 5.072;stroke-dashoffset:0;stroke-opacity:1"
               id="path2801" />
          </g>
          <g
             id="g2803"
             transform="translate(180.3633,621.0273)">
            <path
               d="m 0,0 c -0.419,0.718 -0.838,1.438 -1.256,2.162 0,0 -0.676,-0.537 -1.914,-1.602"
               style="fill:none;stroke:#231f20;stroke-width:0.5;stroke-linecap:butt;stroke-linejoin:miter;stroke-miterlimit:10;stroke-dasharray:none;stroke-opacity:1"
               id="path2805" />
          </g>
          <g
             id="g2807"
             transform="translate(173.4849,618.2842)">
            <path
               d="m 0,0 c -21.826,-20.044 -99.29,-100.987 -90.166,-232.896 0,0 -6.36,-51.197 49.333,-178.814"
               style="fill:none;stroke:#231f20;stroke-width:0.5;stroke-linecap:butt;stroke-linejoin:miter;stroke-miterlimit:10;stroke-dasharray:4.97, 4.97;stroke-dashoffset:0;stroke-opacity:1"
               id="path2809" />
          </g>
          <g
             id="g2811"
             transform="translate(133.6523,204.2881)">
            <path
               d="m 0,0 c 0.334,-0.76 0.67,-1.522 1.008,-2.288 0,0 0.862,0.02 2.495,0.058"
               style="fill:none;stroke:#231f20;stroke-width:0.5;stroke-linecap:butt;stroke-linejoin:miter;stroke-miterlimit:10;stroke-dasharray:none;stroke-opacity:1"
               id="path2813" />
          </g>
          <g
             id="g2815"
             transform="translate(142.2192,202.1699)">
            <path
               d="M 0,0 C 38.21,0.836 211.039,4.303 281.25,0.34"
               style="fill:none;stroke:#231f20;stroke-width:0.5;stroke-linecap:butt;stroke-linejoin:miter;stroke-miterlimit:10;stroke-dasharray:5.068, 5.068;stroke-dashoffset:0;stroke-opacity:1"
               id="path2817" />
          </g>
        </g>
      </g>
      <text
         transform="rotate(-53.604804)"
         style="font-variant:normal;font-weight:normal;font-stretch:normal;font-size:4.23333px;font-family:'Myriad Pro';-inkscape-font-specification:MyriadPro-Regular;writing-mode:lr-tb;fill:#231f20;fill-opacity:1;fill-rule:nonzero;stroke:none;stroke-width:0.352778"
         id="text2821"
         x="-31.655619"
         y="95.446846"><tspan
           x="-31.655619 -28.226625 -26.105732"
           y="95.446846"
           sodipodi:role="line"
           id="tspan2819"
           style="stroke-width:0.352778">Men</tspan></text>
      <text
         style="font-variant:normal;font-weight:normal;font-stretch:normal;font-size:7.62px;font-family:'Myriad Pro';-inkscape-font-specification:MyriadPro-Regular;writing-mode:lr-tb;fill:#231f20;fill-opacity:1;fill-rule:nonzero;stroke:none;stroke-width:0.352778"
         id="text2825"
         x="75.691307"
         y="168.12244"><tspan
           x="75.691307 81.863503 85.536346 87.319427 91.548523 93.163963 96.532005 100.20484 104.54063 107.06284 108.84592"
           y="168.12244"
           sodipodi:role="line"
           id="tspan2823"
           style="stroke-width:0.352778">Main Fabric</tspan></text>
      <text
         style="font-variant:normal;font-weight:normal;font-stretch:normal;font-size:6.35px;font-family:'Myriad Pro';-inkscape-font-specification:MyriadPro-Regular;writing-mode:lr-tb;fill:#231f20;fill-opacity:1;fill-rule:nonzero;stroke:none;stroke-width:0.352778"
         id="text2863"
         x="57.745113"
         y="140.86018"><tspan
           x="57.745113 60.964561 64.450714 67.295509 70.273666 73.455009 75.556862 76.903061 79.709763 82.770462 85.577164 88.758514 90.104713 95.248215 98.308914 100.82351 103.80166 104.88751 107.59261 110.77396 116.06986 119.68301 121.18162 124.21691 126.28066"
           y="140.86018"
           sodipodi:role="line"
           id="tspan2861"
           style="stroke-width:0.352778">Pocket Face Mask Template</tspan></text>
      <text
         style="font-variant:normal;font-weight:normal;font-stretch:normal;font-size:4.23333px;font-family:'Myriad Pro';-inkscape-font-specification:MyriadPro-Regular;writing-mode:lr-tb;fill:#231f20;fill-opacity:1;fill-rule:nonzero;stroke:none;stroke-width:0.352778"
         id="text2877"
         x="93.134155"
         y="225.03731"><tspan
           x="93.134155 95.305855 96.757889 98.929588 100.06413 100.96159 103.0736 105.1945 107.23496 110.76556 111.66303 114.24113 115.2402 116.23927 118.53373 121.63253 123.673 126.0225 127.89363"
           y="225.03731"
           sodipodi:role="line"
           id="tspan2873"
           style="stroke-width:0.352778">3/8” Seam Allowance</tspan><tspan
           x="93.976593 96.148293"
           y="193.71065"
           sodipodi:role="line"
           id="tspan2875"
           style="stroke-width:0.352778">2”</tspan></text>
      <g
         id="g2879"
         transform="matrix(0.35277777,0,0,-0.35277777,70.361575,195.4746)">
        <path
           d="M 0,0 H 144"
           style="fill:none;stroke:#231f20;stroke-width:1;stroke-linecap:butt;stroke-linejoin:miter;stroke-miterlimit:4;stroke-dasharray:none;stroke-opacity:1"
           id="path2881" />
      </g>
      <g
         id="g2883"
         transform="matrix(0.35277777,0,0,-0.35277777,70.361575,197.94404)">
        <path
           d="M 0,0 V 14.4"
           style="fill:none;stroke:#231f20;stroke-width:1;stroke-linecap:butt;stroke-linejoin:miter;stroke-miterlimit:4;stroke-dasharray:none;stroke-opacity:1"
           id="path2885" />
      </g>
      <g
         id="g2887"
         transform="matrix(0.35277777,0,0,-0.35277777,121.16157,197.94404)">
        <path
           d="M 0,0 V 14.4"
           style="fill:none;stroke:#231f20;stroke-width:1;stroke-linecap:butt;stroke-linejoin:miter;stroke-miterlimit:4;stroke-dasharray:none;stroke-opacity:1"
           id="path2889" />
      </g>
      <text
         style="font-variant:normal;font-weight:normal;font-stretch:normal;font-size:3.81px;font-family:'Myriad Pro';-inkscape-font-specification:MyriadPro-Regular;writing-mode:lr-tb;fill:#231f20;fill-opacity:1;fill-rule:nonzero;stroke:none;stroke-width:0.352778"
         id="text2893"
         x="65.06282"
         y="202.17738"><tspan
           x="65.06282 67.070686 67.969849 69.878654 71.71508 73.223839 75.132645 75.940369 77.647247 79.761795 81.670609 83.377487 85.164375 85.972099 87.728508 89.820198 91.91951 93.165375 93.973099 95.481857 97.188736 99.025162 99.924316 101.83312 102.64085 104.75539 106.66421 107.8716 109.7804 110.58813 112.42455 113.57898 114.81722 116.72604 117.9719 118.77962 120.94752 122.20824 123.09978 125.1991"
           y="202.17738"
           sodipodi:role="line"
           id="tspan2891"
           style="stroke-width:0.352778">Please check your scale here after print</tspan></text>
      <text
         style="font-variant:normal;font-weight:normal;font-stretch:normal;font-size:4.445px;font-family:'Myriad Pro';-inkscape-font-specification:MyriadPro-Regular;writing-mode:lr-tb;fill:#231f20;fill-opacity:1;fill-rule:nonzero;stroke:none;stroke-width:0.352778"
         id="text2899"
         x="90.104042"
         y="178.90163"><tspan
           x="90.104042 92.682144 95.55806 97.76722 98.709564"
           y="178.90163"
           sodipodi:role="line"
           id="tspan2895"
           style="stroke-width:0.352778">CUT 2</tspan><tspan
           x="78.74707 80.773987 83.214294 84.263313 86.770294 87.712631 89.76178 92.20208 94.651276 96.10479 97.047134 98.34507 100.48756 103.01677 104.48806 105.52819 107.51955 108.46189 109.90652"
           y="173.84322"
           sodipodi:role="line"
           id="tspan2897"
           style="stroke-width:0.352778">Fold your fabric to</tspan></text>
      <g
         id="g2911"
         transform="matrix(0.35277777,0,0,-0.35277777,135.02048,183.56937)">
        <path
           d="M 0,0 2.437,-4.219 4.872,-8.436 7.308,-4.219 9.743,0 H 5.575 V 63.564 H 4.169 V 0 Z"
           style="fill:#000000;fill-opacity:1;fill-rule:nonzero;stroke:none"
           id="path2913" />
      </g>
      <g
         id="g2915"
         transform="matrix(0.35277777,0,0,-0.35277777,138.45767,164.12112)">
        <path
           d="M 0,0 -2.436,4.22 -4.871,8.436 -7.308,4.22 -9.743,0 h 4.168 v -63.564 h 1.406 V 0 Z"
           style="fill:#000000;fill-opacity:1;fill-rule:nonzero;stroke:none"
           id="path2917" />
      </g>
      <text
         style="font-variant:normal;font-weight:normal;font-stretch:normal;font-size:3.81px;font-family:'Myriad Pro';-inkscape-font-specification:MyriadPro-Regular;writing-mode:lr-tb;fill:#231f20;fill-opacity:1;fill-rule:nonzero;stroke:none;stroke-width:0.352778"
         id="text2921"
         x="74.688255"
         y="155.32408"><tspan
           x="74.688255 75.953171 77.694344 79.488853 81.656746 83.565552 84.373276 86.438293 87.24601 89.551064 90.35878 92.568581 94.184021 95.075562 97.190109 98.698875 99.959984 101.20585 103.30516 105.06158 106.32269 107.21423 109.30592 111.42046"
           y="155.32408"
           sodipodi:role="line"
           id="tspan2919"
           style="stroke-width:0.352778">(Type B &amp; C instruction)</tspan></text>
      <path
         id="path2945"
         style="fill:none;stroke:#ff0000;stroke-width:0.666667;stroke-linecap:butt;stroke-linejoin:miter;stroke-miterlimit:10;stroke-dasharray:none;stroke-opacity:1"
         d="m 247.12695,214.87695 -33.88281,26.90039 c -1.65333,1.31201 -40.89822,32.80563 -77.57422,91.26563 -21.42133,34.14266 -37.846355,70.79243 -48.818358,108.92578 -13.471997,46.81999 -18.695777,95.90843 -15.537109,145.95508 -1.124001,19.88666 0.463184,98.42706 71.728517,259.76172 l 10.08594,22.83007 24.95117,-0.58984 c 1.328,-0.0302 134.08427,-3.15234 249.48828,-3.15234 64.24131,0 110.97459,0.94583 138.91992,2.8125 l -0.25195,0.0351 95.76562,6.69727 v 0.01 l 48.33399,3.37891 0.36523,-4.0625 2.73242,-36.9707 L 738.5,499.2832 l 2.48242,-33.62304 h -0.0645 v -0.13282 l -48.33399,-3.3789 v -0.01 l -95.76562,-6.69726 -0.2168,-0.0801 -9.80273,0.95703 c -1.2,0.20674 -10.12559,1.66016 -24.46289,1.66016 -29.04,0 -74.46369,-5.68032 -125.95703,-32.73633 C 371.907,391.36776 315.51601,333.19265 268.77734,252.33398 Z"
         transform="scale(0.26458333)" />
      <text
         transform="rotate(-86.044401)"
         style="font-variant:normal;font-weight:normal;font-stretch:normal;font-size:4.23333px;font-family:'Myriad Pro';-inkscape-font-specification:MyriadPro-Regular;writing-mode:lr-tb;fill:#231f20;fill-opacity:1;fill-rule:nonzero;stroke:none;stroke-width:0.352778"
         id="text2949"
         x="-188.7822"
         y="181.53793"><tspan
           x="-188.7822 -186.6105 -185.47597 -184.57851 -182.00041 -181.00134 -180.00227 -177.70781 -174.60902 -172.56856 -170.21906 -168.3475 -166.22661 -165.32913 -164.14847 -161.82437 -160.44006 -159.5426 -157.67105 -155.34695 -154.0054 -151.61781 -150.72035 -148.82382 -146.78336 -145.10695 -144.11636 -141.76686"
           y="181.53793"
           sodipodi:role="line"
           id="tspan2947"
           style="stroke-width:0.352778">1” Allowance for cord casing</tspan></text>
      <text
         transform="rotate(-86.852403)"
         style="font-variant:normal;font-weight:normal;font-stretch:normal;font-size:4.23333px;font-family:'Myriad Pro';-inkscape-font-specification:MyriadPro-Regular;writing-mode:lr-tb;fill:#231f20;fill-opacity:1;fill-rule:nonzero;stroke:none;stroke-width:0.352778"
         id="text2953"
         x="-186.67067"
         y="198.94489"><tspan
           x="-186.67067 -184.6302 -182.2426 -179.855 -178.95753 -176.78583 -175.3338 -173.16209 -172.02756 -171.1301 -169.94899 -167.62489 -166.2406 -165.34312 -163.94189 -161.59239 -160.60179 -158.70526 -156.71982 -154.59892 -153.21461 -152.31715 -150.4456 -148.12149 -146.77953"
           y="198.94489"
           sodipodi:role="line"
           id="tspan2951"
           style="stroke-width:0.352778">add 1/2” for thicker cord</tspan></text>
    </g>
  </g>
</svg>
