<?xml version="1.0" encoding="UTF-8" standalone="no"?>
<svg
   xmlns:dc="http://purl.org/dc/elements/1.1/"
   xmlns:cc="http://creativecommons.org/ns#"
   xmlns:rdf="http://www.w3.org/1999/02/22-rdf-syntax-ns#"
   xmlns:svg="http://www.w3.org/2000/svg"
   xmlns="http://www.w3.org/2000/svg"
   xmlns:sodipodi="http://sodipodi.sourceforge.net/DTD/sodipodi-0.dtd"
   xmlns:inkscape="http://www.inkscape.org/namespaces/inkscape"
   sodipodi:docname="teenagers-women-pocket-face-mask-template-rev3-2.svg"
   inkscape:version="1.0 (4035a4fb49, 2020-05-01)"
   id="svg1242"
   version="1.1"
   viewBox="0 0 143.34761 164.39081"
   height="164.39081mm"
   width="143.34761mm">
  <defs
     id="defs1236">
    <clipPath
       clipPathUnits="userSpaceOnUse"
       id="clipPath1821">
      <path
         d="M 0,792 H 612 V 0 H 0 Z"
         id="path1819" />
    </clipPath>
    <clipPath
       clipPathUnits="userSpaceOnUse"
       id="clipPath1879">
      <path
         d="M 0,792 H 612 V 0 H 0 Z"
         id="path1877" />
    </clipPath>
    <clipPath
       clipPathUnits="userSpaceOnUse"
       id="clipPath1887">
      <path
         d="M 82.7266,639.095 H 545.608 V 169.56 H 82.7266 Z"
         id="path1885" />
    </clipPath>
    <clipPath
       clipPathUnits="userSpaceOnUse"
       id="clipPath1975">
      <path
         d="M 0,792 H 612 V 0 H 0 Z"
         id="path1973" />
    </clipPath>
  </defs>
  <sodipodi:namedview
     inkscape:window-maximized="1"
     inkscape:window-y="-8"
     inkscape:window-x="-8"
     inkscape:window-height="1002"
     inkscape:window-width="1920"
     fit-margin-bottom="0"
     fit-margin-right="0"
     fit-margin-left="0"
     fit-margin-top="0"
     showgrid="false"
     inkscape:document-rotation="0"
     inkscape:current-layer="layer1"
     inkscape:document-units="mm"
     inkscape:cy="442.06246"
     inkscape:cx="312.09444"
     inkscape:zoom="0.98994949"
     inkscape:pageshadow="2"
     inkscape:pageopacity="0.0"
     borderopacity="1.0"
     bordercolor="#666666"
     pagecolor="#ffffff"
     id="base" />
  <metadata
     id="metadata1239">
    <rdf:RDF>
      <cc:Work
         rdf:about="">
        <dc:format>image/svg+xml</dc:format>
        <dc:type
           rdf:resource="http://purl.org/dc/dcmitype/StillImage" />
        <dc:title></dc:title>
      </cc:Work>
    </rdf:RDF>
  </metadata>
  <g
     transform="translate(-23.258345,-55.370374)"
     id="layer1"
     inkscape:groupmode="layer"
     inkscape:label="Layer 1">
    <g
       id="g2198">
      <g
         id="g1815"
         transform="matrix(0.35277777,0,0,-0.35277777,-8.2746224,287.3637)">
        <g
           id="g1817"
           clip-path="url(#clipPath1821)">
          <g
             id="g1823"
             transform="translate(434.8174,222.2754)">
            <path
               d="M 0,0 C 0.848,-0.052 1.679,-0.105 2.49,-0.16 L 2.673,2.333"
               style="fill:none;stroke:#231f20;stroke-width:0.5;stroke-linecap:butt;stroke-linejoin:miter;stroke-miterlimit:10;stroke-dasharray:none;stroke-opacity:1"
               id="path1825" />
          </g>
          <g
             id="g1827"
             transform="translate(437.8506,229.543)">
            <path
               d="M 0,0 16.419,224.518"
               style="fill:none;stroke:#231f20;stroke-width:0.5;stroke-linecap:butt;stroke-linejoin:miter;stroke-miterlimit:10;stroke-dasharray:4.948, 4.948;stroke-dashoffset:0;stroke-opacity:1"
               id="path1829" />
          </g>
          <g
             id="g1831"
             transform="translate(454.4492,456.5283)">
            <path
               d="m 0,0 0.183,2.493 c 0,0 -0.849,-0.172 -2.462,-0.404"
               style="fill:none;stroke:#231f20;stroke-width:0.5;stroke-linecap:butt;stroke-linejoin:miter;stroke-miterlimit:10;stroke-dasharray:none;stroke-opacity:1"
               id="path1833" />
          </g>
          <g
             id="g1835"
             transform="translate(447.2041,458.0308)">
            <path
               d="M 0,0 C -30.289,-2.896 -147.176,-2.901 -238.101,151.639"
               style="fill:none;stroke:#231f20;stroke-width:0.5;stroke-linecap:butt;stroke-linejoin:miter;stroke-miterlimit:10;stroke-dasharray:5.004, 5.004;stroke-dashoffset:0;stroke-opacity:1"
               id="path1837" />
          </g>
          <g
             id="g1839"
             transform="translate(207.8335,611.8403)">
            <path
               d="m 0,0 c -0.417,0.718 -0.834,1.44 -1.251,2.165 0,0 -0.675,-0.54 -1.908,-1.61"
               style="fill:none;stroke:#231f20;stroke-width:0.5;stroke-linecap:butt;stroke-linejoin:miter;stroke-miterlimit:10;stroke-dasharray:none;stroke-opacity:1"
               id="path1841" />
          </g>
          <g
             id="g1843"
             transform="translate(201.0054,609.0898)">
            <path
               d="m 0,0 c -20.679,-19.229 -91.363,-94.373 -82.944,-216.391 0,0 -5.859,-47.567 45.53,-166.132"
               style="fill:none;stroke:#231f20;stroke-width:0.5;stroke-linecap:butt;stroke-linejoin:miter;stroke-miterlimit:10;stroke-dasharray:4.943, 4.943;stroke-dashoffset:0;stroke-opacity:1"
               id="path1845" />
          </g>
          <g
             id="g1847"
             transform="translate(164.5811,224.29)">
            <path
               d="m 0,0 c 0.332,-0.761 0.666,-1.523 1.002,-2.29 0,0 0.863,0.02 2.496,0.058"
               style="fill:none;stroke:#231f20;stroke-width:0.5;stroke-linecap:butt;stroke-linejoin:miter;stroke-miterlimit:10;stroke-dasharray:none;stroke-opacity:1"
               id="path1849" />
          </g>
          <g
             id="g1851"
             transform="translate(173.1069,222.168)">
            <path
               d="M 0,0 C 36.313,0.787 194.356,3.912 259.192,0.256"
               style="fill:none;stroke:#231f20;stroke-width:0.5;stroke-linecap:butt;stroke-linejoin:miter;stroke-miterlimit:10;stroke-dasharray:5.033, 5.033;stroke-dashoffset:0;stroke-opacity:1"
               id="path1853" />
          </g>
        </g>
      </g>
      <text
         transform="rotate(-53.604804)"
         style="font-variant:normal;font-weight:normal;font-stretch:normal;font-size:4.23333px;font-family:'Myriad Pro';-inkscape-font-specification:MyriadPro-Regular;writing-mode:lr-tb;fill:#231f20;fill-opacity:1;fill-rule:nonzero;stroke:none;stroke-width:0.352778"
         id="text1857"
         x="-56.454136"
         y="98.642708"><tspan
           x="-56.454136 -54.650318 -52.529423 -50.408527 -48.059032 -46.01857 -43.652142 -41.531246 -40.146954 -38.470554 -37.57309 -35.011929 -34.266865 -30.824751 -28.500656 -24.970064 -22.849169"
           y="98.642708"
           sodipodi:role="line"
           id="tspan1855"
           style="stroke-width:0.352778">Teenagers &amp; Women</tspan></text>
      <text
         style="font-variant:normal;font-weight:normal;font-stretch:normal;font-size:3.81px;font-family:'Myriad Pro';-inkscape-font-specification:MyriadPro-Regular;writing-mode:lr-tb;fill:#231f20;fill-opacity:1;fill-rule:nonzero;stroke:none;stroke-width:0.352778"
         id="text1861"
         x="74.195786"
         y="148.02579"><tspan
           x="74.195786 75.460709 77.201881 78.996391 81.164276 83.07309 83.880806 85.945831 86.753548 89.058601 89.866318 92.076118 93.691559 94.583099 96.697647 98.206406 99.467514 100.71339 102.8127 104.56911 105.83022 106.72176 108.81345 110.928"
           y="148.02579"
           sodipodi:role="line"
           id="tspan1859"
           style="stroke-width:0.352778">(Type B &amp; C instruction)</tspan></text>
      <text
         style="font-variant:normal;font-weight:normal;font-stretch:normal;font-size:7.62px;font-family:'Myriad Pro';-inkscape-font-specification:MyriadPro-Regular;writing-mode:lr-tb;fill:#231f20;fill-opacity:1;fill-rule:nonzero;stroke:none;stroke-width:0.352778"
         id="text1871"
         x="73.187057"
         y="160.81483"><tspan
           x="73.187057 76.783699 78.566772 82.795876 84.578957 88.808052 93.067635 94.683075 98.051117 101.72395 106.05974 108.58195 110.36504"
           y="160.81483"
           sodipodi:role="line"
           id="tspan1869"
           style="stroke-width:0.352778">Lining Fabric</tspan></text>
      <text
         style="font-variant:normal;font-weight:normal;font-stretch:normal;font-size:6.35px;font-family:'Myriad Pro';-inkscape-font-specification:MyriadPro-Regular;writing-mode:lr-tb;fill:#231f20;fill-opacity:1;fill-rule:nonzero;stroke:none;stroke-width:0.352778"
         id="text1909"
         x="57.252647"
         y="133.5526"><tspan
           x="57.252647 60.472099 63.958248 66.803047 69.781197 72.962547 75.0644 76.410599 79.2173 82.278 85.084694 88.266052 89.612244 94.755745 97.816452 100.33105 103.3092 104.39505 107.10015 110.28149 115.5774 119.19055 120.68915 123.72445 125.7882"
           y="133.5526"
           sodipodi:role="line"
           id="tspan1907"
           style="stroke-width:0.352778">Pocket Face Mask Template</tspan></text>
      <text
         style="font-variant:normal;font-weight:normal;font-stretch:normal;font-size:4.23333px;font-family:'Myriad Pro';-inkscape-font-specification:MyriadPro-Regular;writing-mode:lr-tb;fill:#231f20;fill-opacity:1;fill-rule:nonzero;stroke:none;stroke-width:0.352778"
         id="text1923"
         x="92.641693"
         y="214.20193"><tspan
           x="92.641693 94.813393 96.265427 98.437126 99.572083 100.46955 102.58156 104.70246 106.74293 110.27352 111.17099 113.74866 114.74773 115.7468 118.04127 121.14007 123.18053 125.53004 127.40117"
           y="214.20193"
           sodipodi:role="line"
           id="tspan1919"
           style="stroke-width:0.352778">3/8” Seam Allowance</tspan><tspan
           x="93.484123 95.655823"
           y="182.87526"
           sodipodi:role="line"
           id="tspan1921"
           style="stroke-width:0.352778">2”</tspan></text>
      <g
         id="g1925"
         transform="matrix(0.35277777,0,0,-0.35277777,69.869111,184.63922)">
        <path
           d="M 0,0 H 144"
           style="fill:none;stroke:#231f20;stroke-width:1;stroke-linecap:butt;stroke-linejoin:miter;stroke-miterlimit:4;stroke-dasharray:none;stroke-opacity:1"
           id="path1927" />
      </g>
      <g
         id="g1929"
         transform="matrix(0.35277777,0,0,-0.35277777,69.869111,187.10867)">
        <path
           d="M 0,0 V 14.4"
           style="fill:none;stroke:#231f20;stroke-width:1;stroke-linecap:butt;stroke-linejoin:miter;stroke-miterlimit:4;stroke-dasharray:none;stroke-opacity:1"
           id="path1931" />
      </g>
      <g
         id="g1933"
         transform="matrix(0.35277777,0,0,-0.35277777,120.66911,187.10867)">
        <path
           d="M 0,0 V 14.4"
           style="fill:none;stroke:#231f20;stroke-width:1;stroke-linecap:butt;stroke-linejoin:miter;stroke-miterlimit:4;stroke-dasharray:none;stroke-opacity:1"
           id="path1935" />
      </g>
      <text
         style="font-variant:normal;font-weight:normal;font-stretch:normal;font-size:3.81px;font-family:'Myriad Pro';-inkscape-font-specification:MyriadPro-Regular;writing-mode:lr-tb;fill:#231f20;fill-opacity:1;fill-rule:nonzero;stroke:none;stroke-width:0.352778"
         id="text1939"
         x="64.570351"
         y="191.342"><tspan
           x="64.570351 66.578224 67.477386 69.386192 71.22261 72.731377 74.640182 75.447899 77.154785 79.269333 81.178146 82.885025 84.671913 85.47963 87.236046 89.327728 91.42704 92.672913 93.480637 94.989395 96.696274 98.532692 99.431854 101.34066 102.14838 104.26293 106.17175 107.37951 109.28832 110.09604 111.93246 113.08651 114.32476 116.23357 117.47944 118.28716 120.45505 121.71578 122.60732 124.70663"
           y="191.342"
           sodipodi:role="line"
           id="tspan1937"
           style="stroke-width:0.352778">Please check your scale here after print</tspan></text>
      <text
         style="font-variant:normal;font-weight:normal;font-stretch:normal;font-size:4.445px;font-family:'Myriad Pro';-inkscape-font-specification:MyriadPro-Regular;writing-mode:lr-tb;fill:#231f20;fill-opacity:1;fill-rule:nonzero;stroke:none;stroke-width:0.352778"
         id="text1945"
         x="89.61158"
         y="171.59402"><tspan
           x="89.61158 92.189674 95.06559 97.274757 98.217094"
           y="171.59402"
           sodipodi:role="line"
           id="tspan1941"
           style="stroke-width:0.352778">CUT 2</tspan><tspan
           x="78.254601 80.281525 82.721825 83.770851 86.277824 87.220169 89.26931 91.709618 94.158813 95.612328 96.554665 97.852608 99.995094 102.5243 103.9956 105.03573 107.02708 107.96943 109.41405"
           y="166.53561"
           sodipodi:role="line"
           id="tspan1943"
           style="stroke-width:0.352778">Fold your fabric to</tspan></text>
      <g
         id="g1957"
         transform="matrix(0.35277777,0,0,-0.35277777,134.52802,179.78955)">
        <path
           d="M 0,0 2.437,-4.219 4.872,-8.436 7.308,-4.219 9.743,0 H 5.575 V 63.564 H 4.169 V 0 Z"
           style="fill:#000000;fill-opacity:1;fill-rule:nonzero;stroke:none"
           id="path1959" />
      </g>
      <g
         id="g1961"
         transform="matrix(0.35277777,0,0,-0.35277777,137.9652,160.3413)">
        <path
           d="M 0,0 -2.436,4.22 -4.871,8.436 -7.308,4.22 -9.743,0 h 4.168 v -63.564 h 1.406 V 0 Z"
           style="fill:#000000;fill-opacity:1;fill-rule:nonzero;stroke:none"
           id="path1963" />
      </g>
      <g
         id="g1969"
         transform="matrix(0.35277777,0,0,-0.35277777,-8.2746224,287.3637)"
         style="fill:none;stroke:#ff000d;stroke-width:1.00063;stroke-miterlimit:4;stroke-dasharray:none;stroke-opacity:1">
        <g
           id="g1971"
           clip-path="url(#clipPath1975)"
           style="fill:none;stroke:#ff000d;stroke-width:1.00063;stroke-miterlimit:4;stroke-dasharray:none;stroke-opacity:1">
          <g
             id="g1977"
             transform="translate(435.9355,194.791)"
             style="fill:none;stroke:#ff000d;stroke-width:1.00063;stroke-miterlimit:4;stroke-dasharray:none;stroke-opacity:1">
            <path
               d="M 0,0 C -19.507,1.314 -52.27,1.982 -97.39,1.982 -177.111,1.981 -268.266,-0.15 -269.177,-0.171 l -18.756,-0.443 -7.543,17.176 c -49.373,112.442 -50.711,167.684 -49.951,182.031 -2.202,35.112 1.435,69.552 10.821,102.405 7.649,26.784 19.106,52.522 34.05,76.503 25.603,41.086 53.082,63.276 54.24,64.201 l 25.498,20.371 16.257,-28.299 c 32.254,-56.144 71.116,-96.513 115.506,-119.983 35.321,-18.675 66.438,-22.595 86.324,-22.595 9.602,0 15.607,0.962 16.493,1.113 l 7.676,1.316 0.006,-0.032 37.859,-2.647 -0.013,10e-4 L 57.181,262.112 39.856,25.206 37.827,-2.562 37.822,-2.628 -0.217,0.032"
               style="fill:none;stroke:#ff000d;stroke-width:1.00063;stroke-linecap:butt;stroke-linejoin:miter;stroke-miterlimit:4;stroke-dasharray:none;stroke-opacity:1"
               id="path1979" />
          </g>
        </g>
      </g>
      <text
         transform="rotate(-85.880706)"
         style="font-variant:normal;font-weight:normal;font-stretch:normal;font-size:4.23333px;font-family:'Myriad Pro';-inkscape-font-specification:MyriadPro-Regular;writing-mode:lr-tb;fill:#231f20;fill-opacity:1;fill-rule:nonzero;stroke:none;stroke-width:0.352778"
         id="text1983"
         x="-177.10199"
         y="170.68933"><tspan
           x="-177.10199 -174.93028 -173.47826 -171.30655 -170.1716 -168.37666 -166.26422 -164.14333 -162.10286 -158.57227 -157.67479 -155.09669 -154.09763 -153.09856 -150.80409 -147.70529 -145.66483 -143.31532 -141.4442"
           y="170.68933"
           sodipodi:role="line"
           id="tspan1981"
           style="stroke-width:0.352778">1/2” Seam Allowance</tspan></text>
    </g>
  </g>
</svg>
