<?xml version="1.0" encoding="UTF-8" standalone="no"?>
<svg
   xmlns:dc="http://purl.org/dc/elements/1.1/"
   xmlns:cc="http://creativecommons.org/ns#"
   xmlns:rdf="http://www.w3.org/1999/02/22-rdf-syntax-ns#"
   xmlns:svg="http://www.w3.org/2000/svg"
   xmlns="http://www.w3.org/2000/svg"
   xmlns:sodipodi="http://sodipodi.sourceforge.net/DTD/sodipodi-0.dtd"
   xmlns:inkscape="http://www.inkscape.org/namespaces/inkscape"
   sodipodi:docname="teenagers-women-pocket-face-mask-template-rev3-1.svg"
   inkscape:version="1.0 (4035a4fb49, 2020-05-01)"
   id="svg8"
   version="1.1"
   viewBox="0 0 168.01215 165.92644"
   height="165.92644mm"
   width="168.01215mm">
  <defs
     id="defs2">
    <clipPath
       clipPathUnits="userSpaceOnUse"
       id="clipPath849">
      <path
         d="M 0,792 H 612 V 0 H 0 Z"
         id="path847" />
    </clipPath>
    <clipPath
       clipPathUnits="userSpaceOnUse"
       id="clipPath907">
      <path
         d="M 0,792 H 612 V 0 H 0 Z"
         id="path905" />
    </clipPath>
    <clipPath
       clipPathUnits="userSpaceOnUse"
       id="clipPath915">
      <path
         d="M 82.7266,639.095 H 545.608 V 169.56 H 82.7266 Z"
         id="path913" />
    </clipPath>
    <clipPath
       clipPathUnits="userSpaceOnUse"
       id="clipPath1003">
      <path
         d="M 0,792 H 612 V 0 H 0 Z"
         id="path1001" />
    </clipPath>
    <clipPath
       clipPathUnits="userSpaceOnUse"
       id="clipPath1023">
      <path
         d="M 0,792 H 612 V 0 H 0 Z"
         id="path1021" />
    </clipPath>
  </defs>
  <sodipodi:namedview
     inkscape:snap-page="true"
     inkscape:snap-global="true"
     inkscape:window-maximized="1"
     inkscape:window-y="-8"
     inkscape:window-x="-8"
     inkscape:window-height="1002"
     inkscape:window-width="1920"
     fit-margin-bottom="0"
     fit-margin-right="0"
     fit-margin-left="0"
     fit-margin-top="0"
     showgrid="false"
     inkscape:document-rotation="0"
     inkscape:current-layer="layer1"
     inkscape:document-units="mm"
     inkscape:cy="377.1363"
     inkscape:cx="407.21175"
     inkscape:zoom="1.4"
     inkscape:pageshadow="2"
     inkscape:pageopacity="0.0"
     borderopacity="1.0"
     bordercolor="#666666"
     pagecolor="#ffffff"
     id="base" />
  <metadata
     id="metadata5">
    <rdf:RDF>
      <cc:Work
         rdf:about="">
        <dc:format>image/svg+xml</dc:format>
        <dc:type
           rdf:resource="http://purl.org/dc/dcmitype/StillImage" />
        <dc:title></dc:title>
      </cc:Work>
    </rdf:RDF>
  </metadata>
  <g
     transform="translate(-22.704965,-58.778729)"
     id="layer1"
     inkscape:groupmode="layer"
     inkscape:label="Layer 1">
    <g
       transform="matrix(0.35277777,0,0,-0.35277777,-1.6246419,287.3637)"
       id="g843">
      <g
         clip-path="url(#clipPath849)"
         id="g845">
        <g
           transform="translate(414.8174,212.2754)"
           id="g851">
          <path
             id="path853"
             style="fill:none;stroke:#231f20;stroke-width:0.5;stroke-linecap:butt;stroke-linejoin:miter;stroke-miterlimit:10;stroke-dasharray:none;stroke-opacity:1"
             d="M 0,0 C 0.848,-0.052 1.679,-0.105 2.49,-0.16 L 2.673,2.333" />
        </g>
        <g
           transform="translate(417.8506,219.543)"
           id="g855">
          <path
             id="path857"
             style="fill:none;stroke:#231f20;stroke-width:0.5;stroke-linecap:butt;stroke-linejoin:miter;stroke-miterlimit:10;stroke-dasharray:4.948, 4.948;stroke-dashoffset:0;stroke-opacity:1"
             d="M 0,0 16.419,224.518" />
        </g>
        <g
           transform="translate(434.4492,446.5283)"
           id="g859">
          <path
             id="path861"
             style="fill:none;stroke:#231f20;stroke-width:0.5;stroke-linecap:butt;stroke-linejoin:miter;stroke-miterlimit:10;stroke-dasharray:none;stroke-opacity:1"
             d="m 0,0 0.183,2.493 c 0,0 -0.849,-0.172 -2.462,-0.404" />
        </g>
        <g
           transform="translate(427.2041,448.0308)"
           id="g863">
          <path
             id="path865"
             style="fill:none;stroke:#231f20;stroke-width:0.5;stroke-linecap:butt;stroke-linejoin:miter;stroke-miterlimit:10;stroke-dasharray:5.004, 5.004;stroke-dashoffset:0;stroke-opacity:1"
             d="M 0,0 C -30.289,-2.896 -147.176,-2.901 -238.101,151.639" />
        </g>
        <g
           transform="translate(187.8335,601.8403)"
           id="g867">
          <path
             id="path869"
             style="fill:none;stroke:#231f20;stroke-width:0.5;stroke-linecap:butt;stroke-linejoin:miter;stroke-miterlimit:10;stroke-dasharray:none;stroke-opacity:1"
             d="m 0,0 c -0.417,0.718 -0.834,1.44 -1.251,2.165 0,0 -0.675,-0.54 -1.908,-1.61" />
        </g>
        <g
           transform="translate(181.0054,599.0898)"
           id="g871">
          <path
             id="path873"
             style="fill:none;stroke:#231f20;stroke-width:0.5;stroke-linecap:butt;stroke-linejoin:miter;stroke-miterlimit:10;stroke-dasharray:4.943, 4.943;stroke-dashoffset:0;stroke-opacity:1"
             d="m 0,0 c -20.679,-19.229 -91.363,-94.373 -82.944,-216.391 0,0 -5.859,-47.567 45.53,-166.132" />
        </g>
        <g
           transform="translate(144.5811,214.29)"
           id="g875">
          <path
             id="path877"
             style="fill:none;stroke:#231f20;stroke-width:0.5;stroke-linecap:butt;stroke-linejoin:miter;stroke-miterlimit:10;stroke-dasharray:none;stroke-opacity:1"
             d="m 0,0 c 0.332,-0.761 0.666,-1.523 1.002,-2.29 0,0 0.863,0.02 2.496,0.058" />
        </g>
        <g
           transform="translate(153.1069,212.168)"
           id="g879">
          <path
             id="path881"
             style="fill:none;stroke:#231f20;stroke-width:0.5;stroke-linecap:butt;stroke-linejoin:miter;stroke-miterlimit:10;stroke-dasharray:5.033, 5.033;stroke-dashoffset:0;stroke-opacity:1"
             d="M 0,0 C 36.313,0.787 194.356,3.912 259.192,0.256" />
        </g>
      </g>
    </g>
    <text
       y="100.40945"
       x="-59.534439"
       id="text885"
       style="font-variant:normal;font-weight:normal;font-stretch:normal;font-size:4.23333px;font-family:'Myriad Pro';-inkscape-font-specification:MyriadPro-Regular;writing-mode:lr-tb;fill:#231f20;fill-opacity:1;fill-rule:nonzero;stroke:none;stroke-width:0.352778"
       transform="rotate(-53.604804)"><tspan
         style="stroke-width:0.352778"
         id="tspan883"
         sodipodi:role="line"
         y="100.40945"
         x="-59.534439 -57.731045 -55.610149 -53.489254 -51.139759 -49.099297 -46.732872 -44.611977 -43.22768 -41.551285 -40.65382 -38.092659 -37.347591 -33.905903 -31.581806 -28.051216 -25.930321">Teenagers &amp; Women</tspan></text>
    <text
       y="151.55357"
       x="73.790215"
       id="text889"
       style="font-variant:normal;font-weight:normal;font-stretch:normal;font-size:3.81px;font-family:'Myriad Pro';-inkscape-font-specification:MyriadPro-Regular;writing-mode:lr-tb;fill:#231f20;fill-opacity:1;fill-rule:nonzero;stroke:none;stroke-width:0.352778"><tspan
         style="stroke-width:0.352778"
         id="tspan887"
         sodipodi:role="line"
         y="151.55357"
         x="73.790215 75.055138 76.796303 78.590813 80.758705 82.667511 83.475235 85.540253 86.347977 88.653023 89.460747 91.67054 93.28598 94.177521 96.292076 97.800835 99.061943 100.30782 102.40712 104.16354 105.42464 106.31618 108.40788 110.52242">(Type B &amp; C instruction)</tspan></text>
    <text
       y="164.34261"
       x="74.793266"
       id="text899"
       style="font-variant:normal;font-weight:normal;font-stretch:normal;font-size:7.62px;font-family:'Myriad Pro';-inkscape-font-specification:MyriadPro-Regular;writing-mode:lr-tb;fill:#231f20;fill-opacity:1;fill-rule:nonzero;stroke:none;stroke-width:0.352778"><tspan
         style="stroke-width:0.352778"
         id="tspan897"
         sodipodi:role="line"
         y="164.34261"
         x="74.793266 80.965469 84.638306 86.421387 90.65049 92.26593 95.633965 99.306808 103.64259 106.16481 107.94788">Main Fabric</tspan></text>
    <text
       y="137.08037"
       x="56.847073"
       id="text937"
       style="font-variant:normal;font-weight:normal;font-stretch:normal;font-size:6.35px;font-family:'Myriad Pro';-inkscape-font-specification:MyriadPro-Regular;writing-mode:lr-tb;fill:#231f20;fill-opacity:1;fill-rule:nonzero;stroke:none;stroke-width:0.352778"><tspan
         style="stroke-width:0.352778"
         id="tspan935"
         sodipodi:role="line"
         y="137.08037"
         x="56.847073 60.066525 63.552673 66.397476 69.375626 72.556976 74.658821 76.00502 78.811722 81.872421 84.679123 87.860474 89.206673 94.350174 97.410873 99.925476 102.90363 103.98947 106.69457 109.87592 115.17182 118.78497 120.28358 123.31887 125.38262">Pocket Face Mask Template</tspan></text>
    <text
       y="217.72971"
       x="92.236115"
       id="text951"
       style="font-variant:normal;font-weight:normal;font-stretch:normal;font-size:4.23333px;font-family:'Myriad Pro';-inkscape-font-specification:MyriadPro-Regular;writing-mode:lr-tb;fill:#231f20;fill-opacity:1;fill-rule:nonzero;stroke:none;stroke-width:0.352778"><tspan
         style="stroke-width:0.352778"
         id="tspan947"
         sodipodi:role="line"
         y="217.72971"
         x="92.236115 94.407814 95.859848 98.031548 99.166084 100.06355 102.17556 104.29646 106.33693 109.86753 110.76499 113.34309 114.34216 115.34122 117.6357 120.73449 122.77496 125.12446 126.99559">3/8” Seam Allowance</tspan><tspan
         style="stroke-width:0.352778"
         id="tspan949"
         sodipodi:role="line"
         y="186.40305"
         x="93.078552 95.250252">2”</tspan></text>
    <g
       transform="matrix(0.35277777,0,0,-0.35277777,69.463536,188.167)"
       id="g953">
      <path
         id="path955"
         style="fill:none;stroke:#231f20;stroke-width:1;stroke-linecap:butt;stroke-linejoin:miter;stroke-miterlimit:4;stroke-dasharray:none;stroke-opacity:1"
         d="M 0,0 H 144" />
    </g>
    <g
       transform="matrix(0.35277777,0,0,-0.35277777,69.463536,190.63645)"
       id="g957">
      <path
         id="path959"
         style="fill:none;stroke:#231f20;stroke-width:1;stroke-linecap:butt;stroke-linejoin:miter;stroke-miterlimit:4;stroke-dasharray:none;stroke-opacity:1"
         d="M 0,0 V 14.4" />
    </g>
    <g
       transform="matrix(0.35277777,0,0,-0.35277777,120.26353,190.63645)"
       id="g961">
      <path
         id="path963"
         style="fill:none;stroke:#231f20;stroke-width:1;stroke-linecap:butt;stroke-linejoin:miter;stroke-miterlimit:4;stroke-dasharray:none;stroke-opacity:1"
         d="M 0,0 V 14.4" />
    </g>
    <text
       y="194.86978"
       x="64.16478"
       id="text967"
       style="font-variant:normal;font-weight:normal;font-stretch:normal;font-size:3.81px;font-family:'Myriad Pro';-inkscape-font-specification:MyriadPro-Regular;writing-mode:lr-tb;fill:#231f20;fill-opacity:1;fill-rule:nonzero;stroke:none;stroke-width:0.352778"><tspan
         style="stroke-width:0.352778"
         id="tspan965"
         sodipodi:role="line"
         y="194.86978"
         x="64.16478 66.172646 67.071808 68.980621 70.817039 72.325798 74.234612 75.042328 76.749207 78.863762 80.772568 82.479446 84.266342 85.074059 86.830467 88.922157 91.021469 92.267334 93.075058 94.583817 96.290695 98.127121 99.026276 100.93509 101.74281 103.85735 105.76617 106.97356 108.88237 109.69009 111.5265 112.68094 113.91919 115.828 117.07387 117.88159 120.04948 121.31021 122.20174 124.30106">Please check your scale here after print</tspan></text>
    <text
       y="175.12181"
       x="89.206001"
       id="text973"
       style="font-variant:normal;font-weight:normal;font-stretch:normal;font-size:4.445px;font-family:'Myriad Pro';-inkscape-font-specification:MyriadPro-Regular;writing-mode:lr-tb;fill:#231f20;fill-opacity:1;fill-rule:nonzero;stroke:none;stroke-width:0.352778"><tspan
         style="stroke-width:0.352778"
         id="tspan969"
         sodipodi:role="line"
         y="175.12181"
         x="89.206001 91.784103 94.660019 96.869186 97.811523">CUT 2</tspan><tspan
         style="stroke-width:0.352778"
         id="tspan971"
         sodipodi:role="line"
         y="170.0634"
         x="77.84903 79.875946 82.316254 83.365273 85.872253 86.81459 88.863739 91.304047 93.753235 95.206757 96.149094 97.447029 99.589523 102.11873 103.59003 104.63015 106.62151 107.56385 109.00848">Fold your fabric to</tspan></text>
    <g
       transform="matrix(0.35277777,0,0,-0.35277777,134.12244,183.31733)"
       id="g985">
      <path
         id="path987"
         style="fill:#000000;fill-opacity:1;fill-rule:nonzero;stroke:none"
         d="M 0,0 2.437,-4.219 4.872,-8.436 7.308,-4.219 9.743,0 H 5.575 V 63.564 H 4.169 V 0 Z" />
    </g>
    <g
       transform="matrix(0.35277777,0,0,-0.35277777,137.55963,163.86908)"
       id="g989">
      <path
         id="path991"
         style="fill:#000000;fill-opacity:1;fill-rule:nonzero;stroke:none"
         d="M 0,0 -2.436,4.22 -4.871,8.436 -7.308,4.22 -9.743,0 h 4.168 v -63.564 h 1.406 V 0 Z" />
    </g>
    <path
       d="M 66.972029,58.912054 C 55.42036,67.477394 45.058622,77.771633 37.868444,90.340827 26.113285,109.43072 21.503983,132.22659 22.978666,154.44752 c 1.450345,23.78112 10.882497,46.10827 20.31729,67.69023 34.688986,-0.57057 69.438404,-1.83671 104.103174,-0.0202 11.80344,0.83501 23.45227,1.58422 35.18961,2.58746 2.7094,-34.52002 5.4188,-69.04006 8.12819,-103.56008 -12.72946,-0.65711 -25.19515,-1.69274 -38.04367,-2.54455 -14.91166,2.13568 -30.74841,-1.7622 -43.57035,-9.86337 C 89.891414,97.164989 77.48842,78.129181 66.972029,58.912054 Z"
       style="fill:none;stroke:#ff0000;stroke-width:0.176389;stroke-linecap:butt;stroke-linejoin:miter;stroke-miterlimit:10;stroke-dasharray:none;stroke-opacity:1"
       id="path1007" />
    <text
       y="175.847"
       x="-185.38687"
       id="text1011"
       style="font-variant:normal;font-weight:normal;font-stretch:normal;font-size:4.23333px;font-family:'Myriad Pro';-inkscape-font-specification:MyriadPro-Regular;writing-mode:lr-tb;fill:#231f20;fill-opacity:1;fill-rule:nonzero;stroke:none;stroke-width:0.352778"
       transform="rotate(-86.044401)"><tspan
         style="stroke-width:0.352778"
         id="tspan1009"
         sodipodi:role="line"
         y="175.847"
         x="-185.38687 -183.21518 -182.08064 -181.18318 -178.60509 -177.60602 -176.60695 -174.31248 -171.21368 -169.17323 -166.82373 -164.95218 -162.83128 -161.93381 -160.75313 -158.42903 -157.04474 -156.14728 -154.27571 -151.95161 -150.61008 -148.22249 -147.32501 -145.42848 -143.38803 -141.71162 -140.72102 -138.37152">1” Allowance for cord casing</tspan></text>
    <text
       y="194.00688"
       x="-183.15668"
       id="text1015"
       style="font-variant:normal;font-weight:normal;font-stretch:normal;font-size:4.23333px;font-family:'Myriad Pro';-inkscape-font-specification:MyriadPro-Regular;writing-mode:lr-tb;fill:#231f20;fill-opacity:1;fill-rule:nonzero;stroke:none;stroke-width:0.352778"
       transform="rotate(-86.852403)"><tspan
         style="stroke-width:0.352778"
         id="tspan1013"
         sodipodi:role="line"
         y="194.00688"
         x="-183.15668 -181.11621 -178.72861 -176.34102 -175.44354 -173.27185 -171.81981 -169.64812 -168.51358 -167.6161 -166.43501 -164.11092 -162.72661 -161.82915 -160.4279 -158.07841 -157.08781 -155.19127 -153.20584 -151.08495 -149.70064 -148.80318 -146.93161 -144.60751 -143.26555">add 1/2” for thicker cord</tspan></text>
  </g>
</svg>
