<?xml version="1.0" encoding="UTF-8"?>
<!-- Created by Vectric (http://www.vectric.com/) -->
<svg width="11.00000000in" height="17.00000000in" viewBox="0.00000000 0.00000000 11.00000000 17.00000000" id="svg2" version="1.1" xmlns="http://www.w3.org/2000/svg" xmlns:xlink="http://www.w3.org/1999/xlink" xmlns:inkscape="http://www.inkscape.org/namespaces/inkscape">
    <g inkscape:groupmode="layer" id="85667243-1302-4a85-b3ac-c7bf39b332ec" inkscape:label="Toolpath Previews" style="stroke:#000000;"/>
    <g inkscape:groupmode="layer" id="992692b5-a280-4fcc-abbd-626b0f8655c1" inkscape:label="Layer 1" style="stroke:#000000;">
        <path style="fill:none;stroke-width:0.010000;stroke-linecap:round;stroke-linejoin:round;stroke-opacity:1;stroke:#000000;" d="M 7.079684,1.072315 C 7.075103,1.073930 7.052182,1.081835 7.024585,1.091350 A 0.250000,0.250000 0 0,0 6.883885,1.442289 L 6.883983,1.442474 L 6.884764,1.443938 C 7.183629,2.004238 7.754073,2.427435 8.362627,2.617692 A 2.612499,2.612499 0 0,0 9.144106,2.802106 C 9.436000,2.805778 9.523951,2.392947 9.242863,2.282247 A 4.843343,4.843343 0 0,1 8.513945,1.746763 A 0.062591,0.062591 0 0,1 8.527735,1.642371 L 9.208976,1.322297 A 0.125000,0.125000 0 0,1 9.264092,1.310447 L 9.782392,1.310447 A 0.200000,0.200000 0 0,1 9.982392,1.510447 L 9.982392,2.082247 A 0.100000,0.100000 0 0,1 9.882392,2.182247 L 9.742863,2.182247 A 0.100000,0.100000 0 0,0 9.642863,2.282247 L 9.642863,2.734807 A 0.100000,0.100000 0 0,0 9.742863,2.834807 L 10.144406,2.834807 A 0.100000,0.100000 0 0,0 10.244406,2.734807 L 10.244406,2.182247 C 10.244406,1.826580 10.245514,1.369045 10.245696,0.984067 C 10.245698,0.979133 10.244519,0.974210 10.244521,0.969300 C 10.244523,0.963771 10.242118,0.957667 10.242119,0.952170 C 10.242120,0.946747 10.240892,0.941819 10.239801,0.936540 C 10.236803,0.922045 10.233960,0.915477 10.228641,0.900499 C 10.226296,0.893893 10.219223,0.879796 10.212827,0.866861 C 10.209725,0.860587 10.195617,0.842901 10.186211,0.826473 C 10.180779,0.816986 10.164889,0.804774 10.145569,0.784637 C 10.139415,0.778222 10.117026,0.760558 10.081167,0.742019 C 10.065925,0.734139 10.053143,0.728704 10.036625,0.723134 C 10.031463,0.721393 10.022673,0.719417 10.018063,0.718595 C 10.007547,0.716721 9.977621,0.711740 9.963568,0.710965 C 9.963290,0.710869 9.962979,0.710786 9.962672,0.710768 C 9.962249,0.710743 9.961900,0.710688 9.961514,0.710690 C 9.960190,0.710699 9.959639,0.710446 9.957425,0.710341 C 9.955065,0.710228 9.952869,0.710057 9.950612,0.710024 C 9.948585,0.709995 9.946564,0.709146 9.944564,0.709005 C 9.942717,0.708874 9.941954,0.708226 9.940460,0.708010 C 9.936466,0.707431 9.932514,0.707806 9.928603,0.707580 C 9.918336,0.706984 9.908347,0.706527 9.898592,0.705853 C 9.875604,0.704264 9.853915,0.701603 9.832953,0.700234 C 9.794696,0.697736 9.758862,0.696868 9.721975,0.696040 C 9.626851,0.693905 9.524719,0.691707 9.355952,0.694311 C 9.254528,0.695876 9.128788,0.697235 8.965527,0.709752 C 8.835425,0.719728 8.799280,0.728541 8.511401,0.753131 C 8.425023,0.760509 8.313148,0.778090 8.173258,0.802006 C 8.071519,0.819398 8.043393,0.827616 7.963115,0.844029 C 7.935467,0.849682 7.901692,0.856015 7.856712,0.866189 C 7.719191,0.897293 7.559217,0.936611 7.409451,0.975550 C 7.304851,1.002746 7.340787,0.995834 7.162582,1.045422 C 7.158467,1.046567 7.154238,1.048325 7.149891,1.049531 C 7.146473,1.050479 7.142983,1.052029 7.139417,1.053017 C 7.133075,1.054774 7.126625,1.056900 7.119963,1.059261 C 7.107504,1.063675 7.094304,1.067160 7.079684,1.072315 "/>
    </g>
</svg>
