<?xml version="1.0" encoding="UTF-8" standalone="no"?>
<!-- Created with Inkscape (http://www.inkscape.org/) -->

<svg
   xmlns:dc="http://purl.org/dc/elements/1.1/"
   xmlns:cc="http://creativecommons.org/ns#"
   xmlns:rdf="http://www.w3.org/1999/02/22-rdf-syntax-ns#"
   xmlns:svg="http://www.w3.org/2000/svg"
   xmlns="http://www.w3.org/2000/svg"
   xmlns:sodipodi="http://sodipodi.sourceforge.net/DTD/sodipodi-0.dtd"
   xmlns:inkscape="http://www.inkscape.org/namespaces/inkscape"
   width="396.66812mm"
   height="217.88873mm"
   viewBox="0 0 396.66812 217.88873"
   version="1.1"
   id="svg8"
   inkscape:version="0.92.4 (5da689c313, 2019-01-14)"
   sodipodi:docname="template.svg">
  <defs
     id="defs2">
    <marker
       style="overflow:visible"
       refY="0"
       refX="0"
       orient="auto"
       id="DistanceX">
      <path
         id="path12"
         style="stroke:#000000;stroke-width:0.5"
         d="M 3,-3 -3,3 M 0,-5 V 5"
         inkscape:connector-curvature="0" />
    </marker>
    <pattern
       y="0"
       x="0"
       width="8"
       patternUnits="userSpaceOnUse"
       id="Hatch"
       height="8">
      <path
         id="path15"
         stroke-width="0.25"
         stroke="#000000"
         linecap="square"
         d="M8 4 l-4,4" />
      <path
         id="path17"
         stroke-width="0.25"
         stroke="#000000"
         linecap="square"
         d="M6 2 l-4,4" />
      <path
         id="path19"
         stroke-width="0.25"
         stroke="#000000"
         linecap="square"
         d="M4 0 l-4,4" />
    </pattern>
    <symbol
       id="*MODEL_SPACE" />
    <symbol
       id="*PAPER_SPACE" />
  </defs>
  <sodipodi:namedview
     id="base"
     pagecolor="#ffffff"
     bordercolor="#666666"
     borderopacity="1.0"
     inkscape:pageopacity="0.0"
     inkscape:pageshadow="2"
     inkscape:zoom="0.35"
     inkscape:cx="35.323345"
     inkscape:cy="1117.4725"
     inkscape:document-units="mm"
     inkscape:current-layer="layer1"
     showgrid="false"
     fit-margin-top="0"
     fit-margin-left="0"
     fit-margin-right="0"
     fit-margin-bottom="0"
     inkscape:window-width="1920"
     inkscape:window-height="986"
     inkscape:window-x="-11"
     inkscape:window-y="-11"
     inkscape:window-maximized="1" />
  <metadata
     id="metadata5">
    <rdf:RDF>
      <cc:Work
         rdf:about="">
        <dc:format>image/svg+xml</dc:format>
        <dc:type
           rdf:resource="http://purl.org/dc/dcmitype/StillImage" />
        <dc:title></dc:title>
      </cc:Work>
    </rdf:RDF>
  </metadata>
  <g
     inkscape:label="Layer 1"
     inkscape:groupmode="layer"
     id="layer1"
     transform="translate(-96.487365,-226.6092)">
    <g
       id="g34"
       inkscape:label="0"
       transform="matrix(-0.26458333,0,0,-0.26458333,289.75536,663.33735)">
      <path
         id="path26"
         style="fill:none;stroke:#000000"
         d="m 648.19445,1601.9364 a 11.247875,11.247875 0 1 0 -22.49575,0 11.247875,11.247875 0 1 0 22.49575,0 z"
         inkscape:connector-curvature="0" />
      <path
         id="path28"
         style="fill:none;stroke:#000000"
         d="m -663.99337,1601.9364 a 11.247874,11.247874 0 1 0 -22.49574,0 11.247874,11.247874 0 1 0 22.49574,0 z"
         inkscape:connector-curvature="0" />
      <path
         id="path30"
         style="fill:none;stroke:#000000"
         d="m -30.414522,1613.2283 a 11.2479,11.2479 0 0 1 0,-22.4958 h 22.534378 a 11.2479,11.2479 0 0 1 0,22.4958 z"
         inkscape:connector-curvature="0" />
      <path
         id="path32"
         style="fill:none;stroke:#000000"
         d="m 728.50826,1623.3345 a 28.5696,28.5696 0 0 1 -28.51423,26.7916 H -738.2887 a 28.5696,28.5696 0 0 1 -28.51422,-26.7916 749.10754,749.10754 0 1 1 1495.31118,0 z"
         inkscape:connector-curvature="0" />
    </g>
  </g>
</svg>
